<?xml version="1.0" encoding="UTF-8" standalone="no"?>
<!DOCTYPE svg PUBLIC "-//W3C//DTD SVG 1.1//EN" "http://www.w3.org/Graphics/SVG/1.1/DTD/svg11.dtd">
<!-- Created with Vectornator (http://vectornator.io/) -->
<svg height="100%" stroke-miterlimit="10" style="fill-rule:nonzero;clip-rule:evenodd;stroke-linecap:round;stroke-linejoin:round;" version="1.1" viewBox="0 0 164 164" width="100%" xml:space="preserve" xmlns="http://www.w3.org/2000/svg" xmlns:vectornator="http://vectornator.io" xmlns:xlink="http://www.w3.org/1999/xlink">
<defs/>
<g id="Слой-1" vectornator:layerName="Слой 1">
<path d="M77.3219 60.8231C77.3411 60.8098 77.3603 60.7966 77.3795 60.7833" fill="none" opacity="1" stroke="#000000" stroke-linecap="round" stroke-linejoin="round" stroke-width="2.46457"/>
<path d="M70.6533 53.7627C80.822 45.3859 95.8561 46.8387 104.233 57.0074C112.61 67.1762 111.157 82.2103 100.988 90.587C90.8193 98.9637 75.7852 97.5109 67.4085 87.3422C59.0318 77.1734 60.4845 62.1394 70.6533 53.7627Z" fill="#000000" fill-opacity="0" fill-rule="nonzero" opacity="1" stroke="#000000" stroke-linecap="butt" stroke-linejoin="round" stroke-width="2.46457"/>
<path d="M37.648 69.7421C43.1137 69.061 48.9261 70.6107 53.3206 73.2227C55.4558 74.4917 58.88 77.8613 58.88 77.8613C58.88 77.8613 59.2785 78.5 59.86 79.5278C61.2911 82.0572 63.8309 86.9427 64.2697 90.464C65.8989 103.538 56.6213 115.457 43.5478 117.086C30.4742 118.715 18.5552 109.437 16.9261 96.3638C15.2969 83.2902 24.5744 71.3713 37.648 69.7421Z" fill="#000000" fill-opacity="0" fill-rule="nonzero" opacity="1" stroke="#000000" stroke-linecap="butt" stroke-linejoin="round" stroke-width="2.46457"/>
<path d="M93.4942 153.48C78.5629 159.58 61.5142 152.42 55.4149 137.489C49.3155 122.557 56.4752 105.508 71.4066 99.4091C86.3379 93.3098 103.387 100.47 109.486 115.401C110.947 118.977 111.647 122.675 111.662 126.315C111.709 137.871 104.849 148.842 93.4942 153.48Z" fill="#000000" fill-opacity="0" fill-rule="nonzero" opacity="1" stroke="#000000" stroke-linecap="butt" stroke-linejoin="round" stroke-width="2.46457"/>
<path d="M99.5458 126.986C99.5477 127.049 99.5496 127.112 99.5516 127.175" fill="none" opacity="1" stroke="#000000" stroke-linecap="round" stroke-linejoin="round" stroke-width="2.46457"/>
<path d="M28.9262 96.9635C28.8421 96.9076 28.758 96.8518 28.6739 96.796" fill="none" opacity="1" stroke="#000000" stroke-linecap="round" stroke-linejoin="round" stroke-width="1.9571"/>
<path d="M11.2287 65.1052L27.6478 57.1679L24.113 54.09L16.1908 54.8022L20.3383 49.2212L15.2495 45.6801L16.9509 43.5282L13.5309 36.2742L20.6857 39.1779L22.8596 36.5548L36.7696 43.1628L30.2424 36.0372L35.354 32.7063L28.8248 26.7131L34.9041 25.1489L30.3909 17.5253L37.0391 18.4234L43.3035 3.17708L49.4505 13.2846L54.5475 10.2387L55.3785 17.9447L61.4876 14.4099L60.351 23.8414L66.4007 24.3667L62.5767 32.8804L69.0012 30.5029L61.5753 43.4403L61.1164 44.2397L71.5657 37.2551L71.1632 43.4218L78.6359 35.6378L78.9197 39.3739L87.2834 32.9936L85.6029 41.8385L85.6891 48.1291C85.6891 48.1291 80.9597 48.4509 78.4091 49.3364C75.8585 50.2218 72.8735 51.9134 72.8735 51.9134C72.8735 51.9134 70.293 53.5045 68.7305 55.3933C67.168 57.2821 66.5118 57.8545 65.5706 59.6073C64.6295 61.3601 63.7828 63.3133 63.7828 63.3133L62.7354 66.0211C62.7354 66.0211 62.1478 68.5214 62.1675 70.5408C62.1872 72.5602 61.9655 79.325 62.2064 81.3059C62.2691 81.8218 56.1763 71.4556 42.1176 69.5693C33.0468 68.3523 25.7028 75.1987 25.7028 75.1987L21.7838 78.2503L21.7464 72.0932L14.8519 72.3595L18.5963 67.84L11.2287 65.1052Z" fill="#000000" fill-opacity="0" fill-rule="nonzero" opacity="1" stroke="#000000" stroke-linecap="butt" stroke-linejoin="round" stroke-width="2.46457"/>
<path d="M119.16 60.7185L120.856 75.8791L124.274 73.9272L125.92 67.4668L129.174 72.2765L133.391 69.2225L134.617 71.1579L141.303 70.4414L137.014 75.3039L138.481 77.7421L129.381 86.9317L136.832 83.7227L138.04 88.6782L144.596 85.1572L144.138 90.3937L151.421 88.9139L148.858 93.9256L159.16 103.059L149.459 105.15L150.445 110.016L144.124 108.561L145.214 114.361L138.077 110.877L135.976 115.517L130.314 110.16L130.402 115.892L122.247 106.473L121.744 105.891L124.351 116.07L119.589 114.061L123.658 122.104L120.626 121.305L123.337 129.668L116.815 125.915L111.96 127.907C111.96 127.907 111.885 125.562 111.489 122.653C111.093 119.744 110.453 118.036 109.679 115.842C108.904 113.648 108.79 113.997 107.768 112.257C106.745 110.517 106.683 110.402 105.588 108.882C104.493 107.363 104.548 107.385 103.387 106.18C102.225 104.975 102.293 105.181 100.942 104.062C99.5913 102.943 97.9827 101.704 97.9827 101.704L95.1026 100.009L91.5855 98.2985L86.6443 96.5981C86.6443 96.5981 91.8065 95.2795 95.3636 93.7697C98.9207 92.2598 100.873 90.5588 100.873 90.5588L103.902 87.7067C103.902 87.7067 105.973 86.1175 107.433 82.6292C108.893 79.141 109.389 78.333 109.742 73.7537C110.094 69.1744 108.844 64.312 108.844 64.312L110.706 67.1212L112.418 61.5956L114.945 65.7956L119.16 60.7185Z" fill="#000000" fill-opacity="0" fill-rule="nonzero" opacity="1" stroke="#000000" stroke-linecap="butt" stroke-linejoin="round" stroke-width="2.46457"/>
<path d="M65.9504 98.6653C64.6873 98.6653 67.9684 96.5315 67.9778 96.5253C68.2378 96.352 68.9872 95.7975 68.7662 96.0184C68.1603 96.6244 67.4602 97.1555 66.8515 97.7642C66.6166 97.9991 66.4105 98.2615 66.1757 98.4963C66.0907 98.5813 65.8429 98.7242 65.9504 98.7779C66.2452 98.9253 67.6867 97.2868 67.8652 97.0884C68.0711 96.8596 68.7362 96.3563 68.4283 96.3563C67.8763 96.3563 65.7664 100.021 65.6125 100.636C65.6006 100.684 64.3935 102.213 64.4862 102.213C64.5783 102.213 64.6972 101.636 64.7115 101.594C65.0874 100.466 65.7732 99.5359 65.8941 98.3274C66.1512 95.7564 67.0017 93.0714 66.6262 90.4431C66.4519 89.2226 65.3827 88.5618 65.162 87.4583C64.9485 86.3906 64.6596 85.0254 64.092 84.0793C63.9089 83.7741 63.7362 83.4804 63.5851 83.1783C63.4894 82.9868 63.1909 82.4574 63.1909 82.6714C63.1909 83.2371 64.0177 84.0997 64.2609 84.5862C65.4714 87.0071 67.7552 88.9426 68.8226 91.3441C69.0987 91.9654 69.1331 92.4951 69.7799 92.8647C70.033 93.0093 70.2305 93.0993 70.512 93.1463C70.6469 93.1687 71.0285 93.1978 70.9063 93.2589C70.1966 93.6137 68.7999 93.2273 67.9778 93.4842C67.5387 93.6214 67.1838 93.8142 66.7952 94.0473C66.6791 94.117 66.3967 94.3937 66.4573 94.2726C66.8138 93.5594 67.5872 92.9719 68.0341 92.3015C68.2278 92.011 68.6536 91.1076 68.6536 91.4568C68.6536 91.7365 67.62 93.8221 67.9778 93.8221C68.4756 93.8221 69.9892 92.1407 70.2305 92.3015C70.3309 92.3685 70.0738 92.79 70.0615 92.8084C69.23 94.0556 67.9411 94.965 67.4146 96.4126C67.4084 96.4298 67.2604 96.6905 67.471 96.6379C68.0165 96.5015 70.1506 92.5287 69.442 92.2452C68.4795 91.8602 67.054 96.1656 66.8515 96.7505C66.7989 96.9025 66.3011 98.1323 66.6262 98.3274C67.9045 99.0944 69.8707 95.8494 70.3994 95.1173C70.5951 94.8464 70.8272 94.6027 71.0189 94.3289C71.0878 94.2304 71.3292 93.9623 71.2442 94.0473C69.5184 95.7731 67.6773 97.2247 66.1194 99.1721C66.1147 99.1779 65.2649 100.115 65.3873 100.298C65.5627 100.562 67.2056 99.0326 67.302 98.9469C68.0435 98.2878 68.7911 97.5911 69.611 97.0321C70.1015 96.6977 71.0752 96.0184 71.0752 96.0184C71.0752 96.0184 70.763 96.1894 70.6247 96.3C70.2919 96.5662 69.9536 96.8314 69.611 97.0884C68.6876 97.781 67.7785 98.583 66.9641 99.3974C66.8233 99.5382 66.1194 100.242 66.1194 100.242C66.0196 100.35 65.8378 100.727 65.8378 100.58C65.8378 100.112 66.8264 99.4225 67.1331 99.1158C68.678 97.5709 71.5043 96.5945 73.6095 96.2437C74.1577 96.1523 76.3502 96.3939 76.7069 95.6805C77.1908 94.7126 72.2025 94.3714 71.8073 94.2726C71.6383 94.2303 70.6308 93.4613 71.0189 93.2026C71.5856 92.8248 75.0954 94.9763 75.8058 95.23C76.3636 95.4292 78.8765 95.7368 78.4527 95.7368" fill="none" opacity="1" stroke="#000000" stroke-linecap="round" stroke-linejoin="round" stroke-width="2.46457"/>
<path d="M25.4864 98.0856C27.7352 97.2807 29.97 96.4411 32.266 95.7843" fill="none" opacity="1" stroke="#000000" stroke-linecap="round" stroke-linejoin="round" stroke-width="2.46457"/>
<path d="M77.3215 57.8439C77.7113 60.2004 78.1376 62.5493 78.3732 64.9257" fill="none" opacity="1" stroke="#000000" stroke-linecap="round" stroke-linejoin="round" stroke-width="2.46457"/>
<path d="M102.507 127.057C100.125 127.235 97.7475 127.45 95.3595 127.472" fill="none" opacity="1" stroke="#000000" stroke-linecap="round" stroke-linejoin="round" stroke-width="2.46457"/>
<path d="M29.5893 100.673C29.191 99.663 27.5174 94.8046 27.1476 93.7834" fill="none" opacity="1" stroke="#000000" stroke-linecap="round" stroke-linejoin="round" stroke-width="2.46457"/>
<path d="M74.0416 61.4178C75.107 61.2067 80.1864 60.429 81.2572 60.2478" fill="none" opacity="1" stroke="#000000" stroke-linecap="round" stroke-linejoin="round" stroke-width="2.46457"/>
<path d="M99.2406 123.471C99.3556 124.551 99.6762 129.68 99.761 130.763" fill="none" opacity="1" stroke="#000000" stroke-linecap="round" stroke-linejoin="round" stroke-width="2.46457"/>
</g>
</svg>
