<?xml version="1.0" encoding="UTF-8" standalone="no"?>
<!DOCTYPE svg PUBLIC "-//W3C//DTD SVG 1.1//EN" "http://www.w3.org/Graphics/SVG/1.1/DTD/svg11.dtd">
<!-- Created with Vectornator (http://vectornator.io/) -->
<svg height="100%" stroke-miterlimit="10" style="fill-rule:nonzero;clip-rule:evenodd;stroke-linecap:round;stroke-linejoin:round;" version="1.1" viewBox="0 0 164 164" width="100%" xml:space="preserve" xmlns="http://www.w3.org/2000/svg" xmlns:vectornator="http://vectornator.io" xmlns:xlink="http://www.w3.org/1999/xlink">
<defs/>
<g id="Слой-1" vectornator:layerName="Слой 1">
<path d="M50.7578 73.8916C61.1421 61.9767 79.4279 60.8234 91.6003 71.3157C103.773 81.808 105.222 99.9726 94.8379 111.888C84.4536 123.802 66.1678 124.956 53.9954 114.463C41.823 103.971 40.3735 85.8066 50.7578 73.8916Z" fill="none" opacity="1" stroke="#000000" stroke-linecap="butt" stroke-linejoin="round" stroke-width="3.01522"/>
<path d="M86.5959 152.282C78.1267 141.744 79.5541 126.373 89.7839 117.95C100.014 109.526 115.172 111.241 123.641 121.779C132.111 132.316 130.683 147.687 120.453 156.111C110.224 164.534 95.065 162.82 86.5959 152.282Z" fill="none" opacity="1" stroke="#000000" stroke-linecap="butt" stroke-linejoin="round" stroke-width="3.01522"/>
<path d="M84.2073 66.0406C73.1028 61.2458 68.0884 48.0529 73.0073 36.5735C77.9262 25.094 90.9158 19.6751 102.02 24.4699C113.125 29.2648 118.139 42.4577 113.22 53.9371C108.301 65.4165 95.3118 70.8355 84.2073 66.0406Z" fill="none" opacity="1" stroke="#000000" stroke-linecap="butt" stroke-linejoin="round" stroke-width="3.01522"/>
<path d="M75.7609 62.9029L36.915 48.0767" fill="none" opacity="1" stroke="#000000" stroke-linecap="butt" stroke-linejoin="round" stroke-width="2.16081"/>
<path d="M76.3436 63.3597L30.5555 2.37564" fill="none" opacity="1" stroke="#000000" stroke-linecap="butt" stroke-linejoin="round" stroke-width="2.25984"/>
<path d="M130.144 65.184L104.598 94.0271L130.144 65.184Z" fill="none" opacity="1" stroke="#000000" stroke-linecap="butt" stroke-linejoin="round" stroke-width="3.01522"/>
<path d="M130.396 65.3076C130.396 65.3076 87.0023 59.423 105.068 94.2173" fill="none" opacity="1" stroke="#000000" stroke-linecap="butt" stroke-linejoin="round" stroke-width="3.01522"/>
<path d="M69.6673 53.2912C69.6673 53.2912 69.9542 43.5451 71.7646 40.1415C73.575 36.7378 69.3603-4.70888 31.9319 2.95205" fill="none" opacity="1" stroke="#000000" stroke-linecap="butt" stroke-linejoin="round" stroke-width="2.25984"/>
<path d="M73.1491 61.5316C73.1491 61.5316 45.4941 77.1561 37.7553 48.9713" fill="none" opacity="1" stroke="#000000" stroke-linecap="butt" stroke-linejoin="round" stroke-width="2.16081"/>
<path d="M71.9367 61.0519C71.9367 61.0519 66.4215 37.4789 37.8665 48.0671" fill="none" opacity="1" stroke="#000000" stroke-linecap="butt" stroke-linejoin="round" stroke-width="2.16081"/>
<path d="M63.1867 46.2279C63.1867 46.2279 17.0976 40.2469 30.7651 3.72558" fill="none" opacity="1" stroke="#000000" stroke-linecap="butt" stroke-linejoin="round" stroke-width="2.25984"/>
<path d="M130.027 65.442C130.027 65.442 137.771 104.536 104.578 94.0073" fill="none" opacity="1" stroke="#000000" stroke-linecap="butt" stroke-linejoin="round" stroke-width="3.01522"/>
<path d="M99.4822 104.799C99.4822 104.799 107.39 113.494 118.57 114.087C124.522 114.402 131.418 112.165 138.524 105.355" fill="none" opacity="1" stroke="#000000" stroke-linecap="butt" stroke-linejoin="round" stroke-width="3.01522"/>
<path d="M120.031 95.4822C120.031 95.4822 136.996 101.825 138.072 107.045" fill="none" opacity="1" stroke="#000000" stroke-linecap="butt" stroke-linejoin="round" stroke-width="3.01522"/>
<path d="M102.717 95.4688C102.717 95.4688 125.078 112.007 136.398 106.611" fill="none" opacity="1" stroke="#000000" stroke-linecap="butt" stroke-linejoin="round" stroke-width="3.01522"/>
<path d="M99.1572 42.0031C101.569 39.2662 103.827 36.3958 106.239 33.6587" fill="none" opacity="1" stroke="#000000" stroke-linecap="round" stroke-linejoin="round" stroke-width="3.01522"/>
<path d="M113.583 136.67C111.719 132.956 109.648 129.349 107.784 125.634" fill="none" opacity="1" stroke="#000000" stroke-linecap="round" stroke-linejoin="round" stroke-width="3.01522"/>
<path d="M53.0512 82.1408C55.3608 85.9894 57.8845 89.7062 60.1941 93.5549" fill="none" opacity="1" stroke="#000000" stroke-linecap="round" stroke-linejoin="round" stroke-width="3.01522"/>
<path d="M107.083 41.5395C104.019 39.224 101.379 36.6461 98.5872 34.0591" fill="none" opacity="1" stroke="#000000" stroke-linecap="round" stroke-linejoin="round" stroke-width="3.01522"/>
<path d="M116.468 128.1C112.717 130.351 108.87 132.041 104.947 133.889" fill="none" opacity="1" stroke="#000000" stroke-linecap="round" stroke-linejoin="round" stroke-width="3.01522"/>
<path d="M50.6401 91.6055C54.497 88.8766 58.5035 86.7432 62.5776 84.4342" fill="none" opacity="1" stroke="#000000" stroke-linecap="round" stroke-linejoin="round" stroke-width="3.01522"/>
<path d="M100.544 109.79C100.124 108.949 100.832 108.309 101.167 107.639C101.27 107.433 100.789 107.903 100.601 108.035C100.381 108.189 100.184 108.373 99.9783 108.545C99.6367 108.829 98.1889 109.612 98.0541 110.016C98.0051 110.163 98.9551 109.99 99.0162 109.959C99.3997 109.768 101.139 108.786 100.884 108.148C100.479 107.137 97.4023 110.373 97.9409 111.091C98.2471 111.499 99.5857 110.805 99.8085 110.582C100.835 109.555 102.356 108.375 103.827 109.111" fill="none" opacity="1" stroke="#000000" stroke-linecap="round" stroke-linejoin="round" stroke-width="3.01522"/>
<path d="M101.223 109.563C101.223 109.129 102.154 109.393 102.525 109.62C104 110.521 104.512 111.997 106.373 111.997" fill="none" opacity="1" stroke="#000000" stroke-linecap="round" stroke-linejoin="round" stroke-width="3.01522"/>
<path d="M71.0577 51.6753C70.9629 51.6279 71.1717 52.7727 71.1717 53.1567C71.1717 53.3242 71.1167 55.0939 71.2287 55.0939C71.2831 55.0939 70.8935 53.9812 70.8868 53.9544C70.7326 53.3375 70.6345 52.7582 70.5449 52.1312C70.5096 51.8839 70.6076 51.2138 70.431 51.3905C70.2241 51.5973 71.0642 52.6716 71.1717 52.8149" fill="none" opacity="1" stroke="#000000" stroke-linecap="round" stroke-linejoin="round" stroke-width="3.01522"/>
<path d="M94.3494 114.414C94.1445 113.421 96.2109 112.536 96.9606 112.082C100.843 109.729 102.07 108.904 106.218 110.783" fill="none" opacity="1" stroke="#000000" stroke-linecap="round" stroke-linejoin="round" stroke-width="3.01522"/>
<path d="M98.7482 111.216C98.8164 111.177 98.8745 111.107 98.9528 111.098C100.131 110.963 101.314 110.699 102.496 110.787C103.525 110.863 104.489 111.318 105.486 111.583" fill="none" opacity="1" stroke="#000000" stroke-linecap="round" stroke-linejoin="round" stroke-width="3.01522"/>
</g>
</svg>
