<svg width="28" height="61" viewBox="0 0 28 61" fill="none" xmlns="http://www.w3.org/2000/svg">
<path d="M21.6381 60.0771H6.38294C4.69008 60.0771 3.06655 59.4179 1.86952 58.2445C0.67249 57.0711 3.48724e-06 55.4796 3.48724e-06 53.8201V23.4635C-0.00164843 21.3657 0.583621 19.3075 1.69214 17.513C2.80066 15.7185 4.38998 14.2563 6.28719 13.2856V7.34148C6.27775 7.16333 6.30696 6.98524 6.37288 6.81897C6.4388 6.65269 6.53994 6.50201 6.66962 6.37686C6.7993 6.2517 6.95458 6.15493 7.12522 6.09292C7.29585 6.0309 7.47796 6.00506 7.65952 6.0171H20.4254C20.5962 6.01571 20.7656 6.04766 20.9237 6.11111C21.0818 6.17455 21.2255 6.26821 21.3463 6.38663C21.4671 6.50505 21.5626 6.64585 21.6273 6.80083C21.6921 6.95582 21.7247 7.12188 21.7233 7.28934V13.2334C23.6265 14.2097 25.219 15.6806 26.3261 17.4851C27.4332 19.2895 28.0122 21.3579 27.9998 23.4635V53.841C27.9942 55.4932 27.3222 57.0762 26.1303 58.2445C24.9385 59.4128 23.3236 60.0716 21.6381 60.0771ZM8.87228 8.56159V14.0781C8.87131 14.3281 8.79643 14.5725 8.65672 14.7816C8.517 14.9908 8.31843 15.1557 8.08505 15.2565C6.45538 15.9513 5.06904 17.0988 4.09727 18.5573C3.1255 20.0159 2.61089 21.7215 2.61701 23.4635V53.841C2.61981 54.8192 3.01748 55.7566 3.72312 56.4483C4.42877 57.14 5.38501 57.5298 6.38294 57.5326H21.6381C22.6361 57.5298 23.5923 57.14 24.298 56.4483C25.0036 55.7566 25.4013 54.8192 25.4041 53.841V23.4635C25.4054 21.7198 24.8851 20.0139 23.9076 18.557C22.93 17.1002 21.5381 15.9563 19.9041 15.2669C19.6691 15.1654 19.4694 14.9989 19.3295 14.7877C19.1897 14.5765 19.1158 14.3299 19.1169 14.0781V8.56159H8.87228Z" fill="#CA2D24"/>
<path d="M26.2232 22.233H2.08505C1.75974 22.2041 1.4572 22.0571 1.23689 21.8207C1.01657 21.5843 0.894409 21.2757 0.894409 20.9555C0.894409 20.6353 1.01657 20.3267 1.23689 20.0904C1.4572 19.854 1.75974 19.7069 2.08505 19.6781H26.2232C26.5485 19.7069 26.851 19.854 27.0713 20.0904C27.2917 20.3267 27.4138 20.6353 27.4138 20.9555C27.4138 21.2757 27.2917 21.5843 27.0713 21.8207C26.851 22.0571 26.5485 22.2041 26.2232 22.233Z" fill="#CA2D24"/>
<path d="M21.3403 8.56159C20.9961 8.56159 20.6659 8.42755 20.4225 8.18895C20.1791 7.95036 20.0424 7.62676 20.0424 7.28934V4.78656C20.0285 4.20378 19.7825 3.64946 19.3571 3.24215C18.9316 2.83485 18.3605 2.6069 17.7658 2.60706H10.2552C9.95678 2.60706 9.66125 2.66485 9.38564 2.77713C9.11002 2.88941 8.85975 3.05396 8.6492 3.26132C8.43865 3.46869 8.27197 3.71478 8.15872 3.98548C8.04547 4.25617 7.9879 4.54613 7.9893 4.8387V7.34148C7.95988 7.66037 7.80985 7.95693 7.56871 8.1729C7.32757 8.38887 7.01275 8.50862 6.68612 8.50862C6.35948 8.50862 6.04466 8.38887 5.80352 8.1729C5.56238 7.95693 5.41236 7.66037 5.38293 7.34148V4.78656C5.38293 3.51889 5.89592 2.30299 6.80935 1.40563C7.72278 0.508278 8.96205 0.00276181 10.2552 0H17.7658C19.059 0.00276181 20.2983 0.508278 21.2117 1.40563C22.1251 2.30299 22.6381 3.51889 22.6381 4.78656V7.28934C22.6381 7.62676 22.5014 7.95036 22.258 8.18895C22.0146 8.42755 21.6845 8.56159 21.3403 8.56159Z" fill="#CA2D24"/>
<path d="M8.0958 47.5945H1.2767C0.951393 47.5656 0.648854 47.4185 0.428538 47.1822C0.208222 46.9458 0.0860596 46.6372 0.0860596 46.317C0.0860596 45.9968 0.208222 45.6882 0.428538 45.4518C0.648854 45.2154 0.951393 45.0684 1.2767 45.0395H8.05325C8.97499 45.0368 9.85818 44.6766 10.51 44.0377C11.1617 43.3988 11.5291 42.5331 11.5319 41.6295V36.2798C11.5376 35.379 11.1795 34.5126 10.5357 33.8697C9.89184 33.2269 9.01471 32.8599 8.0958 32.8489H1.2767C0.951393 32.8201 0.648854 32.673 0.428538 32.4366C0.208222 32.2003 0.0860596 31.8917 0.0860596 31.5715C0.0860596 31.2513 0.208222 30.9427 0.428538 30.7063C0.648854 30.4699 0.951393 30.3228 1.2767 30.294H8.05325C9.66624 30.2968 11.2124 30.9261 12.3529 32.0441C13.4935 33.1622 14.1355 34.6778 14.1383 36.259V41.6086C14.1412 43.1862 13.5075 44.7009 12.3755 45.8223C11.2435 46.9436 9.70509 47.5807 8.0958 47.5945Z" fill="#CA2D24"/>
</svg>
