<svg width="112" height="239" viewBox="0 0 112 239" fill="none" xmlns="http://www.w3.org/2000/svg">
<path d="M85.8573 238.41H25.4558C18.7531 238.41 12.3249 235.8 7.58533 231.154C2.8458 226.508 0.18315 220.207 0.18315 213.636V93.4421C0.176609 85.1358 2.49393 76.9868 6.88301 69.8815C11.2721 62.7763 17.5648 56.987 25.0767 53.1435V29.6084C25.0393 28.903 25.1549 28.1979 25.4159 27.5395C25.6769 26.8812 26.0774 26.2846 26.5909 25.789C27.1043 25.2935 27.7191 24.9103 28.3947 24.6648C29.0704 24.4193 29.7914 24.3169 30.5103 24.3646H81.0555C81.7319 24.3591 82.4027 24.4856 83.0287 24.7368C83.6547 24.988 84.2234 25.3589 84.7017 25.8277C85.18 26.2966 85.5583 26.8541 85.8146 27.4677C86.0708 28.0814 86.1999 28.7389 86.1943 29.4019V52.937C93.7301 56.8023 100.035 62.6263 104.419 69.7709C108.802 76.9156 111.095 85.105 111.046 93.4421V213.719C111.024 220.261 108.363 226.528 103.644 231.154C98.9247 235.78 92.5309 238.388 85.8573 238.41ZM35.3121 34.4393V56.2815C35.3082 57.2713 35.0118 58.2388 34.4586 59.0669C33.9054 59.895 33.1192 60.5481 32.1951 60.9472C25.7426 63.6981 20.2535 68.2416 16.4059 74.0165C12.5583 79.7914 10.5207 86.5447 10.5449 93.4421V213.719C10.556 217.592 12.1306 221.303 14.9245 224.042C17.7184 226.781 21.5046 228.324 25.4558 228.335H85.8573C89.8085 228.324 93.5947 226.781 96.3886 224.042C99.1825 221.303 100.757 217.592 100.768 213.719V93.4421C100.774 86.5379 98.7134 79.7836 94.8428 74.0153C90.9723 68.247 85.4612 63.7179 78.9916 60.9885C78.061 60.5865 77.2704 59.927 76.7167 59.0909C76.163 58.2547 75.8703 57.2783 75.8747 56.2815V34.4393H35.3121Z" fill="#CA2D24"/>
<path d="M104.012 88.57H8.43889C7.15088 88.4558 5.953 87.8735 5.08068 86.9376C4.20836 86.0016 3.72467 84.7797 3.72467 83.512C3.72467 82.2442 4.20836 81.0223 5.08068 80.0864C5.953 79.1505 7.15088 78.5682 8.43889 78.454H104.012C105.3 78.5682 106.497 79.1505 107.37 80.0864C108.242 81.0223 108.726 82.2442 108.726 83.512C108.726 84.7797 108.242 86.0016 107.37 86.9376C106.497 87.8735 105.3 88.4558 104.012 88.57Z" fill="#CA2D24"/>
<path d="M84.678 34.4393C83.3151 34.4393 82.008 33.9085 81.0443 32.9639C80.0806 32.0192 79.5392 30.7379 79.5392 29.4019V19.4924C79.4842 17.1849 78.5103 14.9901 76.8258 13.3775C75.1412 11.7648 72.8799 10.8622 70.5253 10.8629H40.7878C39.6061 10.8629 38.436 11.0917 37.3447 11.5363C36.2535 11.9808 35.2625 12.6323 34.4289 13.4534C33.5952 14.2744 32.9353 15.2488 32.4869 16.3206C32.0385 17.3924 31.8105 18.5405 31.8161 19.6989V29.6084C31.6996 30.871 31.1056 32.0452 30.1508 32.9003C29.196 33.7554 27.9495 34.2295 26.6562 34.2295C25.363 34.2295 24.1165 33.7554 23.1617 32.9003C22.2069 32.0452 21.6129 30.871 21.4964 29.6084V19.4924C21.4964 14.4732 23.5275 9.65893 27.1442 6.10594C30.7608 2.55294 35.6676 0.551401 40.7878 0.540466H70.5253C75.6456 0.551401 80.5523 2.55294 84.169 6.10594C87.7856 9.65893 89.8167 14.4732 89.8167 19.4924V29.4019C89.8167 30.7379 89.2753 32.0192 88.3116 32.9639C87.3479 33.9085 86.0408 34.4393 84.678 34.4393Z" fill="#CA2D24"/>
<path d="M32.2373 188.986H5.23768C3.94967 188.872 2.7518 188.29 1.87948 187.354C1.00716 186.418 0.523468 185.196 0.523468 183.928C0.523468 182.661 1.00716 181.439 1.87948 180.503C2.7518 179.567 3.94967 178.985 5.23768 178.87H32.0688C35.7183 178.859 39.2153 177.433 41.7959 174.904C44.3765 172.374 45.8312 168.946 45.8424 165.369V144.187C45.8649 140.62 44.4467 137.19 41.8976 134.645C39.3485 132.099 35.8756 130.646 32.2373 130.603H5.23768C3.94967 130.489 2.7518 129.906 1.87948 128.97C1.00716 128.034 0.523468 126.813 0.523468 125.545C0.523468 124.277 1.00716 123.055 1.87948 122.119C2.7518 121.183 3.94967 120.601 5.23768 120.487H32.0688C38.4553 120.498 44.577 122.99 49.093 127.416C53.6089 131.843 56.1509 137.844 56.162 144.105V165.286C56.1734 171.532 53.6644 177.53 49.1824 181.97C44.7004 186.41 38.6091 188.932 32.2373 188.986Z" fill="#CA2D24"/>
</svg>
