<?xml version="1.0" encoding="UTF-8" standalone="no"?>
<!DOCTYPE svg PUBLIC "-//W3C//DTD SVG 1.1//EN" "http://www.w3.org/Graphics/SVG/1.1/DTD/svg11.dtd">
<!-- Created with Vectornator (http://vectornator.io/) -->
<svg height="100%" stroke-miterlimit="10" style="fill-rule:nonzero;clip-rule:evenodd;stroke-linecap:round;stroke-linejoin:round;" version="1.1" viewBox="0 0 164 164" width="100%" xml:space="preserve" xmlns="http://www.w3.org/2000/svg" xmlns:vectornator="http://vectornator.io" xmlns:xlink="http://www.w3.org/1999/xlink">
<defs/>
<g id="Слой-1" vectornator:layerName="Слой 1">
<path d="M117.72 57.8847C127.916 46.103 140.281 39.7773 145.336 43.7558C150.392 47.7343 146.225 60.5104 136.028 72.2921C129.39 79.962 117.381 86.5404 112.071 87.7409C109.225 88.3845 110.944 86.7564 110.538 84.5482C109.643 79.6835 107.523 69.6663 117.72 57.8847Z" fill="#000000" fill-opacity="0" fill-rule="nonzero" opacity="1" stroke="#000000" stroke-linecap="butt" stroke-linejoin="round" stroke-width="1.9571"/>
<path d="M113.626 37.2518C109.187 52.4915 97.6631 71.5463 90.7809 68.453C83.8987 65.3596 84.2641 41.2894 88.7033 26.0498C93.1425 10.8101 102.32 0.963607 109.202 4.05697C116.085 7.15033 118.065 22.0122 113.626 37.2518Z" fill="#000000" fill-opacity="0" fill-rule="nonzero" opacity="1" stroke="#000000" stroke-linecap="butt" stroke-linejoin="round" stroke-width="1.9571"/>
<path d="M51.9145 53.3105C47.9374 42.7044 48.8837 32.271 54.0282 30.0069C59.1726 27.7428 66.5671 34.5053 70.5442 45.1114C74.5213 55.7176 79.0381 83.7962 73.8936 86.0603C68.7492 88.3245 55.8916 63.9167 51.9145 53.3105Z" fill="#000000" fill-opacity="0" fill-rule="nonzero" opacity="1" stroke="#000000" stroke-linecap="butt" stroke-linejoin="round" stroke-width="1.9571"/>
<path d="M24.4241 132.613C18.4193 123.008 17.2741 112.595 21.8662 109.354C26.4583 106.113 37.603 111.163 43.6079 120.768C49.6127 130.373 60.8312 134.794 56.2391 138.035C51.647 141.276 30.429 142.217 24.4241 132.613Z" fill="#000000" fill-opacity="0" fill-rule="nonzero" opacity="1" stroke="#000000" stroke-linecap="butt" stroke-linejoin="round" stroke-width="1.9571"/>
<path d="M107.79 117.375C108.66 126.133 102.264 133.938 93.5061 134.807C84.7478 135.677 76.943 129.282 76.0736 120.523C75.2042 111.765 81.5994 103.96 90.3576 103.091C99.1159 102.222 106.921 108.617 107.79 117.375Z" fill="#000000" fill-opacity="0" fill-rule="nonzero" opacity="1" stroke="#000000" stroke-linecap="butt" stroke-linejoin="round" stroke-width="2.46457"/>
<path d="M81.6488 144.025C80.6448 150.457 74.861 154.945 68.7303 154.051C62.5997 153.156 58.4438 147.216 59.4479 140.785C60.4519 134.353 66.2357 129.864 72.3663 130.759C78.497 131.654 82.6529 137.593 81.6488 144.025Z" fill="#000000" fill-opacity="0" fill-rule="nonzero" opacity="1" stroke="#000000" stroke-linecap="butt" stroke-linejoin="round" stroke-width="2.46457"/>
<path d="M77.749 93.6337C73.4198 85.195 76.8534 74.8758 85.4182 70.5853C93.9829 66.2947 104.436 69.6575 108.765 78.0963C113.094 86.535 109.66 96.8541 101.096 101.145C92.5309 105.435 82.0782 102.072 77.749 93.6337Z" fill="#000000" fill-opacity="0" fill-rule="nonzero" opacity="1" stroke="#000000" stroke-linecap="butt" stroke-linejoin="round" stroke-width="2.46457"/>
<path d="M79.1524 100.587C80.2168 111.309 72.3876 120.864 61.6653 121.928C50.943 122.993 41.3881 115.163 40.3237 104.441C39.2593 93.7189 47.0885 84.164 57.8108 83.0996C68.5331 82.0352 78.0881 89.8644 79.1524 100.587Z" fill="#000000" fill-opacity="0" fill-rule="nonzero" opacity="1" stroke="#000000" stroke-linecap="butt" stroke-linejoin="round" stroke-width="2.46457"/>
<path d="M100.355 79.1582C100.327 79.1899 100.3 79.2215 100.273 79.2531" fill="none" opacity="1" stroke="#000000" stroke-linecap="round" stroke-linejoin="round" stroke-width="2.46457"/>
<path d="M50.6435 94.8712C50.6675 94.8368 50.6916 94.8024 50.7157 94.768" fill="none" opacity="1" stroke="#000000" stroke-linecap="round" stroke-linejoin="round" stroke-width="2.46457"/>
<path d="M74.6672 116.173L39.668 160.661" fill="none" opacity="1" stroke="#000000" stroke-linecap="butt" stroke-linejoin="round" stroke-width="3.35614"/>
<path d="M91.3668 68.548L108.472 3.21359" fill="none" opacity="1" stroke="#000000" stroke-linecap="butt" stroke-linejoin="round" stroke-width="1.9571"/>
<path d="M144.883 44.2491L110.287 81.5665" fill="none" opacity="1" stroke="#000000" stroke-linecap="butt" stroke-linejoin="round" stroke-width="1.9571"/>
<path d="M74.7822 87.953L67.4993 67.7053L54.2548 30.8835" fill="none" opacity="1" stroke="#000000" stroke-linecap="butt" stroke-linejoin="round" stroke-width="1.9571"/>
<path d="M56.4514 138.496L22.2625 110.168" fill="none" opacity="1" stroke="#000000" stroke-linecap="butt" stroke-linejoin="round" stroke-width="1.9571"/>
<path d="M100.979 116.446C100.768 117.676 100.271 120.702 100.06 121.932" fill="none" opacity="1" stroke="#000000" stroke-linecap="round" stroke-linejoin="round" stroke-width="2.46457"/>
<path d="M77.1739 142.178C76.8056 143.023 75.9151 145.108 75.5468 145.953" fill="none" opacity="1" stroke="#000000" stroke-linecap="round" stroke-linejoin="round" stroke-width="2.46457"/>
<path d="M100.781 81.6057C100.558 80.5148 99.9892 77.8371 99.7662 76.7462" fill="none" opacity="1" stroke="#000000" stroke-linecap="round" stroke-linejoin="round" stroke-width="2.46457"/>
<path d="M103.114 119.621C101.883 119.416 98.8539 118.936 97.6231 118.731" fill="none" opacity="1" stroke="#000000" stroke-linecap="round" stroke-linejoin="round" stroke-width="2.46457"/>
<path d="M78.0507 144.825C77.2488 144.465 75.2707 143.595 74.4688 143.235" fill="none" opacity="1" stroke="#000000" stroke-linecap="round" stroke-linejoin="round" stroke-width="2.46457"/>
<path d="M97.9437 79.6573C99.0488 79.4288 101.761 78.8469 102.867 78.6184" fill="none" opacity="1" stroke="#000000" stroke-linecap="round" stroke-linejoin="round" stroke-width="2.46457"/>
<g opacity="1">
<path d="M51.1479 91.398C50.9366 92.6276 50.4399 95.6543 50.2286 96.8839" fill="none" opacity="1" stroke="#000000" stroke-linecap="round" stroke-linejoin="round" stroke-width="2.46457"/>
<path d="M53.2827 94.5726C52.052 94.368 49.0227 93.8879 47.7919 93.6833" fill="none" opacity="1" stroke="#000000" stroke-linecap="round" stroke-linejoin="round" stroke-width="2.46457"/>
</g>
<path d="M80.4152 106.274C80.3406 106.312 80.8603 103.527 80.7467 102.959C80.6519 102.485 80.2613 102.024 80.1665 101.55C79.9976 100.705 80.5567 99.6882 80.4152 98.9806C80.3637 98.7236 79.9044 98.2347 80.1665 98.2347C80.3822 98.2347 81.0418 99.4017 81.1611 99.5608C81.7595 100.359 82.2012 101.669 82.9845 102.296C83.2959 102.545 83.8249 102.39 84.062 102.627C84.2167 102.782 84.9938 104.065 85.3881 103.539C86.2324 102.413 81.9173 102.286 80.9124 103.29C80.7633 103.44 80.1302 104.206 80.498 104.451C81.147 104.883 82.8328 103.567 83.316 103.29C83.8251 103 83.4912 103.281 83.8962 102.876C83.9939 102.778 84.3043 102.513 84.2277 102.627C83.597 103.574 82.479 104.253 81.7413 105.114C80.9842 105.997 81.9921 104.944 82.1557 104.617" fill="none" opacity="1" stroke="#000000" stroke-linecap="round" stroke-linejoin="round" stroke-width="2.46457"/>
<path d="M74.1161 87.5429C74.1161 87.1918 74.0667 87.4019 74.6134 87.1285" fill="none" opacity="1" stroke="#000000" stroke-linecap="round" stroke-linejoin="round" stroke-width="2.46457"/>
</g>
</svg>
