<svg width="140" height="140" viewBox="0 0 140 140" fill="none" xmlns="http://www.w3.org/2000/svg">
<path d="M25.8145 62.2251C38.4494 62.8074 48.2687 73.6965 47.7467 86.5465C47.2248 99.3966 36.5591 109.341 23.9244 108.759C11.2895 108.176 1.47014 97.2872 1.9921 84.4374C2.51406 71.5876 13.1797 61.6427 25.8145 62.2251Z" stroke="black" stroke-width="3.01522" stroke-miterlimit="10" stroke-linejoin="round"/>
<path d="M73.6058 73.2613C88.3229 73.9193 99.7363 86.7727 99.0995 101.97C98.4618 117.167 86.0146 128.954 71.2982 128.295C56.5813 127.638 45.1675 114.785 45.8048 99.587C46.442 84.3897 58.8889 72.6032 73.6058 73.2613Z" stroke="black" stroke-width="3.01522" stroke-miterlimit="10" stroke-linejoin="round"/>
<path d="M58.7559 30.71C70.6525 31.242 79.879 41.6322 79.3639 53.9173C78.8489 66.2024 68.7871 75.7302 56.8905 75.1983C44.9939 74.6663 35.7674 64.276 36.2825 51.9909C36.7976 39.7059 46.8594 30.1781 58.7559 30.71Z" stroke="black" stroke-width="3.01522" stroke-miterlimit="10" stroke-linejoin="round"/>
<path d="M95.3468 84.0949L121.957 66.5255" stroke="black" stroke-width="3.01522" stroke-miterlimit="10" stroke-linejoin="round"/>
<path d="M96.5735 84.6561L138.028 110.697" stroke="black" stroke-width="3.01522" stroke-miterlimit="10" stroke-linejoin="round"/>
<path d="M89.4412 11.6778L78.8607 43.8203" stroke="black" stroke-width="3.01522" stroke-miterlimit="10" stroke-linejoin="round"/>
<path d="M89.6709 11.696C89.6709 11.696 54.92 21.2138 79.2761 43.8209" stroke="black" stroke-width="3.01522" stroke-miterlimit="10" stroke-linejoin="round"/>
<path d="M96.8049 83.2794C96.8049 83.2794 102.045 129.462 136.611 110.666" stroke="black" stroke-width="3.01522" stroke-miterlimit="10" stroke-linejoin="round"/>
<path d="M94.6272 84.4033C94.6272 84.4033 93.829 56.3792 120.706 66.6623" stroke="black" stroke-width="3.01522" stroke-miterlimit="10" stroke-linejoin="round"/>
<path d="M95.5662 83.8214C95.5662 83.8214 117.394 93.4457 121.316 67.5506" stroke="black" stroke-width="3.01522" stroke-miterlimit="10" stroke-linejoin="round"/>
<path d="M102.624 87.7407C102.624 87.7407 136.55 81.7522 137.353 109.484" stroke="black" stroke-width="3.01522" stroke-miterlimit="10" stroke-linejoin="round"/>
<path d="M89.4318 11.9283C89.4318 11.9283 107.264 41.4818 78.8401 43.8104" stroke="black" stroke-width="3.01522" stroke-miterlimit="10" stroke-linejoin="round"/>
<path d="M79.9992 52.8264C79.9992 52.8264 98.6112 64.9907 108.153 42.1218" stroke="black" stroke-width="3.01522" stroke-miterlimit="10" stroke-linejoin="round"/>
<path d="M91.0256 39.9111C91.0256 39.9111 105.847 39.5106 108.26 43.4431" stroke="black" stroke-width="3.01522" stroke-miterlimit="10" stroke-linejoin="round"/>
<path d="M79.2181 45.6265C79.2181 45.6265 100.232 51.8162 106.856 43.6403" stroke="black" stroke-width="3.01522" stroke-miterlimit="10" stroke-linejoin="round"/>
<path d="M53.3974 58.0598C52.1339 61.422 51.0594 64.8531 49.7957 68.2154" stroke="black" stroke-width="3.01522" stroke-miterlimit="10" stroke-linecap="round" stroke-linejoin="round"/>
<path d="M65.2413 96.4412C63.9777 99.8029 62.9032 103.234 61.6395 106.596" stroke="black" stroke-width="3.01522" stroke-miterlimit="10" stroke-linecap="round" stroke-linejoin="round"/>
<path d="M21.7843 67.7664C20.5207 71.1286 19.4462 74.5596 18.1826 77.9221" stroke="black" stroke-width="3.01522" stroke-miterlimit="10" stroke-linecap="round" stroke-linejoin="round"/>
<path d="M46.265 61.2566C49.8943 62.3169 53.2247 63.7671 56.6988 65.1724" stroke="black" stroke-width="3.01522" stroke-miterlimit="10" stroke-linecap="round" stroke-linejoin="round"/>
<path d="M58.1088 99.6373C61.7381 100.698 65.0685 102.148 68.5426 103.553" stroke="black" stroke-width="3.01522" stroke-miterlimit="10" stroke-linecap="round" stroke-linejoin="round"/>
<path d="M14.6518 70.9632C18.2811 72.0235 21.6115 73.4737 25.0856 74.8789" stroke="black" stroke-width="3.01522" stroke-miterlimit="10" stroke-linecap="round" stroke-linejoin="round"/>
<path d="M50.9919 82.412C50.0539 82.7872 50.7735 81.3368 50.848 81.1647C51.298 80.1262 52.358 79.2408 53.1988 78.5261C53.5863 78.1968 53.9797 77.8562 54.3982 77.5666C54.6061 77.4227 55.248 77.2479 55.0218 77.1348C54.6224 76.9351 53.6732 77.7929 53.3907 77.9984C51.7351 79.2025 50.6049 81.4243 50.2724 83.4195C50.1986 83.862 50.4554 85.3385 49.6007 85.3385C49.4325 85.3385 49.5048 85.0439 49.5048 84.9547C49.5048 83.5761 49.8511 82.2441 49.9365 80.8768C50.019 79.5571 49.8875 78.0205 49.2169 76.847C48.8369 76.182 48.0182 75.6245 47.5378 75.024C47.1516 74.5411 47.0386 74.0736 46.7702 73.5367C46.7298 73.4558 46.6592 73.3044 46.5783 73.3448C46.4632 73.4024 46.7408 73.8691 46.7702 73.9205C47.2204 74.7084 47.8216 74.903 48.6892 75.1199C50.135 75.4814 51.5136 75.3446 52.9589 75.5997C54.3058 75.8373 55.1176 76.4602 56.605 76.3672C57.3151 76.3228 58.2222 76.4672 58.9078 76.2712C58.9712 76.2531 59.0997 76.2893 59.0997 76.2233C59.0997 76.2233 58.4705 76.2674 58.4281 76.2712C58.089 76.3021 57.7614 76.3004 57.4206 76.3192C55.8177 76.4083 54.248 76.7516 52.6711 76.8949C52.2681 76.9316 51.0678 76.844 50.9919 77.3747C50.9282 77.8209 51.1189 78.2679 51.2798 78.67C51.2822 78.6759 51.5132 79.2172 51.5197 79.1978C51.6014 78.9528 51.3548 78.3673 51.2798 78.1423C50.2803 75.1439 47.9868 78.0192 48.4013 79.6775C48.569 80.3482 49.7233 80.2646 50.1284 79.9174C50.85 79.2988 50.0856 78.0534 49.6967 77.5186C49.638 77.438 49.0743 76.654 48.8811 76.799C48.2321 77.2857 49.2394 79.799 49.7926 79.2457C50.2776 78.7608 48.4327 76.3507 48.1135 76.0314C48.0092 75.9271 47.8819 75.6393 47.7776 75.7436C47.5779 75.9433 48.2918 78.214 48.4493 78.5741C48.547 78.7972 48.6602 79.0147 48.7372 79.2457C48.7757 79.3612 48.7949 79.6676 48.8811 79.5816C48.9489 79.5137 48.8917 79.3891 48.8811 79.2937C48.7598 78.2016 48.6397 77.35 48.8811 76.2233C48.8934 76.1661 49.0104 75.572 49.121 75.5997C49.6389 75.7291 48.2107 79.8698 48.9291 80.1092C49.8626 80.4205 52.5565 75.9907 53.4867 76.2233C53.52 76.2316 52.8507 77.0566 52.815 77.0868C52.5662 77.2974 50.5976 78.9823 51.1838 79.1498C52.2173 79.4451 54.2983 77.0389 55.5975 77.0389" stroke="black" stroke-width="3.01522" stroke-miterlimit="10" stroke-linecap="round" stroke-linejoin="round"/>
</svg>
