<?xml version="1.0" encoding="UTF-8" standalone="no"?>
<!DOCTYPE svg PUBLIC "-//W3C//DTD SVG 1.1//EN" "http://www.w3.org/Graphics/SVG/1.1/DTD/svg11.dtd">
<!-- Created with Vectornator (http://vectornator.io/) -->
<svg height="100%" stroke-miterlimit="10" style="fill-rule:nonzero;clip-rule:evenodd;stroke-linecap:round;stroke-linejoin:round;" version="1.1" viewBox="0 0 164 164" width="100%" xml:space="preserve" xmlns="http://www.w3.org/2000/svg" xmlns:vectornator="http://vectornator.io" xmlns:xlink="http://www.w3.org/1999/xlink">
<defs/>
<g id="Слой-1" vectornator:layerName="Слой 1">
<g opacity="1">
<path d="M30.2399 72.8922C45.0407 73.5744 56.5434 86.3301 55.9319 101.383C55.3205 116.436 42.8264 128.085 28.0257 127.403C13.2249 126.721 1.72217 113.965 2.33361 98.9124C2.94505 83.8597 15.4391 72.21 30.2399 72.8922Z" fill="none" opacity="1" stroke="#000000" stroke-linecap="butt" stroke-linejoin="round" stroke-width="3.01522"/>
<path d="M86.2239 85.8204C103.464 86.5912 116.834 101.648 116.088 119.451C115.341 137.253 100.76 151.06 83.5207 150.289C66.2809 149.519 52.9105 134.462 53.657 116.659C54.4035 98.8565 68.9842 85.0495 86.2239 85.8204Z" fill="none" opacity="1" stroke="#000000" stroke-linecap="butt" stroke-linejoin="round" stroke-width="3.01522"/>
<path d="M68.8284 35.9746C82.7644 36.5978 93.5726 48.7692 92.9692 63.1603C92.3658 77.5514 80.5792 88.7125 66.6432 88.0894C52.7072 87.4663 41.899 75.2948 42.5024 60.9037C43.1058 46.5126 54.8924 35.3515 68.8284 35.9746Z" fill="none" opacity="1" stroke="#000000" stroke-linecap="butt" stroke-linejoin="round" stroke-width="3.01522"/>
<path d="M111.692 98.5112L142.864 77.9298" fill="none" opacity="1" stroke="#000000" stroke-linecap="butt" stroke-linejoin="round" stroke-width="3.01522"/>
<path d="M113.129 99.1685L161.69 129.674" fill="none" opacity="1" stroke="#000000" stroke-linecap="butt" stroke-linejoin="round" stroke-width="3.01522"/>
<path d="M104.774 13.6797L92.3797 51.3323L104.774 13.6797Z" fill="none" opacity="1" stroke="#000000" stroke-linecap="butt" stroke-linejoin="round" stroke-width="3.01522"/>
<path d="M105.043 13.701C105.043 13.701 64.3348 24.8504 92.8663 51.3331" fill="none" opacity="1" stroke="#000000" stroke-linecap="butt" stroke-linejoin="round" stroke-width="3.01522"/>
<path d="M113.4 97.5558C113.4 97.5558 119.538 151.655 160.03 129.637" fill="none" opacity="1" stroke="#000000" stroke-linecap="butt" stroke-linejoin="round" stroke-width="3.01522"/>
<path d="M110.849 98.8724C110.849 98.8724 109.914 66.0442 141.399 78.0901" fill="none" opacity="1" stroke="#000000" stroke-linecap="butt" stroke-linejoin="round" stroke-width="3.01522"/>
<path d="M111.949 98.1908C111.949 98.1908 137.519 109.465 142.113 79.1307" fill="none" opacity="1" stroke="#000000" stroke-linecap="butt" stroke-linejoin="round" stroke-width="3.01522"/>
<path d="M120.217 102.782C120.217 102.782 159.958 95.7669 160.899 128.253" fill="none" opacity="1" stroke="#000000" stroke-linecap="butt" stroke-linejoin="round" stroke-width="3.01522"/>
<path d="M104.763 13.9732C104.763 13.9732 125.652 48.5929 92.3555 51.3207" fill="none" opacity="1" stroke="#000000" stroke-linecap="butt" stroke-linejoin="round" stroke-width="3.01522"/>
<path d="M93.7133 61.8824C93.7133 61.8824 115.516 76.132 126.693 49.3427" fill="none" opacity="1" stroke="#000000" stroke-linecap="butt" stroke-linejoin="round" stroke-width="3.01522"/>
<path d="M105.886 46.9318" fill="none" opacity="1" stroke="#000000" stroke-linecap="butt" stroke-linejoin="round" stroke-width="3.01522"/>
<path d="M106.63 46.753C106.63 46.753 123.992 46.2838 126.819 50.8905" fill="none" opacity="1" stroke="#000000" stroke-linecap="butt" stroke-linejoin="round" stroke-width="3.01522"/>
<path d="M92.7983 53.4482C92.7983 53.4482 117.415 60.699 125.174 51.1215" fill="none" opacity="1" stroke="#000000" stroke-linecap="butt" stroke-linejoin="round" stroke-width="3.01522"/>
</g>
<path d="M62.5513 68.0129C61.0711 71.9515 59.8124 75.9707 58.3321 79.9095" fill="none" opacity="1" stroke="#000000" stroke-linecap="round" stroke-linejoin="round" stroke-width="3.01522"/>
<path d="M76.4255 112.974C74.9453 116.912 73.6866 120.931 72.2063 124.87" fill="none" opacity="1" stroke="#000000" stroke-linecap="round" stroke-linejoin="round" stroke-width="3.01522"/>
<path d="M25.5187 79.3835C24.0385 83.3221 22.7798 87.3412 21.2996 91.2801" fill="none" opacity="1" stroke="#000000" stroke-linecap="round" stroke-linejoin="round" stroke-width="3.01522"/>
<path d="M54.1961 71.7577C58.4476 72.9998 62.3489 74.6986 66.4186 76.3448" fill="none" opacity="1" stroke="#000000" stroke-linecap="round" stroke-linejoin="round" stroke-width="3.01522"/>
<path d="M68.0703 116.718C72.3218 117.96 76.2231 119.659 80.2928 121.305" fill="none" opacity="1" stroke="#000000" stroke-linecap="round" stroke-linejoin="round" stroke-width="3.01522"/>
<path d="M17.1635 83.1283C21.415 84.3704 25.3163 86.0692 29.386 87.7153" fill="none" opacity="1" stroke="#000000" stroke-linecap="round" stroke-linejoin="round" stroke-width="3.01522"/>
<path d="M59.7334 96.5398C58.6346 96.9793 59.4775 95.2802 59.5648 95.0786C60.092 93.8621 61.3337 92.8249 62.3186 91.9877C62.7725 91.6019 63.2334 91.203 63.7236 90.8637C63.9671 90.6951 64.7191 90.4904 64.4541 90.3579C63.9863 90.124 62.8743 91.1288 62.5434 91.3695C60.604 92.78 59.28 95.3827 58.8905 97.72C58.8041 98.2383 59.1049 99.9679 58.1037 99.9679C57.9067 99.9679 57.9913 99.6228 57.9913 99.5183C57.9913 97.9034 58.397 96.3431 58.4971 94.7414C58.5937 93.1954 58.4396 91.3954 57.6541 90.0207C57.2089 89.2417 56.2499 88.5887 55.6871 87.8852C55.2347 87.3196 55.1024 86.7719 54.7879 86.143C54.7406 86.0482 54.6579 85.8708 54.5631 85.9182C54.4283 85.9856 54.7535 86.5324 54.7879 86.5926C55.3153 87.5155 56.0196 87.7435 57.0359 87.9976C58.7296 88.421 60.3445 88.2608 62.0376 88.5596C63.6154 88.838 64.5663 89.5676 66.3087 89.4587C67.1405 89.4067 68.2031 89.5758 69.0063 89.3463C69.0805 89.3251 69.2311 89.3674 69.2311 89.2901C69.2311 89.29 68.494 89.3418 68.4443 89.3463C68.0471 89.3824 67.6634 89.3804 67.2641 89.4025C65.3865 89.5068 63.5477 89.909 61.7004 90.0769C61.2283 90.1198 59.8223 90.0172 59.7334 90.6389C59.6588 91.1616 59.8822 91.6852 60.0706 92.1563C60.0734 92.1632 60.344 92.7973 60.3516 92.7745C60.4473 92.4875 60.1585 91.8017 60.0706 91.5381C58.8998 88.0257 56.2131 91.3939 56.6987 93.3365C56.8951 94.1222 58.2473 94.0242 58.7219 93.6175C59.5672 92.8929 58.6717 91.434 58.2161 90.8075C58.1474 90.7131 57.4871 89.7947 57.2607 89.9645C56.5005 90.5347 57.6804 93.4788 58.3285 92.8307C58.8966 92.2626 56.7355 89.4394 56.3615 89.0653C56.2394 88.9432 56.0902 88.606 55.9681 88.7282C55.7341 88.9621 56.5704 91.6221 56.7549 92.0439C56.8693 92.3053 57.0019 92.56 57.0921 92.8307C57.1372 92.966 57.1598 93.3249 57.2607 93.2241C57.3402 93.1446 57.2731 92.9986 57.2607 92.8869C57.1186 91.6076 56.9779 90.61 57.2607 89.2901C57.2751 89.2231 57.4122 88.5272 57.5417 88.5596C58.1484 88.7112 56.4754 93.5617 57.3169 93.8422C58.4105 94.2068 61.5662 89.0177 62.6558 89.2901C62.6949 89.2999 61.9108 90.2663 61.869 90.3017C61.5775 90.5484 59.2715 92.5221 59.9582 92.7183C61.1689 93.0642 63.6066 90.2455 65.1285 90.2455" fill="none" opacity="1" stroke="#000000" stroke-linecap="round" stroke-linejoin="round" stroke-width="3.01522"/>
</g>
</svg>
