<?xml version="1.0" encoding="UTF-8" standalone="no"?>
<!DOCTYPE svg PUBLIC "-//W3C//DTD SVG 1.1//EN" "http://www.w3.org/Graphics/SVG/1.1/DTD/svg11.dtd">
<!-- Created with Vectornator (http://vectornator.io/) -->
<svg height="100%" stroke-miterlimit="10" style="fill-rule:nonzero;clip-rule:evenodd;stroke-linecap:round;stroke-linejoin:round;" version="1.1" viewBox="0 0 164 164" width="100%" xml:space="preserve" xmlns="http://www.w3.org/2000/svg" xmlns:vectornator="http://vectornator.io" xmlns:xlink="http://www.w3.org/1999/xlink">
<defs/>
<g id="Слой-1" vectornator:layerName="Слой 1">
<path d="M42.0734 100.804C27.7719 103.068 15.4208 100.122 14.4865 94.2219C13.5522 88.3221 24.3885 81.7034 38.69 79.4386C52.9915 77.1738 65.3426 80.1205 66.2769 86.0202C67.2112 91.92 56.3749 98.5387 42.0734 100.804Z" fill="#000000" fill-opacity="0" fill-rule="nonzero" opacity="1" stroke="#000000" stroke-linecap="butt" stroke-linejoin="round" stroke-width="1.9571"/>
<path d="M90.543 38.223C83.5626 25.3264 83.4892 11.8485 90.3792 8.1192C97.2692 4.38989 108.513 11.8214 115.494 24.718C122.474 37.6145 122.548 51.0924 115.658 54.8217C108.768 58.551 97.5235 51.1195 90.543 38.223Z" fill="#000000" fill-opacity="0" fill-rule="nonzero" opacity="1" stroke="#000000" stroke-linecap="butt" stroke-linejoin="round" stroke-width="1.9571"/>
<path d="M147.499 49.8154C156.352 53.7047 161.831 60.7214 159.737 65.4876C157.643 70.2537 148.769 70.9645 139.916 67.0751C131.063 63.1857 125.584 56.1691 127.678 51.4029C129.772 46.6368 138.646 45.926 147.499 49.8154Z" fill="#000000" fill-opacity="0" fill-rule="nonzero" opacity="1" stroke="#000000" stroke-linecap="butt" stroke-linejoin="round" stroke-width="1.9571"/>
<path d="M136.205 117.083C137.614 134.159 131.014 148.641 121.462 149.43C112.669 150.156 104.441 139.026 102.088 123.933C101.885 122.629 101.726 121.296 101.614 119.938C100.204 102.862 100.113 104.64 114.903 108.53C116.216 108.876 117.866 108.111 119.088 108.047C123.773 107.799 127.798 104.997 132.352 102.372C134.272 101.265 135.76 111.697 136.205 117.083Z" fill="#000000" fill-opacity="0" fill-rule="nonzero" opacity="1" stroke="#000000" stroke-linecap="butt" stroke-linejoin="round" stroke-width="1.9571"/>
<path d="M62.007 58.2787C50.8627 54.2166 43.4917 46.3606 45.5434 40.7318C47.595 35.103 58.2925 33.8329 69.4368 37.895C80.5811 41.9571 90.0047 52.0175 84.2235 51.4519C79.771 51.0163 77.9418 50.0286 75.7477 50.6042C72.5335 51.4475 68.2735 53.0692 66.4723 55.2065C65.4778 56.3866 64.0352 57.3175 63.2407 57.8986C62.764 58.2473 63.4458 58.8031 62.007 58.2787Z" fill="#000000" fill-opacity="0" fill-rule="nonzero" opacity="1" stroke="#000000" stroke-linecap="butt" stroke-linejoin="round" stroke-width="1.9571"/>
<path d="M69.4449 64.011C69.4531 63.9954 69.4612 63.9798 69.4694 63.9642" fill="none" opacity="1" stroke="#000000" stroke-linecap="round" stroke-linejoin="round" stroke-width="2.46457"/>
<path d="M61.5953 61.523C65.4415 52.3595 75.9878 48.049 85.1513 51.8951C94.3148 55.7413 98.6253 66.2877 94.7792 75.4512C90.933 84.6146 80.3866 88.9252 71.2231 85.079C62.0597 81.2328 57.7491 70.6864 61.5953 61.523Z" fill="#000000" fill-opacity="0" fill-rule="nonzero" opacity="1" stroke="#000000" stroke-linecap="butt" stroke-linejoin="round" stroke-width="2.46457"/>
<path d="M23.8455 119.581C27.6917 110.418 38.2381 106.107 47.4016 109.953C56.565 113.799 60.8756 124.346 57.0294 133.509C53.1832 142.673 42.6369 146.983 33.4734 143.137C24.3099 139.291 19.9994 128.745 23.8455 119.581Z" fill="#000000" fill-opacity="0" fill-rule="nonzero" opacity="1" stroke="#000000" stroke-linecap="butt" stroke-linejoin="round" stroke-width="2.46457"/>
<path d="M96.1422 78.4558C100.778 67.411 113.49 62.2154 124.535 66.8513C135.579 71.4871 140.775 84.1988 136.139 95.2436C131.503 106.288 118.792 111.484 107.747 106.848C96.7019 102.212 91.5064 89.5007 96.1422 78.4558Z" fill="#000000" fill-opacity="0" fill-rule="nonzero" opacity="1" stroke="#000000" stroke-linecap="butt" stroke-linejoin="round" stroke-width="2.46457"/>
<path d="M57.5224 101.598C62.231 90.3795 75.1424 85.1023 86.3607 89.811C97.579 94.5196 102.856 107.431 98.1475 118.649C93.4389 129.868 80.5275 135.145 69.3092 130.436C58.0909 125.727 52.8137 112.816 57.5224 101.598Z" fill="#000000" fill-opacity="0" fill-rule="nonzero" opacity="1" stroke="#000000" stroke-linecap="butt" stroke-linejoin="round" stroke-width="2.46457"/>
<path d="M128.329 88.1066C128.277 88.1066 128.224 88.1066 128.172 88.1066" fill="none" opacity="1" stroke="#000000" stroke-linecap="round" stroke-linejoin="round" stroke-width="2.46457"/>
<path d="M82.7552 122.602C82.7128 122.623 82.6704 122.645 82.628 122.666" fill="none" opacity="1" stroke="#000000" stroke-linecap="round" stroke-linejoin="round" stroke-width="2.46457"/>
<path d="M96.973 70.6065L152.964 31.1795" fill="none" opacity="1" stroke="#000000" stroke-linecap="butt" stroke-linejoin="round" stroke-width="3.35614"/>
<path d="M87.9411 87.7141C87.6153 87.8769 88.5475 87.3067 88.8207 87.0659C89.4347 86.5248 90.0012 85.9317 90.5799 85.353C90.8723 85.0607 92.0151 83.8801 92.0151 83.4549C92.0151 83.1584 91.5484 83.8206 91.3207 84.0104C90.9721 84.3009 90.612 84.5626 90.2559 84.8437C89.6488 85.323 88.972 85.6974 88.3115 86.0937C88.0209 86.268 87.1923 86.3634 87.4318 86.603C88.0029 87.174 89.9303 86.0818 90.3485 85.7234C90.4235 85.659 90.6241 85.6266 90.5799 85.5382C90.4623 85.3029 87.805 86.6558 87.7096 86.6956C87.2465 86.8885 86.7601 87.0043 86.2745 87.1122C86.2343 87.1211 85.8072 87.2845 85.8115 87.2974C85.8944 87.5461 86.4644 87.5391 86.6448 87.5752C87.6332 87.7728 88.6173 87.4064 89.6077 87.4826C90.305 87.5362 90.9289 88.0887 91.6447 87.9455C91.9447 87.8855 91.8411 87.0196 92.0151 87.0196C92.1938 87.0196 92.3431 88.9334 92.3855 89.1029C92.4391 89.3173 92.6632 89.9257 92.6632 89.7048C92.6632 89.5025 92.0539 89.0028 91.9225 88.8715C89.5536 86.5025 90.1172 89.0362 91.3207 89.7048C91.6428 89.8837 91.9691 89.9548 92.3392 90.0288" fill="none" opacity="1" stroke="#000000" stroke-linecap="round" stroke-linejoin="round" stroke-width="2.46457"/>
<path d="M69.9437 87.1908C70.1486 87.3501 69.9757 86.6027 69.783 86.4288C69.7353 86.3858 69.7558 88.3996 69.7324 88.6043C69.7088 88.8106 69.6378 88.1996 69.6038 87.9947C69.525 87.5194 69.4912 87.0635 69.467 86.591C69.4584 86.4238 69.5741 86.014 69.4251 86.0904C68.6566 86.4848 68.7425 88.5902 68.7425 88.5902C68.7425 88.5902 68.8923 88.147 68.9187 87.9163C69.0435 86.8257 68.8916 86.3732 69.9437 87.1908Z" fill="none" opacity="1" stroke="#000000" stroke-linecap="round" stroke-linejoin="round" stroke-width="1.9571"/>
<path d="M39.2765 135.367C39.2084 135.401 39.1403 135.435 39.0722 135.47" fill="none" opacity="1" stroke="#000000" stroke-linecap="round" stroke-linejoin="round" stroke-width="1.9571"/>
<path d="M67.5613 86.0496C67.1182 86.0496 66.3365 85.7413 66.3365 85.185C66.3365 84.8018 67.2113 86.461 67.2731 86.7701C67.2872 86.8407 67.2731 86.9862 67.2731 86.9862C67.2731 86.9862 67.2731 86.65 67.2731 86.4819C67.2731 86.0399 67.5296 83.8003 67.129 83.6C67.0393 83.5552 67.3011 84.6646 67.3452 84.7528C67.668 85.3984 67.7054 85.9771 67.7054 86.698C67.7054 87.4883 67.2896 88.117 66.8408 88.7153C66.7451 88.843 66.3915 89.1586 66.6967 89.2197C67.6159 89.4035 68.5174 87.7341 68.642 86.9862C68.7297 86.4602 68.4259 85.4012 68.4259 85.4012C68.4259 85.4012 69.3455 86.184 69.8668 86.4819C70.874 87.0574 71.98 87.553 73.1089 87.7787C73.215 87.8 74.4778 88.0094 74.4778 87.9949C74.4778 87.621 72.2274 87.4788 71.9562 87.4185C71.8723 87.3999 70.0829 87.1166 70.0829 87.2024C70.0829 87.5481 72.4988 87.8556 73.6132 87.9949C75.8148 88.2701 78.3172 87.9991 80.4577 88.4272C81.5892 88.6535 82.8431 88.8594 83.988 88.8594" fill="none" opacity="1" stroke="#000000" stroke-linecap="round" stroke-linejoin="round" stroke-width="1.9571"/>
<path d="M82.1148 87.5626C81.9674 87.5994 81.5429 87.6469 81.6825 87.7067C83.545 88.5049 88.0638 87.5214 89.4635 86.1217C89.6263 85.9589 90.6883 85.1282 90.6883 84.8248C90.6883 84.5741 90.1733 84.8972 89.9679 85.0409C89.3355 85.4836 88.6813 85.8604 88.0226 86.2657C86.9932 86.8992 83.9299 88.7813 82.6191 87.9949C82.3339 87.8238 84.7757 87.229 85.0687 87.2024C86.8601 87.0395 88.4363 86.1685 89.7517 85.0409C89.8388 84.9663 91.2182 84.1089 91.1927 84.0323C91.0961 83.7427 90.0001 84.2804 89.8958 84.3205C88.9657 84.6782 88.1101 85.1435 87.2301 85.6173C86.9889 85.7472 85.8805 86.6031 86.0773 86.5539C86.9569 86.334 88.0509 85.3786 88.7431 84.8248C90.321 83.5625 92.214 82.2121 93.3541 80.502C94.7944 78.3415 95.7253 75.7846 97.2446 73.6575C98.0718 72.4995 99.6957 70.7007 100.271 69.5509C100.337 69.4176 100.259 69.2435 100.126 69.1906C99.1898 68.816 97.6011 71.2117 97.1005 71.7123C97.0156 71.7972 96.8972 72.0133 96.8123 71.9284C96.6812 71.7973 97.3875 70.5264 97.4607 70.3434C97.5206 70.1938 97.563 69.7972 97.6769 69.9111C98.0208 70.2551 96.9208 72.5878 96.8123 72.865C95.6223 75.9062 94.2694 78.9969 93.4261 82.1591C92.9271 84.0303 92.5213 85.6998 92.3454 87.6346C92.2891 88.2543 92.2013 88.8879 92.2013 89.5079C92.2013 89.7764 92.2605 90.5551 92.3454 90.3004C92.6361 89.4284 92.4286 88.0608 92.5616 87.1303C92.7922 85.5159 93.3127 84.0035 93.7863 82.4473C93.8445 82.2561 94.4772 80.5444 94.2907 80.3579C94.185 80.2523 93.3 81.907 93.282 81.9429C92.5485 83.41 92.0766 85.0022 91.3368 86.4819C91.031 87.0935 90.6807 87.9548 89.8958 88.0669C89.6456 88.1027 87.6666 88.074 87.8785 88.4272C88.4992 89.4617 90.8332 90.0559 91.8411 90.6606C92.2787 90.9232 92.4856 91.2603 92.7777 91.6693C92.9261 91.877 93.4625 92.4262 93.282 92.2456C92.2351 91.1988 91.0296 90.5152 90.112 89.2917C90.0041 89.1479 89.0067 88.0899 89.1033 88.2831C89.9676 90.0117 91.9777 90.7738 93.4982 91.7413C94.0988 92.1235 94.2747 92.6179 94.6509 93.1822C94.755 93.3383 95.1438 93.7472 95.0111 93.6145C94.1608 92.7642 93.3653 91.6572 93.1379 90.4445C93.0493 89.9717 92.9938 89.4835 92.9938 89.0035C92.9938 88.8114 92.9331 88.2449 92.9938 88.4272C93.641 90.3687 93.8444 92.2316 95.3714 93.7586" fill="none" opacity="1" stroke="#000000" stroke-linecap="round" stroke-linejoin="round" stroke-width="1.9571"/>
<path d="M97.7523 98.1427C97.3649 99.3052 98.9899 100.258 99.6224 101.307C100.071 102.052 100.448 102.837 100.845 103.609C101.444 104.773 101.061 105.447 101.061 106.63C101.061 106.8 101.133 107.134 101.133 107.134C101.133 107.134 101.126 105.692 101.061 104.976C101.039 104.736 101.23 104.256 100.989 104.256C100.851 104.256 100.845 105.42 100.845 105.551" fill="none" opacity="1" stroke="#000000" stroke-linecap="round" stroke-linejoin="round" stroke-width="1.9571"/>
<path d="M101.421 104.904C101.197 105.351 103.4 105.407 103.578 105.407" fill="none" opacity="1" stroke="#000000" stroke-linecap="round" stroke-linejoin="round" stroke-width="1.9571"/>
<path d="M101.996 104.688C101.996 105.207 101.928 104.881 102.859 105.192" fill="none" opacity="1" stroke="#000000" stroke-linecap="round" stroke-linejoin="round" stroke-width="1.9571"/>
<path d="M89.7723 8.13538L116.73 54.7396" fill="none" opacity="1" stroke="#000000" stroke-linecap="butt" stroke-linejoin="round" stroke-width="1.9571"/>
<path d="M119.111 109.04L120.709 149.568" fill="none" opacity="1" stroke="#000000" stroke-linecap="butt" stroke-linejoin="round" stroke-width="1.9571"/>
<path d="M46.2765 40.2069L70.9995 52.0866" fill="none" opacity="1" stroke="#000000" stroke-linecap="butt" stroke-linejoin="round" stroke-width="1.9571"/>
<path d="M15.1033 94.1431L68.4953 86.8779" fill="none" opacity="1" stroke="#000000" stroke-linecap="butt" stroke-linejoin="round" stroke-width="1.9571"/>
<path d="M127.876 50.7232L159.073 65.0991" fill="none" opacity="1" stroke="#000000" stroke-linecap="butt" stroke-linejoin="round" stroke-width="1.9571"/>
<path d="M67.8584 66.1074C68.7294 65.0002 70.85 62.2622 71.721 61.1549" fill="none" opacity="1" stroke="#000000" stroke-linecap="round" stroke-linejoin="round" stroke-width="2.46457"/>
<path d="M126.315 90.5201C127.186 89.4129 129.307 86.6749 130.178 85.5676" fill="none" opacity="1" stroke="#000000" stroke-linecap="round" stroke-linejoin="round" stroke-width="2.46457"/>
<path d="M67.4458 61.8076C68.5578 62.6725 71.3074 64.7781 72.4194 65.643" fill="none" opacity="1" stroke="#000000" stroke-linecap="round" stroke-linejoin="round" stroke-width="2.46457"/>
<path d="M125.903 86.2202C127.015 87.0851 129.764 89.1907 130.876 90.0557" fill="none" opacity="1" stroke="#000000" stroke-linecap="round" stroke-linejoin="round" stroke-width="2.46457"/>
<g opacity="1">
<path d="M80.3868 125.779C81.2578 124.672 83.3784 121.934 84.2494 120.827" fill="none" opacity="1" stroke="#000000" stroke-linecap="round" stroke-linejoin="round" stroke-width="2.46457"/>
<path d="M79.9742 121.48C81.0862 122.344 83.8358 124.45 84.9478 125.315" fill="none" opacity="1" stroke="#000000" stroke-linecap="round" stroke-linejoin="round" stroke-width="2.46457"/>
</g>
<g opacity="1">
<path d="M36.8926 138.109C37.7636 137.001 39.8842 134.263 40.7552 133.156" fill="none" opacity="1" stroke="#000000" stroke-linecap="round" stroke-linejoin="round" stroke-width="2.46457"/>
<path d="M36.48 133.809C37.592 134.674 40.3415 136.779 41.4536 137.644" fill="none" opacity="1" stroke="#000000" stroke-linecap="round" stroke-linejoin="round" stroke-width="2.46457"/>
</g>
</g>
</svg>
