<svg width="298" height="68" viewBox="0 0 298 68" fill="none" xmlns="http://www.w3.org/2000/svg">
<g filter="url(#filter0_d_84_83)">
<rect x="2" y="0.990234" width="293.847" height="62.9693" rx="7" fill="#EFEFEF"/>
<rect x="3.99951" y="2.98975" width="289.848" height="57.9707" rx="6" fill="#EFEFEF" stroke="black" stroke-width="2"/>
<g filter="url(#filter1_d_84_83)">
<rect x="264.863" y="40.9707" width="23.9875" height="14.9927" fill="#EFEFEF"/>
<rect x="265.113" y="41.2207" width="23.4875" height="14.4927" stroke="black" stroke-width="0.5"/>
</g>
<g filter="url(#filter2_d_84_83)">
<mask id="path-5-inside-1_84_83" fill="white">
<path d="M264.863 45.9683H288.851V50.9658H264.863V45.9683Z"/>
</mask>
<path d="M264.863 45.9683H288.851V50.9658H264.863V45.9683Z" fill="#306D99"/>
<path d="M288.351 45.9683V50.9658H289.351V45.9683H288.351ZM265.363 50.9658V45.9683H264.363V50.9658H265.363Z" fill="black" mask="url(#path-5-inside-1_84_83)"/>
</g>
<g filter="url(#filter3_d_84_83)">
<mask id="path-7-inside-2_84_83" fill="white">
<path d="M264.863 50.9658H288.851V55.9634H264.863V50.9658Z"/>
</mask>
<path d="M264.863 50.9658H288.851V55.9634H264.863V50.9658Z" fill="#CA2D24"/>
<path d="M288.851 55.9634V56.4634H289.351V55.9634H288.851ZM264.863 55.9634H264.363V56.4634H264.863V55.9634ZM288.351 50.9658V55.9634H289.351V50.9658H288.351ZM288.851 55.4634H264.863V56.4634H288.851V55.4634ZM265.363 55.9634V50.9658H264.363V55.9634H265.363Z" fill="black" mask="url(#path-7-inside-2_84_83)"/>
</g>
<g filter="url(#filter4_d_84_83)">
<ellipse cx="285.352" cy="33.4744" rx="3.49818" ry="3.49829" fill="black"/>
</g>
<g filter="url(#filter5_d_84_83)">
<ellipse cx="10.4956" cy="33.4744" rx="3.49818" ry="3.49829" fill="black"/>
</g>
<g filter="url(#filter6_d_84_83)">
<path d="M230.359 41.7607C231.446 41.7607 232.374 41.9235 233.142 42.249C233.91 42.5745 234.496 43.0563 234.9 43.6943C235.31 44.3324 235.515 45.1169 235.515 46.0479C235.515 46.764 235.385 47.3923 235.125 47.9326C234.864 48.473 234.493 48.9287 234.011 49.2998C233.536 49.6644 232.973 49.9476 232.322 50.1494L231.56 50.54H227.058L227.039 48.5186H230.379C230.958 48.5186 231.44 48.4176 231.824 48.2158C232.215 48.014 232.504 47.7373 232.693 47.3857C232.888 47.0342 232.986 46.6338 232.986 46.1846C232.986 45.4554 232.774 44.876 232.351 44.4463C231.935 44.0101 231.27 43.792 230.359 43.792H227.83V55.9795H225.31V41.7607H230.359ZM230.066 49.6025L232.713 49.5928L236.082 55.8525V55.9795H233.386L230.066 49.6025ZM248.347 41.7607V51.2334C248.347 52.3206 248.11 53.2321 247.634 53.9678C247.166 54.6969 246.528 55.2471 245.72 55.6182C244.913 55.9893 244.011 56.1748 243.015 56.1748C241.993 56.1748 241.078 55.9893 240.271 55.6182C239.47 55.2471 238.839 54.6969 238.377 53.9678C237.921 53.2321 237.693 52.3206 237.693 51.2334V41.7607H240.203V51.2334C240.203 51.904 240.317 52.4541 240.545 52.8838C240.772 53.3135 241.098 53.6325 241.521 53.8408C241.944 54.0492 242.442 54.1533 243.015 54.1533C243.601 54.1533 244.103 54.0492 244.519 53.8408C244.936 53.6325 245.258 53.3135 245.486 52.8838C245.714 52.4541 245.828 51.904 245.828 51.2334V41.7607H248.347ZM258.425 52.3076C258.425 51.9235 258.344 51.598 258.181 51.3311C258.025 51.0576 257.729 50.807 257.293 50.5791C256.856 50.3447 256.228 50.1006 255.408 49.8467C254.737 49.6449 254.116 49.4137 253.543 49.1533C252.976 48.8929 252.481 48.5934 252.058 48.2549C251.635 47.9098 251.303 47.5127 251.062 47.0635C250.828 46.6077 250.711 46.0837 250.711 45.4912C250.711 44.7165 250.925 44.0361 251.355 43.4502C251.785 42.8577 252.381 42.3955 253.142 42.0635C253.904 41.7314 254.786 41.5654 255.789 41.5654C256.856 41.5654 257.774 41.7607 258.543 42.1514C259.311 42.5355 259.9 43.0563 260.31 43.7139C260.727 44.3714 260.935 45.1038 260.935 45.9111H258.416C258.416 45.4619 258.318 45.0615 258.123 44.71C257.934 44.3519 257.644 44.0752 257.254 43.8799C256.863 43.6781 256.365 43.5771 255.759 43.5771C255.193 43.5771 254.721 43.6618 254.343 43.8311C253.966 44.0003 253.686 44.2282 253.504 44.5146C253.321 44.8011 253.23 45.1266 253.23 45.4912C253.23 45.8363 253.341 46.1423 253.562 46.4092C253.784 46.6761 254.119 46.9202 254.568 47.1416C255.017 47.3564 255.577 47.5648 256.248 47.7666C257.302 48.0726 258.178 48.4307 258.875 48.8408C259.571 49.251 260.089 49.736 260.427 50.2959C260.772 50.8558 260.945 51.5199 260.945 52.2881C260.945 53.0889 260.737 53.7822 260.32 54.3682C259.903 54.9476 259.314 55.3936 258.552 55.7061C257.791 56.0186 256.895 56.1748 255.867 56.1748C255.183 56.1748 254.509 56.0837 253.845 55.9014C253.181 55.7126 252.579 55.4326 252.039 55.0615C251.505 54.6839 251.075 54.2119 250.75 53.6455C250.431 53.0791 250.271 52.4118 250.271 51.6436H252.791C252.791 52.0993 252.869 52.4867 253.025 52.8057C253.181 53.1247 253.399 53.3883 253.679 53.5967C253.959 53.7985 254.285 53.945 254.656 54.0361C255.034 54.1273 255.437 54.1729 255.867 54.1729C256.433 54.1729 256.905 54.0947 257.283 53.9385C257.66 53.7757 257.944 53.5544 258.132 53.2744C258.328 52.9945 258.425 52.6722 258.425 52.3076Z" fill="black"/>
</g>
<g filter="url(#filter7_d_84_83)">
<line x1="207.393" y1="1.98975" x2="207.393" y2="59.9614" stroke="black"/>
</g>
<g filter="url(#filter8_d_84_83)">
<path d="M25.9718 18.6831C27.9832 18.6831 29.6995 18.9842 31.1207 19.5864C32.542 20.1886 33.6259 21.0799 34.3727 22.2603C35.1315 23.4406 35.5109 24.8919 35.5109 26.6143C35.5109 27.9391 35.27 29.1014 34.7882 30.1011C34.3064 31.1007 33.6199 31.9438 32.7286 32.6304C31.8494 33.3049 30.8076 33.8288 29.6031 34.2021L28.194 34.9248H19.8654L19.8292 31.1851H26.0079C27.0799 31.1851 27.9712 30.9984 28.6818 30.625C29.4044 30.2516 29.9404 29.7397 30.2897 29.0894C30.651 28.439 30.8317 27.6982 30.8317 26.8672C30.8317 25.5182 30.4402 24.4463 29.6573 23.6514C28.8865 22.8444 27.658 22.4409 25.9718 22.4409H21.2926V44.9878H16.6315V18.6831H25.9718ZM25.4298 33.1904L30.3258 33.1724L36.5587 44.7529V44.9878H31.5724L25.4298 33.1904ZM59.2501 18.6831V36.2075C59.2501 38.2189 58.8105 39.9051 57.9313 41.2661C57.0641 42.6151 55.8837 43.6328 54.3903 44.3193C52.8968 45.0059 51.2286 45.3491 49.3859 45.3491C47.4949 45.3491 45.8027 45.0059 44.3092 44.3193C42.8278 43.6328 41.6595 42.6151 40.8043 41.2661C39.9612 39.9051 39.5397 38.2189 39.5397 36.2075V18.6831H44.1827V36.2075C44.1827 37.4481 44.3935 38.4658 44.8151 39.2607C45.2366 40.0557 45.8388 40.6458 46.6217 41.0312C47.4046 41.4167 48.326 41.6094 49.3859 41.6094C50.4698 41.6094 51.3973 41.4167 52.1681 41.0312C52.9389 40.6458 53.5351 40.0557 53.9567 39.2607C54.3782 38.4658 54.589 37.4481 54.589 36.2075V18.6831H59.2501ZM77.8947 38.1948C77.8947 37.4842 77.7441 36.882 77.443 36.3882C77.1539 35.8823 76.6059 35.4186 75.799 34.9971C74.992 34.5635 73.8297 34.1118 72.3121 33.6421C71.0716 33.2687 69.9213 32.8411 68.8615 32.3594C67.8136 31.8776 66.8982 31.3236 66.1154 30.6973C65.3325 30.0589 64.7182 29.3242 64.2726 28.4932C63.839 27.6501 63.6222 26.6805 63.6222 25.5845C63.6222 24.1512 64.0197 22.8926 64.8146 21.8086C65.6095 20.7126 66.7115 19.8574 68.1207 19.2432C69.5299 18.6289 71.1619 18.3218 73.0167 18.3218C74.992 18.3218 76.6902 18.6831 78.1115 19.4058C79.5327 20.1164 80.6227 21.0799 81.3815 22.2964C82.1523 23.5129 82.5377 24.8678 82.5377 26.3613H77.8766C77.8766 25.5303 77.6959 24.7896 77.3346 24.1392C76.9853 23.4767 76.4493 22.9648 75.7267 22.6035C75.004 22.2301 74.0826 22.0435 72.9625 22.0435C71.9147 22.0435 71.0415 22.2 70.3429 22.5132C69.6443 22.8263 69.1264 23.2479 68.7892 23.7778C68.4519 24.3078 68.2833 24.91 68.2833 25.5845C68.2833 26.2228 68.4881 26.7889 68.8976 27.2827C69.3071 27.7765 69.9274 28.2282 70.7584 28.6377C71.5895 29.0352 72.6253 29.4206 73.8658 29.7939C75.817 30.36 77.437 31.0225 78.7257 31.7812C80.0144 32.54 80.972 33.4373 81.5983 34.4731C82.2366 35.509 82.5558 36.7375 82.5558 38.1587C82.5558 39.6401 82.1704 40.9229 81.3995 42.0068C80.6287 43.0788 79.5387 43.9038 78.1295 44.4819C76.7203 45.0601 75.0642 45.3491 73.1613 45.3491C71.8966 45.3491 70.65 45.1805 69.4215 44.8433C68.193 44.494 67.0789 43.9761 66.0792 43.2896C65.0916 42.591 64.2967 41.7178 63.6945 40.6699C63.1043 39.6221 62.8092 38.3875 62.8092 36.9663H67.4703C67.4703 37.8094 67.6149 38.526 67.9039 39.1162C68.193 39.7064 68.5965 40.1942 69.1144 40.5796C69.6323 40.953 70.2345 41.224 70.921 41.3926C71.6196 41.5612 72.3663 41.6455 73.1613 41.6455C74.2091 41.6455 75.0823 41.501 75.7809 41.2119C76.4795 40.9108 77.0034 40.5013 77.3527 39.9834C77.714 39.4655 77.8947 38.8693 77.8947 38.1948ZM86.3859 31.0947C86.3859 29.9505 86.7472 29.0111 87.4698 28.2764C88.1925 27.5417 89.1741 27.1743 90.4147 27.1743C91.6793 27.1743 92.673 27.5417 93.3956 28.2764C94.1183 29.0111 94.4796 29.9505 94.4796 31.0947V31.7993C94.4796 32.9435 94.1183 33.877 93.3956 34.5996C92.673 35.3223 91.6853 35.6836 90.4327 35.6836C89.1922 35.6836 88.2045 35.3223 87.4698 34.5996C86.7472 33.877 86.3859 32.9435 86.3859 31.7993V31.0947ZM105.572 18.6831L113.052 38.7368L120.531 18.6831H124.687L114.696 44.9878H111.408L101.435 18.6831H105.572ZM103.477 18.6831L104.163 36.5508V44.9878H99.5201V18.6831H103.477ZM126.602 18.6831V44.9878H121.941V36.5508L122.645 18.6831H126.602ZM152.961 32.522C152.961 35.1838 152.503 37.4722 151.588 39.3872C150.672 41.3022 149.395 42.7777 147.757 43.8135C146.131 44.8372 144.222 45.3491 142.03 45.3491C139.887 45.3491 137.984 44.8372 136.321 43.8135C134.671 42.7777 133.377 41.3022 132.437 39.3872C131.51 37.4722 131.046 35.1838 131.046 32.522V31.167C131.046 28.5052 131.51 26.2168 132.437 24.3018C133.365 22.3747 134.653 20.8993 136.303 19.8755C137.953 18.8397 139.85 18.3218 141.994 18.3218C144.186 18.3218 146.101 18.8397 147.739 19.8755C149.377 20.8993 150.654 22.3747 151.569 24.3018C152.497 26.2168 152.961 28.5052 152.961 31.167V32.522ZM148.281 31.1309C148.281 29.1917 148.034 27.5597 147.541 26.2349C147.047 24.8979 146.33 23.8923 145.391 23.2178C144.451 22.5312 143.319 22.188 141.994 22.188C140.693 22.188 139.573 22.5312 138.634 23.2178C137.707 23.8923 136.99 24.8979 136.484 26.2349C135.99 27.5597 135.743 29.1917 135.743 31.1309V32.522C135.743 34.4611 135.996 36.0991 136.502 37.436C137.008 38.7729 137.731 39.7847 138.67 40.4712C139.609 41.1577 140.73 41.501 142.03 41.501C143.367 41.501 144.499 41.1577 145.427 40.4712C146.366 39.7847 147.077 38.7729 147.559 37.436C148.04 36.0991 148.281 34.4611 148.281 32.522V31.1309ZM166.781 18.6831C168.793 18.6831 170.509 18.9842 171.93 19.5864C173.352 20.1886 174.436 21.0799 175.182 22.2603C175.941 23.4406 176.32 24.8919 176.32 26.6143C176.32 27.9391 176.08 29.1014 175.598 30.1011C175.116 31.1007 174.429 31.9438 173.538 32.6304C172.659 33.3049 171.617 33.8288 170.413 34.2021L169.004 34.9248H160.675L160.639 31.1851H166.818C167.889 31.1851 168.781 30.9984 169.491 30.625C170.214 30.2516 170.75 29.7397 171.099 29.0894C171.461 28.439 171.641 27.6982 171.641 26.8672C171.641 25.5182 171.25 24.4463 170.467 23.6514C169.696 22.8444 168.468 22.4409 166.781 22.4409H162.102V44.9878H157.441V18.6831H166.781ZM166.239 33.1904L171.135 33.1724L177.368 44.7529V44.9878H172.382L166.239 33.1904ZM194.495 38.1948C194.495 37.4842 194.345 36.882 194.044 36.3882C193.755 35.8823 193.207 35.4186 192.4 34.9971C191.593 34.5635 190.43 34.1118 188.913 33.6421C187.672 33.2687 186.522 32.8411 185.462 32.3594C184.414 31.8776 183.499 31.3236 182.716 30.6973C181.933 30.0589 181.319 29.3242 180.873 28.4932C180.44 27.6501 180.223 26.6805 180.223 25.5845C180.223 24.1512 180.62 22.8926 181.415 21.8086C182.21 20.7126 183.312 19.8574 184.721 19.2432C186.13 18.6289 187.762 18.3218 189.617 18.3218C191.593 18.3218 193.291 18.6831 194.712 19.4058C196.133 20.1164 197.223 21.0799 197.982 22.2964C198.753 23.5129 199.138 24.8678 199.138 26.3613H194.477C194.477 25.5303 194.297 24.7896 193.935 24.1392C193.586 23.4767 193.05 22.9648 192.327 22.6035C191.605 22.2301 190.683 22.0435 189.563 22.0435C188.515 22.0435 187.642 22.2 186.943 22.5132C186.245 22.8263 185.727 23.2479 185.39 23.7778C185.053 24.3078 184.884 24.91 184.884 25.5845C184.884 26.2228 185.089 26.7889 185.498 27.2827C185.908 27.7765 186.528 28.2282 187.359 28.6377C188.19 29.0352 189.226 29.4206 190.466 29.7939C192.418 30.36 194.038 31.0225 195.326 31.7812C196.615 32.54 197.573 33.4373 198.199 34.4731C198.837 35.509 199.156 36.7375 199.156 38.1587C199.156 39.6401 198.771 40.9229 198 42.0068C197.229 43.0788 196.139 43.9038 194.73 44.4819C193.321 45.0601 191.665 45.3491 189.762 45.3491C188.497 45.3491 187.251 45.1805 186.022 44.8433C184.794 44.494 183.679 43.9761 182.68 43.2896C181.692 42.591 180.897 41.7178 180.295 40.6699C179.705 39.6221 179.41 38.3875 179.41 36.9663H184.071C184.071 37.8094 184.215 38.526 184.505 39.1162C184.794 39.7064 185.197 40.1942 185.715 40.5796C186.233 40.953 186.835 41.224 187.522 41.3926C188.22 41.5612 188.967 41.6455 189.762 41.6455C190.81 41.6455 191.683 41.501 192.381 41.2119C193.08 40.9108 193.604 40.5013 193.953 39.9834C194.315 39.4655 194.495 38.8693 194.495 38.1948Z" fill="black"/>
</g>
<g filter="url(#filter9_d_84_83)">
<path d="M226.488 10.7083H229.208V37.9883H226.488V15.1883L220.008 21.5883L218.488 20.0683L226.488 10.7083ZM244.331 10.1083C246.037 10.1083 247.584 10.5749 248.971 11.5083C250.384 12.4149 251.477 13.6949 252.251 15.3483C253.051 17.0016 253.451 18.8683 253.451 20.9483C253.451 24.8416 252.784 28.1216 251.451 30.7883C250.144 33.4283 248.344 35.4016 246.051 36.7083C243.784 37.9883 241.211 38.6283 238.331 38.6283V36.0683C241.584 36.0683 244.264 35.2149 246.371 33.5083C248.477 31.8016 249.824 29.3749 250.411 26.2283C249.851 27.2149 248.997 27.9749 247.851 28.5083C246.704 29.0416 245.557 29.3083 244.411 29.3083C242.704 29.3083 241.157 28.8949 239.771 28.0683C238.384 27.2416 237.291 26.1083 236.491 24.6683C235.691 23.2016 235.291 21.5483 235.291 19.7083C235.291 17.8683 235.677 16.2283 236.451 14.7883C237.251 13.3216 238.331 12.1749 239.691 11.3483C241.077 10.5216 242.624 10.1083 244.331 10.1083ZM244.411 26.8283C246.357 26.8283 247.891 26.2016 249.011 24.9483C250.157 23.6683 250.731 22.0683 250.731 20.1483C250.731 18.7083 250.451 17.4149 249.891 16.2683C249.331 15.0949 248.571 14.1883 247.611 13.5483C246.651 12.9083 245.584 12.5883 244.411 12.5883C243.211 12.5883 242.117 12.8949 241.131 13.5083C240.171 14.1216 239.411 14.9749 238.851 16.0683C238.291 17.1349 238.011 18.3483 238.011 19.7083C238.011 21.0683 238.291 22.2949 238.851 23.3883C239.411 24.4549 240.171 25.2949 241.131 25.9083C242.117 26.5216 243.211 26.8283 244.411 26.8283ZM266.992 38.6283C265.259 38.6283 263.686 38.2816 262.272 37.5883C260.859 36.8949 259.739 35.9083 258.912 34.6283C258.086 33.3483 257.672 31.8816 257.672 30.2283C257.672 28.3883 258.139 26.8683 259.072 25.6683C260.032 24.4683 261.406 23.6016 263.192 23.0683C260.286 22.0283 258.832 20.0816 258.832 17.2283C258.832 15.7616 259.192 14.4949 259.912 13.4283C260.659 12.3616 261.646 11.5483 262.872 10.9883C264.126 10.4016 265.486 10.1083 266.952 10.1083C268.446 10.1083 269.806 10.4016 271.032 10.9883C272.286 11.5483 273.272 12.3749 273.992 13.4683C274.712 14.5349 275.072 15.7883 275.072 17.2283C275.072 20.0816 273.632 22.0283 270.752 23.0683C272.566 23.6816 273.926 24.5749 274.832 25.7483C275.766 26.8949 276.232 28.3883 276.232 30.2283C276.232 31.8549 275.832 33.3083 275.032 34.5883C274.232 35.8683 273.126 36.8683 271.712 37.5883C270.299 38.2816 268.726 38.6283 266.992 38.6283ZM266.992 21.7483C268.619 21.7483 269.872 21.3749 270.752 20.6283C271.659 19.8816 272.112 18.7616 272.112 17.2683C272.112 15.7483 271.646 14.6283 270.712 13.9083C269.806 13.1616 268.552 12.7883 266.952 12.7883C265.352 12.7883 264.086 13.1616 263.152 13.9083C262.219 14.6549 261.752 15.7616 261.752 17.2283C261.752 18.7483 262.232 19.8816 263.192 20.6283C264.152 21.3749 265.419 21.7483 266.992 21.7483ZM266.912 35.9483C268.912 35.9483 270.472 35.4549 271.592 34.4683C272.739 33.4549 273.312 32.0283 273.312 30.1883C273.312 28.3216 272.752 26.8949 271.632 25.9083C270.512 24.9216 268.952 24.4283 266.952 24.4283C264.979 24.4283 263.419 24.9216 262.272 25.9083C261.126 26.8949 260.552 28.3083 260.552 30.1483C260.552 32.0149 261.112 33.4549 262.232 34.4683C263.379 35.4549 264.939 35.9483 266.912 35.9483Z" fill="black"/>
<path d="M226.488 10.7083V9.70828H226.027L225.728 10.0586L226.488 10.7083ZM229.208 10.7083H230.208V9.70828H229.208V10.7083ZM229.208 37.9883V38.9883H230.208V37.9883H229.208ZM226.488 37.9883H225.488V38.9883H226.488V37.9883ZM226.488 15.1883H227.488V12.7951L225.785 14.4768L226.488 15.1883ZM220.008 21.5883L219.301 22.2954L220.004 22.9981L220.711 22.2998L220.008 21.5883ZM218.488 20.0683L217.728 19.4186L217.127 20.1215L217.781 20.7754L218.488 20.0683ZM226.488 11.7083H229.208V9.70828H226.488V11.7083ZM228.208 10.7083V37.9883H230.208V10.7083H228.208ZM229.208 36.9883H226.488V38.9883H229.208V36.9883ZM227.488 37.9883V15.1883H225.488V37.9883H227.488ZM225.785 14.4768L219.305 20.8768L220.711 22.2998L227.191 15.8998L225.785 14.4768ZM220.715 20.8812L219.195 19.3612L217.781 20.7754L219.301 22.2954L220.715 20.8812ZM219.248 20.718L227.248 11.358L225.728 10.0586L217.728 19.4186L219.248 20.718ZM248.971 11.5083L248.412 12.3379L248.421 12.344L248.431 12.35L248.971 11.5083ZM252.251 15.3483L251.345 15.772L251.35 15.7838L252.251 15.3483ZM251.451 30.7883L250.556 30.3411L250.554 30.3447L251.451 30.7883ZM246.051 36.7083L246.542 37.579L246.546 37.5771L246.051 36.7083ZM238.331 38.6283H237.331V39.6283H238.331V38.6283ZM238.331 36.0683V35.0683H237.331V36.0683H238.331ZM246.371 33.5083L247 34.2853L246.371 33.5083ZM250.411 26.2283L251.394 26.4116L249.541 25.7347L250.411 26.2283ZM247.851 28.5083L247.429 27.6016L247.851 28.5083ZM239.771 28.0683L239.258 28.9272L239.771 28.0683ZM236.491 24.6683L235.613 25.1471L235.616 25.1539L236.491 24.6683ZM236.451 14.7883L235.573 14.3094L235.57 14.3152L236.451 14.7883ZM239.691 11.3483L239.178 10.4893L239.171 10.4938L239.691 11.3483ZM249.011 24.9483L248.266 24.281L248.265 24.2819L249.011 24.9483ZM249.891 16.2683L248.988 16.699L248.992 16.7071L249.891 16.2683ZM247.611 13.5483L247.056 14.3803L247.056 14.3803L247.611 13.5483ZM241.131 13.5083L240.603 12.6589L240.592 12.6656L241.131 13.5083ZM238.851 16.0683L239.736 16.5331L239.741 16.5242L238.851 16.0683ZM238.851 23.3883L237.96 23.8442L237.965 23.8531L238.851 23.3883ZM241.131 25.9083L240.592 26.751L240.603 26.7576L241.131 25.9083ZM244.331 11.1083C245.843 11.1083 247.194 11.5181 248.412 12.3379L249.529 10.6787C247.974 9.63182 246.232 9.10828 244.331 9.10828V11.1083ZM248.431 12.35C249.671 13.1458 250.644 14.2743 251.345 15.772L253.156 14.9246C252.31 13.1156 251.097 11.6841 249.511 10.6666L248.431 12.35ZM251.35 15.7838C252.076 17.2844 252.451 18.9991 252.451 20.9483H254.451C254.451 18.7375 254.025 16.7188 253.151 14.9127L251.35 15.7838ZM252.451 20.9483C252.451 24.7321 251.802 27.8491 250.556 30.3411L252.345 31.2355C253.766 28.3942 254.451 24.9511 254.451 20.9483H252.451ZM250.554 30.3447C249.325 32.8276 247.656 34.6426 245.556 35.8394L246.546 37.5771C249.032 36.1606 250.962 34.0289 252.347 31.2319L250.554 30.3447ZM245.559 35.8375C243.458 37.024 241.057 37.6283 238.331 37.6283V39.6283C241.364 39.6283 244.11 38.9525 246.542 37.579L245.559 35.8375ZM239.331 38.6283V36.0683H237.331V38.6283H239.331ZM238.331 37.0683C241.765 37.0683 244.682 36.1636 247 34.2853L245.741 32.7313C243.846 34.2663 241.402 35.0683 238.331 35.0683V37.0683ZM247 34.2853C249.324 32.4029 250.772 29.7475 251.394 26.4116L249.428 26.045C248.876 29.0024 247.631 31.2003 245.741 32.7313L247 34.2853ZM249.541 25.7347C249.095 26.5198 248.409 27.1455 247.429 27.6016L248.272 29.415C249.585 28.8044 250.606 27.9101 251.28 26.7219L249.541 25.7347ZM247.429 27.6016C246.401 28.0798 245.397 28.3083 244.411 28.3083V30.3083C245.717 30.3083 247.007 30.0034 248.272 29.415L247.429 27.6016ZM244.411 28.3083C242.873 28.3083 241.505 27.9383 240.283 27.2093L239.258 28.9272C240.809 29.8516 242.534 30.3083 244.411 30.3083V28.3083ZM240.283 27.2093C239.051 26.4749 238.081 25.4717 237.365 24.1826L235.616 25.1539C236.5 26.7448 237.717 28.0083 239.258 28.9272L240.283 27.2093ZM237.368 24.1894C236.656 22.8841 236.291 21.3983 236.291 19.7083H234.291C234.291 21.6983 234.725 23.5191 235.613 25.1471L237.368 24.1894ZM236.291 19.7083C236.291 18.0123 236.646 16.5385 237.332 15.2614L235.57 14.3152C234.709 15.9181 234.291 17.7242 234.291 19.7083H236.291ZM237.328 15.2671C238.048 13.9471 239.008 12.9334 240.21 12.2028L239.171 10.4938C237.653 11.4165 236.453 12.6962 235.573 14.3094L237.328 15.2671ZM240.203 12.2072C241.425 11.4782 242.793 11.1083 244.331 11.1083V9.10828C242.454 9.10828 240.729 9.56501 239.178 10.4893L240.203 12.2072ZM244.411 27.8283C246.592 27.8283 248.416 27.1146 249.756 25.6146L248.265 24.2819C247.365 25.2886 246.122 25.8283 244.411 25.8283V27.8283ZM249.755 25.6155C251.086 24.1302 251.731 22.2835 251.731 20.1483H249.731C249.731 21.8531 249.228 23.2063 248.266 24.281L249.755 25.6155ZM251.731 20.1483C251.731 18.5759 251.424 17.1294 250.789 15.8294L248.992 16.7071C249.477 17.7005 249.731 18.8407 249.731 20.1483H251.731ZM250.793 15.8376C250.165 14.5227 249.294 13.4684 248.165 12.7162L247.056 14.3803C247.848 14.9081 248.496 15.6672 248.988 16.699L250.793 15.8376ZM248.165 12.7162C247.038 11.9648 245.778 11.5883 244.411 11.5883V13.5883C245.39 13.5883 246.263 13.8518 247.056 14.3803L248.165 12.7162ZM244.411 11.5883C243.03 11.5883 241.753 11.9438 240.603 12.659L241.658 14.3576C242.481 13.8461 243.391 13.5883 244.411 13.5883V11.5883ZM240.592 12.6656C239.471 13.3818 238.595 14.374 237.961 15.6124L239.741 16.5242C240.226 15.5759 240.87 14.8614 241.669 14.351L240.592 12.6656ZM237.965 15.6034C237.321 16.8311 237.011 18.2075 237.011 19.7083H239.011C239.011 18.4891 239.26 17.4388 239.736 16.5331L237.965 15.6034ZM237.011 19.7083C237.011 21.2096 237.321 22.5951 237.961 23.8442L239.741 22.9324C239.26 21.9948 239.011 20.927 239.011 19.7083H237.011ZM237.965 23.8531C238.601 25.0646 239.477 26.0386 240.592 26.751L241.669 25.0656C240.864 24.5513 240.22 23.8453 239.736 22.9234L237.965 23.8531ZM240.603 26.7576C241.753 27.4728 243.03 27.8283 244.411 27.8283V25.8283C243.391 25.8283 242.481 25.5705 241.658 25.059L240.603 26.7576ZM258.912 34.6283L259.752 34.0858L258.912 34.6283ZM259.072 25.6683L258.291 25.0435L258.283 25.0543L259.072 25.6683ZM263.192 23.0683L263.478 24.0265L266.401 23.1542L263.529 22.1267L263.192 23.0683ZM259.912 13.4283L259.093 12.8548L259.088 12.8618L259.084 12.8688L259.912 13.4283ZM262.872 10.9883L263.288 11.898L263.296 11.894L262.872 10.9883ZM271.032 10.9883L270.601 11.8904L270.613 11.896L270.624 11.9013L271.032 10.9883ZM273.992 13.4683L273.157 14.0183L273.164 14.0278L273.992 13.4683ZM270.752 23.0683L270.413 22.1277L267.723 23.0992L270.432 24.0156L270.752 23.0683ZM274.832 25.7483L274.041 26.3597L274.049 26.3697L274.057 26.3796L274.832 25.7483ZM275.032 34.5883L275.88 35.1183L275.032 34.5883ZM271.712 37.5883L272.153 38.4861L272.16 38.4827L272.166 38.4793L271.712 37.5883ZM270.752 20.6283L270.117 19.8563L270.111 19.861L270.105 19.8658L270.752 20.6283ZM270.712 13.9083L270.077 14.6802L270.089 14.6903L270.102 14.7001L270.712 13.9083ZM263.152 13.9083L262.528 13.1274V13.1274L263.152 13.9083ZM263.192 20.6283L263.806 19.8389L263.192 20.6283ZM271.592 34.4683L272.253 35.2186L272.255 35.2176L271.592 34.4683ZM262.272 25.9083L262.925 26.6663L262.272 25.9083ZM262.232 34.4683L261.562 35.2098L261.571 35.2182L261.58 35.2263L262.232 34.4683ZM266.992 37.6283C265.396 37.6283 263.976 37.31 262.713 36.6905L261.832 38.4861C263.396 39.2532 265.122 39.6283 266.992 39.6283V37.6283ZM262.713 36.6905C261.457 36.0743 260.477 35.208 259.752 34.0858L258.072 35.1708C259.001 36.6085 260.261 37.7156 261.832 38.4861L262.713 36.6905ZM259.752 34.0858C259.039 32.9812 258.672 31.7062 258.672 30.2283H256.672C256.672 32.057 257.132 33.7154 258.072 35.1708L259.752 34.0858ZM258.672 30.2283C258.672 28.5625 259.092 27.2721 259.862 26.2822L258.283 25.0543C257.186 26.4645 256.672 28.2141 256.672 30.2283H258.672ZM259.853 26.293C260.661 25.2832 261.845 24.5142 263.478 24.0265L262.906 22.1101C260.967 22.689 259.404 23.6534 258.292 25.0436L259.853 26.293ZM263.529 22.1267C262.211 21.6551 261.305 21.008 260.724 20.23C260.148 19.4583 259.832 18.4783 259.832 17.2283H257.832C257.832 18.8316 258.244 20.2516 259.121 21.4265C259.994 22.5952 261.267 23.4414 262.856 24.0098L263.529 22.1267ZM259.832 17.2283C259.832 15.9323 260.148 14.8668 260.741 13.9878L259.084 12.8688C258.237 14.1231 257.832 15.591 257.832 17.2283H259.832ZM260.732 14.0017C261.372 13.0865 262.217 12.3867 263.288 11.898L262.457 10.0786C261.074 10.7099 259.946 11.6367 259.093 12.8548L260.732 14.0017ZM263.296 11.894C264.409 11.3731 265.623 11.1083 266.952 11.1083V9.10828C265.348 9.10828 263.842 9.43012 262.448 10.0826L263.296 11.894ZM266.952 11.1083C268.311 11.1083 269.522 11.3743 270.601 11.8904L271.464 10.0861C270.09 9.42894 268.58 9.10828 266.952 9.10828V11.1083ZM270.624 11.9013C271.713 12.3875 272.547 13.0921 273.157 14.0183L274.828 12.9183C273.997 11.6577 272.859 10.7091 271.44 10.0753L270.624 11.9013ZM273.164 14.0278C273.759 14.9099 274.072 15.9631 274.072 17.2283H276.072C276.072 15.6135 275.666 14.16 274.821 12.9088L273.164 14.0278ZM274.072 17.2283C274.072 18.4803 273.76 19.4616 273.188 20.2336C272.613 21.0111 271.716 21.657 270.413 22.1277L271.092 24.0088C272.669 23.4395 273.932 22.5921 274.796 21.423C275.665 20.2483 276.072 18.8296 276.072 17.2283H274.072ZM270.432 24.0156C272.113 24.584 273.286 25.3818 274.041 26.3597L275.624 25.1368C274.566 23.768 273.019 22.7793 271.073 22.121L270.432 24.0156ZM274.057 26.3796C274.812 27.3077 275.232 28.5605 275.232 30.2283H277.232C277.232 28.2161 276.719 26.4822 275.608 25.117L274.057 26.3796ZM275.232 30.2283C275.232 31.6827 274.877 32.9496 274.184 34.0583L275.88 35.1183C276.788 33.667 277.232 32.0272 277.232 30.2283H275.232ZM274.184 34.0583C273.486 35.1764 272.519 36.0552 271.259 36.6972L272.166 38.4793C273.733 37.6813 274.979 36.5601 275.88 35.1183L274.184 34.0583ZM271.272 36.6905C270.009 37.31 268.589 37.6283 266.992 37.6283V39.6283C268.863 39.6283 270.589 39.2532 272.153 38.4861L271.272 36.6905ZM266.992 22.7483C268.76 22.7483 270.277 22.3431 271.399 21.3908L270.105 19.8658C269.468 20.4068 268.478 20.7483 266.992 20.7483V22.7483ZM271.388 21.4002C272.586 20.414 273.112 18.9725 273.112 17.2683H271.112C271.112 18.5508 270.732 19.3493 270.117 19.8563L271.388 21.4002ZM273.112 17.2683C273.112 15.5363 272.57 14.0786 271.323 13.1165L270.102 14.7001C270.721 15.178 271.112 15.9603 271.112 17.2683H273.112ZM271.348 13.1363C270.207 12.1966 268.701 11.7883 266.952 11.7883V13.7883C268.404 13.7883 269.405 14.1267 270.077 14.6802L271.348 13.1363ZM266.952 11.7883C265.202 11.7883 263.69 12.1974 262.528 13.1274L263.777 14.6891C264.481 14.1259 265.503 13.7883 266.952 13.7883V11.7883ZM262.528 13.1274C261.304 14.1068 260.752 15.5339 260.752 17.2283H262.752C262.752 15.9893 263.135 15.2031 263.777 14.6891L262.528 13.1274ZM260.752 17.2283C260.752 18.9719 261.315 20.4348 262.578 21.4176L263.806 19.8389C263.15 19.3284 262.752 18.5246 262.752 17.2283H260.752ZM262.578 21.4176C263.76 22.3364 265.263 22.7483 266.992 22.7483V20.7483C265.576 20.7483 264.545 20.4135 263.806 19.8389L262.578 21.4176ZM266.912 36.9483C269.072 36.9483 270.897 36.4141 272.253 35.2186L270.931 33.7179C270.048 34.4958 268.753 34.9483 266.912 34.9483V36.9483ZM272.255 35.2176C273.659 33.9762 274.312 32.2516 274.312 30.1883H272.312C272.312 31.805 271.819 32.9337 270.93 33.719L272.255 35.2176ZM274.312 30.1883C274.312 28.112 273.681 26.3803 272.293 25.1579L270.971 26.6586C271.824 27.4096 272.312 28.5312 272.312 30.1883H274.312ZM272.293 25.1579C270.937 23.9625 269.112 23.4283 266.952 23.4283V25.4283C268.793 25.4283 270.088 25.8807 270.971 26.6586L272.293 25.1579ZM266.952 23.4283C264.814 23.4283 262.998 23.9651 261.62 25.1503L262.925 26.6663C263.841 25.8782 265.144 25.4283 266.952 25.4283V23.4283ZM261.62 25.1503C260.205 26.3676 259.552 28.0859 259.552 30.1483H261.552C261.552 28.5307 262.046 27.4223 262.925 26.6663L261.62 25.1503ZM259.552 30.1483C259.552 32.2257 260.184 33.9635 261.562 35.2098L262.903 33.7267C262.041 32.9464 261.552 31.8042 261.552 30.1483H259.552ZM261.58 35.2263C262.958 36.4115 264.774 36.9483 266.912 36.9483V34.9483C265.104 34.9483 263.801 34.4984 262.885 33.7103L261.58 35.2263Z" fill="black"/>
</g>
</g>
<defs>
<filter id="filter0_d_84_83" x="0" y="0.990234" width="297.847" height="66.9692" filterUnits="userSpaceOnUse" color-interpolation-filters="sRGB">
<feFlood flood-opacity="0" result="BackgroundImageFix"/>
<feColorMatrix in="SourceAlpha" type="matrix" values="0 0 0 0 0 0 0 0 0 0 0 0 0 0 0 0 0 0 127 0" result="hardAlpha"/>
<feOffset dy="2"/>
<feGaussianBlur stdDeviation="1"/>
<feComposite in2="hardAlpha" operator="out"/>
<feColorMatrix type="matrix" values="0 0 0 0 0 0 0 0 0 0 0 0 0 0 0 0 0 0 0.25 0"/>
<feBlend mode="normal" in2="BackgroundImageFix" result="effect1_dropShadow_84_83"/>
<feBlend mode="normal" in="SourceGraphic" in2="effect1_dropShadow_84_83" result="shape"/>
</filter>
<filter id="filter1_d_84_83" x="263.863" y="39.9707" width="29.9875" height="20.9927" filterUnits="userSpaceOnUse" color-interpolation-filters="sRGB">
<feFlood flood-opacity="0" result="BackgroundImageFix"/>
<feColorMatrix in="SourceAlpha" type="matrix" values="0 0 0 0 0 0 0 0 0 0 0 0 0 0 0 0 0 0 127 0" result="hardAlpha"/>
<feOffset dx="2" dy="2"/>
<feGaussianBlur stdDeviation="1.5"/>
<feComposite in2="hardAlpha" operator="out"/>
<feColorMatrix type="matrix" values="0 0 0 0 0 0 0 0 0 0 0 0 0 0 0 0 0 0 0.25 0"/>
<feBlend mode="normal" in2="BackgroundImageFix" result="effect1_dropShadow_84_83"/>
<feBlend mode="normal" in="SourceGraphic" in2="effect1_dropShadow_84_83" result="shape"/>
</filter>
<filter id="filter2_d_84_83" x="263.863" y="44.9683" width="29.9875" height="10.9976" filterUnits="userSpaceOnUse" color-interpolation-filters="sRGB">
<feFlood flood-opacity="0" result="BackgroundImageFix"/>
<feColorMatrix in="SourceAlpha" type="matrix" values="0 0 0 0 0 0 0 0 0 0 0 0 0 0 0 0 0 0 127 0" result="hardAlpha"/>
<feOffset dx="2" dy="2"/>
<feGaussianBlur stdDeviation="1.5"/>
<feComposite in2="hardAlpha" operator="out"/>
<feColorMatrix type="matrix" values="0 0 0 0 0 0 0 0 0 0 0 0 0 0 0 0 0 0 0.25 0"/>
<feBlend mode="normal" in2="BackgroundImageFix" result="effect1_dropShadow_84_83"/>
<feBlend mode="normal" in="SourceGraphic" in2="effect1_dropShadow_84_83" result="shape"/>
</filter>
<filter id="filter3_d_84_83" x="263.863" y="49.9658" width="29.9875" height="10.9976" filterUnits="userSpaceOnUse" color-interpolation-filters="sRGB">
<feFlood flood-opacity="0" result="BackgroundImageFix"/>
<feColorMatrix in="SourceAlpha" type="matrix" values="0 0 0 0 0 0 0 0 0 0 0 0 0 0 0 0 0 0 127 0" result="hardAlpha"/>
<feOffset dx="2" dy="2"/>
<feGaussianBlur stdDeviation="1.5"/>
<feComposite in2="hardAlpha" operator="out"/>
<feColorMatrix type="matrix" values="0 0 0 0 0 0 0 0 0 0 0 0 0 0 0 0 0 0 0.25 0"/>
<feBlend mode="normal" in2="BackgroundImageFix" result="effect1_dropShadow_84_83"/>
<feBlend mode="normal" in="SourceGraphic" in2="effect1_dropShadow_84_83" result="shape"/>
</filter>
<filter id="filter4_d_84_83" x="280.854" y="28.9761" width="12.9964" height="12.9966" filterUnits="userSpaceOnUse" color-interpolation-filters="sRGB">
<feFlood flood-opacity="0" result="BackgroundImageFix"/>
<feColorMatrix in="SourceAlpha" type="matrix" values="0 0 0 0 0 0 0 0 0 0 0 0 0 0 0 0 0 0 127 0" result="hardAlpha"/>
<feOffset dx="2" dy="2"/>
<feGaussianBlur stdDeviation="1.5"/>
<feComposite in2="hardAlpha" operator="out"/>
<feColorMatrix type="matrix" values="0 0 0 0 0 0 0 0 0 0 0 0 0 0 0 0 0 0 0.25 0"/>
<feBlend mode="normal" in2="BackgroundImageFix" result="effect1_dropShadow_84_83"/>
<feBlend mode="normal" in="SourceGraphic" in2="effect1_dropShadow_84_83" result="shape"/>
</filter>
<filter id="filter5_d_84_83" x="5.99738" y="28.9761" width="12.9963" height="12.9966" filterUnits="userSpaceOnUse" color-interpolation-filters="sRGB">
<feFlood flood-opacity="0" result="BackgroundImageFix"/>
<feColorMatrix in="SourceAlpha" type="matrix" values="0 0 0 0 0 0 0 0 0 0 0 0 0 0 0 0 0 0 127 0" result="hardAlpha"/>
<feOffset dx="2" dy="2"/>
<feGaussianBlur stdDeviation="1.5"/>
<feComposite in2="hardAlpha" operator="out"/>
<feColorMatrix type="matrix" values="0 0 0 0 0 0 0 0 0 0 0 0 0 0 0 0 0 0 0.25 0"/>
<feBlend mode="normal" in2="BackgroundImageFix" result="effect1_dropShadow_84_83"/>
<feBlend mode="normal" in="SourceGraphic" in2="effect1_dropShadow_84_83" result="shape"/>
</filter>
<filter id="filter6_d_84_83" x="224.31" y="40.5654" width="41.6348" height="20.6094" filterUnits="userSpaceOnUse" color-interpolation-filters="sRGB">
<feFlood flood-opacity="0" result="BackgroundImageFix"/>
<feColorMatrix in="SourceAlpha" type="matrix" values="0 0 0 0 0 0 0 0 0 0 0 0 0 0 0 0 0 0 127 0" result="hardAlpha"/>
<feOffset dx="2" dy="2"/>
<feGaussianBlur stdDeviation="1.5"/>
<feComposite in2="hardAlpha" operator="out"/>
<feColorMatrix type="matrix" values="0 0 0 0 0 0 0 0 0 0 0 0 0 0 0 0 0 0 0.25 0"/>
<feBlend mode="normal" in2="BackgroundImageFix" result="effect1_dropShadow_84_83"/>
<feBlend mode="normal" in="SourceGraphic" in2="effect1_dropShadow_84_83" result="shape"/>
</filter>
<filter id="filter7_d_84_83" x="205.893" y="0.989746" width="7" height="63.9717" filterUnits="userSpaceOnUse" color-interpolation-filters="sRGB">
<feFlood flood-opacity="0" result="BackgroundImageFix"/>
<feColorMatrix in="SourceAlpha" type="matrix" values="0 0 0 0 0 0 0 0 0 0 0 0 0 0 0 0 0 0 127 0" result="hardAlpha"/>
<feOffset dx="2" dy="2"/>
<feGaussianBlur stdDeviation="1.5"/>
<feComposite in2="hardAlpha" operator="out"/>
<feColorMatrix type="matrix" values="0 0 0 0 0 0 0 0 0 0 0 0 0 0 0 0 0 0 0.25 0"/>
<feBlend mode="normal" in2="BackgroundImageFix" result="effect1_dropShadow_84_83"/>
<feBlend mode="normal" in="SourceGraphic" in2="effect1_dropShadow_84_83" result="shape"/>
</filter>
<filter id="filter8_d_84_83" x="15.6315" y="17.3218" width="188.525" height="33.0273" filterUnits="userSpaceOnUse" color-interpolation-filters="sRGB">
<feFlood flood-opacity="0" result="BackgroundImageFix"/>
<feColorMatrix in="SourceAlpha" type="matrix" values="0 0 0 0 0 0 0 0 0 0 0 0 0 0 0 0 0 0 127 0" result="hardAlpha"/>
<feOffset dx="2" dy="2"/>
<feGaussianBlur stdDeviation="1.5"/>
<feComposite in2="hardAlpha" operator="out"/>
<feColorMatrix type="matrix" values="0 0 0 0 0 0 0 0 0 0 0 0 0 0 0 0 0 0 0.25 0"/>
<feBlend mode="normal" in2="BackgroundImageFix" result="effect1_dropShadow_84_83"/>
<feBlend mode="normal" in="SourceGraphic" in2="effect1_dropShadow_84_83" result="shape"/>
</filter>
<filter id="filter9_d_84_83" x="217.488" y="9.1084" width="63.7444" height="34.5198" filterUnits="userSpaceOnUse" color-interpolation-filters="sRGB">
<feFlood flood-opacity="0" result="BackgroundImageFix"/>
<feColorMatrix in="SourceAlpha" type="matrix" values="0 0 0 0 0 0 0 0 0 0 0 0 0 0 0 0 0 0 127 0" result="hardAlpha"/>
<feOffset dx="2" dy="2"/>
<feGaussianBlur stdDeviation="1.5"/>
<feComposite in2="hardAlpha" operator="out"/>
<feColorMatrix type="matrix" values="0 0 0 0 0 0 0 0 0 0 0 0 0 0 0 0 0 0 0.25 0"/>
<feBlend mode="normal" in2="BackgroundImageFix" result="effect1_dropShadow_84_83"/>
<feBlend mode="normal" in="SourceGraphic" in2="effect1_dropShadow_84_83" result="shape"/>
</filter>
</defs>
</svg>
