<svg width="111" height="28" viewBox="0 0 111 28" fill="none" xmlns="http://www.w3.org/2000/svg">
<g filter="url(#filter0_d_146_97)">
<rect x="1" y="1" width="107.33" height="23" rx="5" fill="#EFEFEF"/>
<rect x="1.86523" y="1.86499" width="105.6" height="20.9048" rx="4.5" fill="#EFEFEF" stroke="black"/>
<g filter="url(#filter1_d_146_97)">
<rect x="94" y="15" width="8.76162" height="5.47619" fill="#EFEFEF"/>
<rect x="94.25" y="15.25" width="8.26162" height="4.97619" stroke="black" stroke-width="0.5"/>
</g>
<g filter="url(#filter2_d_146_97)">
<mask id="path-5-inside-1_146_97" fill="white">
<path d="M94 16.8252H102.762V18.6506H94V16.8252Z"/>
</mask>
<path d="M94 16.8252H102.762V18.6506H94V16.8252Z" fill="#306D99"/>
<path d="M102.262 16.8252V18.6506H103.262V16.8252H102.262ZM94.5 18.6506V16.8252H93.5V18.6506H94.5Z" fill="black" mask="url(#path-5-inside-1_146_97)"/>
</g>
<g filter="url(#filter3_d_146_97)">
<mask id="path-7-inside-2_146_97" fill="white">
<path d="M94 18.6506H102.762V20.476H94V18.6506Z"/>
</mask>
<path d="M94 18.6506H102.762V20.476H94V18.6506Z" fill="#CA2D24"/>
<path d="M102.762 20.476V20.976H103.262V20.476H102.762ZM94 20.476H93.5V20.976H94V20.476ZM102.262 18.6506V20.476H103.262V18.6506H102.262ZM102.762 19.976H94V20.976H102.762V19.976ZM94.5 20.476V18.6506H93.5V20.476H94.5Z" fill="black" mask="url(#path-7-inside-2_146_97)"/>
</g>
<g filter="url(#filter4_d_146_97)">
<ellipse cx="104.496" cy="12.8652" rx="1.27774" ry="1.27778" fill="black"/>
</g>
<g filter="url(#filter5_d_146_97)">
<ellipse cx="4.10293" cy="12.8652" rx="1.27774" ry="1.27778" fill="black"/>
</g>
<g filter="url(#filter6_d_146_97)">
<path d="M81.9424 15.7344C82.2686 15.7344 82.5469 15.7832 82.7773 15.8809C83.0078 15.9785 83.1836 16.123 83.3047 16.3145C83.4277 16.5059 83.4893 16.7412 83.4893 17.0205C83.4893 17.2354 83.4502 17.4238 83.3721 17.5859C83.2939 17.748 83.1826 17.8848 83.0381 17.9961C82.8955 18.1055 82.7266 18.1904 82.5312 18.251L82.3027 18.3682H80.9521L80.9463 17.7617H81.9482C82.1221 17.7617 82.2666 17.7314 82.3818 17.6709C82.499 17.6104 82.5859 17.5273 82.6426 17.4219C82.7012 17.3164 82.7305 17.1963 82.7305 17.0615C82.7305 16.8428 82.667 16.6689 82.54 16.54C82.415 16.4092 82.2158 16.3438 81.9424 16.3438H81.1836V20H80.4277V15.7344H81.9424ZM81.8545 18.0869L82.6484 18.084L83.6592 19.9619V20H82.8506L81.8545 18.0869ZM87.3389 15.7344V18.5762C87.3389 18.9023 87.2676 19.1758 87.125 19.3965C86.9844 19.6152 86.793 19.7803 86.5508 19.8916C86.3086 20.0029 86.0381 20.0586 85.7393 20.0586C85.4326 20.0586 85.1582 20.0029 84.916 19.8916C84.6758 19.7803 84.4863 19.6152 84.3477 19.3965C84.2109 19.1758 84.1426 18.9023 84.1426 18.5762V15.7344H84.8955V18.5762C84.8955 18.7773 84.9297 18.9424 84.998 19.0713C85.0664 19.2002 85.1641 19.2959 85.291 19.3584C85.418 19.4209 85.5674 19.4521 85.7393 19.4521C85.915 19.4521 86.0654 19.4209 86.1904 19.3584C86.3154 19.2959 86.4121 19.2002 86.4805 19.0713C86.5488 18.9424 86.583 18.7773 86.583 18.5762V15.7344H87.3389ZM90.3623 18.8984C90.3623 18.7832 90.3379 18.6855 90.2891 18.6055C90.2422 18.5234 90.1533 18.4482 90.0225 18.3799C89.8916 18.3096 89.7031 18.2363 89.457 18.1602C89.2559 18.0996 89.0693 18.0303 88.8975 17.9521C88.7275 17.874 88.5791 17.7842 88.4521 17.6826C88.3252 17.5791 88.2256 17.46 88.1533 17.3252C88.083 17.1885 88.0479 17.0312 88.0479 16.8535C88.0479 16.6211 88.1123 16.417 88.2412 16.2412C88.3701 16.0635 88.5488 15.9248 88.7773 15.8252C89.0059 15.7256 89.2705 15.6758 89.5713 15.6758C89.8916 15.6758 90.167 15.7344 90.3975 15.8516C90.6279 15.9668 90.8047 16.123 90.9277 16.3203C91.0527 16.5176 91.1152 16.7373 91.1152 16.9795H90.3594C90.3594 16.8447 90.3301 16.7246 90.2715 16.6191C90.2148 16.5117 90.1279 16.4287 90.0107 16.3701C89.8936 16.3096 89.7441 16.2793 89.5625 16.2793C89.3926 16.2793 89.251 16.3047 89.1377 16.3555C89.0244 16.4062 88.9404 16.4746 88.8857 16.5605C88.8311 16.6465 88.8037 16.7441 88.8037 16.8535C88.8037 16.957 88.8369 17.0488 88.9033 17.1289C88.9697 17.209 89.0703 17.2822 89.2051 17.3486C89.3398 17.4131 89.5078 17.4756 89.709 17.5361C90.0254 17.6279 90.2881 17.7354 90.4971 17.8584C90.7061 17.9814 90.8613 18.127 90.9629 18.2949C91.0664 18.4629 91.1182 18.6621 91.1182 18.8926C91.1182 19.1328 91.0557 19.3408 90.9307 19.5166C90.8057 19.6904 90.6289 19.8242 90.4004 19.918C90.1719 20.0117 89.9033 20.0586 89.5947 20.0586C89.3896 20.0586 89.1875 20.0312 88.9883 19.9766C88.7891 19.9199 88.6084 19.8359 88.4463 19.7246C88.2861 19.6113 88.1572 19.4697 88.0596 19.2998C87.9639 19.1299 87.916 18.9297 87.916 18.6992H88.6719C88.6719 18.8359 88.6953 18.9521 88.7422 19.0479C88.7891 19.1436 88.8545 19.2227 88.9385 19.2852C89.0225 19.3457 89.1201 19.3896 89.2314 19.417C89.3447 19.4443 89.4658 19.458 89.5947 19.458C89.7646 19.458 89.9062 19.4346 90.0195 19.3877C90.1328 19.3389 90.2178 19.2725 90.2744 19.1885C90.333 19.1045 90.3623 19.0078 90.3623 18.8984Z" fill="black"/>
</g>
<g filter="url(#filter7_d_146_97)">
<line x1="76.3389" y1="1.36499" x2="76.3389" y2="22.5396" stroke="black"/>
</g>
<g filter="url(#filter8_d_146_97)">
<path d="M12.2085 7.75781C12.9152 7.75781 13.5182 7.86361 14.0176 8.0752C14.5169 8.28678 14.8978 8.59993 15.1602 9.01465C15.4268 9.42936 15.5601 9.93929 15.5601 10.5444C15.5601 11.0099 15.4754 11.4183 15.3062 11.7695C15.1369 12.1208 14.8957 12.417 14.5825 12.6582C14.2736 12.8952 13.9076 13.0793 13.4844 13.2104L12.9893 13.4644H10.063L10.0503 12.1504H12.2212C12.5978 12.1504 12.911 12.0848 13.1606 11.9536C13.4146 11.8224 13.6029 11.6426 13.7256 11.4141C13.8525 11.1855 13.916 10.9253 13.916 10.6333C13.916 10.1593 13.7785 9.78271 13.5034 9.50342C13.2326 9.21989 12.8009 9.07812 12.2085 9.07812H10.5645V17H8.92676V7.75781H12.2085ZM12.0181 12.855L13.7383 12.8486L15.9282 16.9175V17H14.1763L12.0181 12.855ZM23.9009 7.75781V13.915C23.9009 14.6217 23.7464 15.2142 23.4375 15.6924C23.1328 16.1663 22.7181 16.5239 22.1934 16.7651C21.6686 17.0063 21.0825 17.127 20.4351 17.127C19.7707 17.127 19.1761 17.0063 18.6514 16.7651C18.1309 16.5239 17.7204 16.1663 17.4199 15.6924C17.1237 15.2142 16.9756 14.6217 16.9756 13.915V7.75781H18.6069V13.915C18.6069 14.3509 18.681 14.7085 18.8291 14.9878C18.9772 15.2671 19.1888 15.4744 19.4639 15.6099C19.7389 15.7453 20.0627 15.813 20.4351 15.813C20.8159 15.813 21.1418 15.7453 21.4126 15.6099C21.6834 15.4744 21.8929 15.2671 22.041 14.9878C22.1891 14.7085 22.2632 14.3509 22.2632 13.915V7.75781H23.9009ZM30.4517 14.6133C30.4517 14.3636 30.3988 14.152 30.293 13.9785C30.1914 13.8008 29.9989 13.6379 29.7153 13.4897C29.4318 13.3374 29.0234 13.1787 28.4902 13.0137C28.0544 12.8825 27.6502 12.7323 27.2778 12.563C26.9097 12.3937 26.5881 12.1991 26.313 11.979C26.0379 11.7547 25.8221 11.4966 25.6655 11.2046C25.5132 10.9084 25.437 10.5677 25.437 10.1826C25.437 9.67904 25.5767 9.23682 25.856 8.85596C26.1353 8.47087 26.5225 8.17041 27.0176 7.95459C27.5127 7.73877 28.0861 7.63086 28.7378 7.63086C29.4318 7.63086 30.0285 7.75781 30.5278 8.01172C31.0272 8.26139 31.4102 8.59993 31.6768 9.02734C31.9476 9.45475 32.083 9.93083 32.083 10.4556H30.4453C30.4453 10.1636 30.3818 9.90332 30.2549 9.6748C30.1322 9.44206 29.9438 9.26221 29.6899 9.13525C29.436 9.00407 29.1123 8.93848 28.7188 8.93848C28.3506 8.93848 28.0438 8.99349 27.7983 9.10352C27.5529 9.21354 27.3709 9.36165 27.2524 9.54785C27.134 9.73405 27.0747 9.94564 27.0747 10.1826C27.0747 10.4069 27.1466 10.6058 27.2905 10.7793C27.4344 10.9528 27.6523 11.1115 27.9443 11.2554C28.2363 11.395 28.6003 11.5304 29.0361 11.6616C29.7217 11.8605 30.2909 12.0933 30.7437 12.3599C31.1965 12.6265 31.5329 12.9417 31.7529 13.3057C31.9772 13.6696 32.0894 14.1012 32.0894 14.6006C32.0894 15.1211 31.9539 15.5718 31.6831 15.9526C31.4123 16.3293 31.0293 16.6191 30.5342 16.8223C30.0391 17.0254 29.4572 17.127 28.7886 17.127C28.3442 17.127 27.9062 17.0677 27.4746 16.9492C27.043 16.8265 26.6515 16.6445 26.3003 16.4033C25.9533 16.1579 25.674 15.8511 25.4624 15.4829C25.255 15.1147 25.1514 14.681 25.1514 14.1816H26.7891C26.7891 14.4779 26.8398 14.7297 26.9414 14.937C27.043 15.1444 27.1847 15.3158 27.3667 15.4512C27.5487 15.5824 27.7603 15.6776 28.0015 15.7368C28.2469 15.7961 28.5093 15.8257 28.7886 15.8257C29.1567 15.8257 29.4635 15.7749 29.709 15.6733C29.9544 15.5675 30.1385 15.4237 30.2612 15.2417C30.3882 15.0597 30.4517 14.8503 30.4517 14.6133ZM33.4351 12.1187C33.4351 11.7166 33.562 11.3866 33.8159 11.1284C34.0698 10.8703 34.4147 10.7412 34.8506 10.7412C35.2949 10.7412 35.644 10.8703 35.8979 11.1284C36.1519 11.3866 36.2788 11.7166 36.2788 12.1187V12.3662C36.2788 12.7682 36.1519 13.0962 35.8979 13.3501C35.644 13.604 35.297 13.731 34.8569 13.731C34.4211 13.731 34.0741 13.604 33.8159 13.3501C33.562 13.0962 33.4351 12.7682 33.4351 12.3662V12.1187ZM40.1763 7.75781L42.8042 14.8037L45.4321 7.75781H46.8921L43.3818 17H42.2266L38.7227 7.75781H40.1763ZM39.4399 7.75781L39.6812 14.0356V17H38.0498V7.75781H39.4399ZM47.5649 7.75781V17H45.9272V14.0356L46.1748 7.75781H47.5649ZM56.8262 12.6201C56.8262 13.5553 56.6654 14.3594 56.3438 15.0322C56.0221 15.7051 55.5736 16.2235 54.998 16.5874C54.4268 16.9471 53.756 17.127 52.9858 17.127C52.2326 17.127 51.564 16.9471 50.98 16.5874C50.4002 16.2235 49.9453 15.7051 49.6152 15.0322C49.2894 14.3594 49.1265 13.5553 49.1265 12.6201V12.144C49.1265 11.2088 49.2894 10.4048 49.6152 9.73193C49.9411 9.05485 50.3939 8.53646 50.9736 8.17676C51.5534 7.81283 52.2199 7.63086 52.9731 7.63086C53.7433 7.63086 54.4162 7.81283 54.9917 8.17676C55.5672 8.53646 56.0158 9.05485 56.3374 9.73193C56.6632 10.4048 56.8262 11.2088 56.8262 12.144V12.6201ZM55.1821 12.1313C55.1821 11.45 55.0954 10.8766 54.9219 10.4111C54.7484 9.94141 54.4966 9.58805 54.1665 9.35107C53.8364 9.10986 53.4386 8.98926 52.9731 8.98926C52.5161 8.98926 52.1226 9.10986 51.7925 9.35107C51.4666 9.58805 51.2148 9.94141 51.0371 10.4111C50.8636 10.8766 50.7769 11.45 50.7769 12.1313V12.6201C50.7769 13.3014 50.8657 13.877 51.0435 14.3467C51.2212 14.8164 51.4751 15.1719 51.8052 15.4131C52.1353 15.6543 52.5288 15.7749 52.9858 15.7749C53.4556 15.7749 53.8534 15.6543 54.1792 15.4131C54.5093 15.1719 54.759 14.8164 54.9282 14.3467C55.0975 13.877 55.1821 13.3014 55.1821 12.6201V12.1313ZM61.6821 7.75781C62.3888 7.75781 62.9919 7.86361 63.4912 8.0752C63.9906 8.28678 64.3714 8.59993 64.6338 9.01465C64.9004 9.42936 65.0337 9.93929 65.0337 10.5444C65.0337 11.0099 64.9491 11.4183 64.7798 11.7695C64.6105 12.1208 64.3693 12.417 64.0562 12.6582C63.7472 12.8952 63.3812 13.0793 62.958 13.2104L62.4629 13.4644H59.5366L59.5239 12.1504H61.6948C62.0715 12.1504 62.3846 12.0848 62.6343 11.9536C62.8882 11.8224 63.0765 11.6426 63.1992 11.4141C63.3262 11.1855 63.3896 10.9253 63.3896 10.6333C63.3896 10.1593 63.2521 9.78271 62.9771 9.50342C62.7062 9.21989 62.2746 9.07812 61.6821 9.07812H60.0381V17H58.4004V7.75781H61.6821ZM61.4917 12.855L63.2119 12.8486L65.4019 16.9175V17H63.6499L61.4917 12.855ZM71.4194 14.6133C71.4194 14.3636 71.3665 14.152 71.2607 13.9785C71.1592 13.8008 70.9666 13.6379 70.6831 13.4897C70.3996 13.3374 69.9912 13.1787 69.458 13.0137C69.0221 12.8825 68.618 12.7323 68.2456 12.563C67.8774 12.3937 67.5558 12.1991 67.2808 11.979C67.0057 11.7547 66.7899 11.4966 66.6333 11.2046C66.481 10.9084 66.4048 10.5677 66.4048 10.1826C66.4048 9.67904 66.5444 9.23682 66.8237 8.85596C67.103 8.47087 67.4902 8.17041 67.9854 7.95459C68.4805 7.73877 69.0539 7.63086 69.7056 7.63086C70.3996 7.63086 70.9963 7.75781 71.4956 8.01172C71.995 8.26139 72.3779 8.59993 72.6445 9.02734C72.9154 9.45475 73.0508 9.93083 73.0508 10.4556H71.4131C71.4131 10.1636 71.3496 9.90332 71.2227 9.6748C71.0999 9.44206 70.9116 9.26221 70.6577 9.13525C70.4038 9.00407 70.0801 8.93848 69.6865 8.93848C69.3184 8.93848 69.0116 8.99349 68.7661 9.10352C68.5207 9.21354 68.3387 9.36165 68.2202 9.54785C68.1017 9.73405 68.0425 9.94564 68.0425 10.1826C68.0425 10.4069 68.1144 10.6058 68.2583 10.7793C68.4022 10.9528 68.6201 11.1115 68.9121 11.2554C69.2041 11.395 69.568 11.5304 70.0039 11.6616C70.6895 11.8605 71.2586 12.0933 71.7114 12.3599C72.1642 12.6265 72.5007 12.9417 72.7207 13.3057C72.945 13.6696 73.0571 14.1012 73.0571 14.6006C73.0571 15.1211 72.9217 15.5718 72.6509 15.9526C72.38 16.3293 71.9971 16.6191 71.502 16.8223C71.0068 17.0254 70.425 17.127 69.7563 17.127C69.312 17.127 68.874 17.0677 68.4424 16.9492C68.0107 16.8265 67.6193 16.6445 67.2681 16.4033C66.9211 16.1579 66.6418 15.8511 66.4302 15.4829C66.2228 15.1147 66.1191 14.681 66.1191 14.1816H67.7568C67.7568 14.4779 67.8076 14.7297 67.9092 14.937C68.0107 15.1444 68.1525 15.3158 68.3345 15.4512C68.5164 15.5824 68.728 15.6776 68.9692 15.7368C69.2147 15.7961 69.4771 15.8257 69.7563 15.8257C70.1245 15.8257 70.4313 15.7749 70.6768 15.6733C70.9222 15.5675 71.1063 15.4237 71.229 15.2417C71.356 15.0597 71.4194 14.8503 71.4194 14.6133Z" fill="black"/>
</g>
<g filter="url(#filter9_d_146_97)">
<path d="M83.88 5.816H84.696V14H83.88V7.16L81.936 9.08L81.48 8.624L83.88 5.816ZM89.2328 5.636C89.7448 5.636 90.2088 5.776 90.6248 6.056C91.0488 6.328 91.3768 6.712 91.6088 7.208C91.8488 7.704 91.9688 8.264 91.9688 8.888C91.9688 10.056 91.7688 11.04 91.3688 11.84C90.9768 12.632 90.4368 13.224 89.7488 13.616C89.0688 14 88.2968 14.192 87.4328 14.192V13.424C88.4088 13.424 89.2128 13.168 89.8448 12.656C90.4768 12.144 90.8808 11.416 91.0568 10.472C90.8888 10.768 90.6328 10.996 90.2888 11.156C89.9448 11.316 89.6008 11.396 89.2568 11.396C88.7448 11.396 88.2808 11.272 87.8648 11.024C87.4488 10.776 87.1208 10.436 86.8808 10.004C86.6408 9.564 86.5208 9.068 86.5208 8.516C86.5208 7.964 86.6368 7.472 86.8688 7.04C87.1088 6.6 87.4328 6.256 87.8408 6.008C88.2568 5.76 88.7208 5.636 89.2328 5.636ZM89.2568 10.652C89.8408 10.652 90.3008 10.464 90.6368 10.088C90.9808 9.704 91.1528 9.224 91.1528 8.648C91.1528 8.216 91.0688 7.828 90.9008 7.484C90.7328 7.132 90.5048 6.86 90.2168 6.668C89.9288 6.476 89.6088 6.38 89.2568 6.38C88.8968 6.38 88.5688 6.472 88.2728 6.656C87.9848 6.84 87.7568 7.096 87.5888 7.424C87.4208 7.744 87.3368 8.108 87.3368 8.516C87.3368 8.924 87.4208 9.292 87.5888 9.62C87.7568 9.94 87.9848 10.192 88.2728 10.376C88.5688 10.56 88.8968 10.652 89.2568 10.652ZM96.0313 14.192C95.5113 14.192 95.0393 14.088 94.6153 13.88C94.1913 13.672 93.8553 13.376 93.6073 12.992C93.3593 12.608 93.2353 12.168 93.2353 11.672C93.2353 11.12 93.3753 10.664 93.6553 10.304C93.9433 9.944 94.3553 9.684 94.8913 9.524C94.0193 9.212 93.5833 8.628 93.5833 7.772C93.5833 7.332 93.6913 6.952 93.9073 6.632C94.1313 6.312 94.4273 6.068 94.7953 5.9C95.1713 5.724 95.5793 5.636 96.0193 5.636C96.4673 5.636 96.8753 5.724 97.2433 5.9C97.6193 6.068 97.9153 6.316 98.1313 6.644C98.3473 6.964 98.4553 7.34 98.4553 7.772C98.4553 8.628 98.0233 9.212 97.1593 9.524C97.7033 9.708 98.1113 9.976 98.3833 10.328C98.6633 10.672 98.8033 11.12 98.8033 11.672C98.8033 12.16 98.6833 12.596 98.4433 12.98C98.2033 13.364 97.8713 13.664 97.4473 13.88C97.0233 14.088 96.5513 14.192 96.0313 14.192ZM96.0313 9.128C96.5193 9.128 96.8953 9.016 97.1593 8.792C97.4313 8.568 97.5673 8.232 97.5673 7.784C97.5673 7.328 97.4273 6.992 97.1473 6.776C96.8753 6.552 96.4993 6.44 96.0193 6.44C95.5393 6.44 95.1593 6.552 94.8793 6.776C94.5993 7 94.4593 7.332 94.4593 7.772C94.4593 8.228 94.6033 8.568 94.8913 8.792C95.1793 9.016 95.5593 9.128 96.0313 9.128ZM96.0073 13.388C96.6073 13.388 97.0753 13.24 97.4113 12.944C97.7553 12.64 97.9273 12.212 97.9273 11.66C97.9273 11.1 97.7593 10.672 97.4233 10.376C97.0873 10.08 96.6193 9.932 96.0193 9.932C95.4273 9.932 94.9593 10.08 94.6153 10.376C94.2713 10.672 94.0993 11.096 94.0993 11.648C94.0993 12.208 94.2673 12.64 94.6033 12.944C94.9473 13.24 95.4153 13.388 96.0073 13.388Z" fill="black"/>
<path d="M83.88 5.816V5.616H83.7878L83.728 5.68606L83.88 5.816ZM84.696 5.816H84.896V5.616H84.696V5.816ZM84.696 14V14.2H84.896V14H84.696ZM83.88 14H83.68V14.2H83.88V14ZM83.88 7.16H84.08V6.68137L83.7395 7.0177L83.88 7.16ZM81.936 9.08L81.7946 9.22142L81.9351 9.36197L82.0765 9.2223L81.936 9.08ZM81.48 8.624L81.328 8.49406L81.2078 8.63465L81.3386 8.76542L81.48 8.624ZM83.88 6.016H84.696V5.616H83.88V6.016ZM84.496 5.816V14H84.896V5.816H84.496ZM84.696 13.8H83.88V14.2H84.696V13.8ZM84.08 14V7.16H83.68V14H84.08ZM83.7395 7.0177L81.7955 8.9377L82.0765 9.2223L84.0205 7.3023L83.7395 7.0177ZM82.0774 8.93858L81.6214 8.48258L81.3386 8.76542L81.7946 9.22142L82.0774 8.93858ZM81.632 8.75394L84.032 5.94594L83.728 5.68606L81.328 8.49406L81.632 8.75394ZM90.6248 6.056L90.513 6.22196L90.5168 6.22434L90.6248 6.056ZM91.6088 7.208L91.4276 7.29274L91.4287 7.29511L91.6088 7.208ZM91.3688 11.84L91.1899 11.7506L91.1895 11.7513L91.3688 11.84ZM89.7488 13.616L89.8471 13.7902L89.8478 13.7898L89.7488 13.616ZM87.4328 14.192H87.2328V14.392H87.4328V14.192ZM87.4328 13.424V13.224H87.2328V13.424H87.4328ZM89.8448 12.656L89.9706 12.8114L89.9706 12.8114L89.8448 12.656ZM91.0568 10.472L91.2534 10.5087L90.8828 10.3733L91.0568 10.472ZM90.2888 11.156L90.2044 10.9747L90.2044 10.9747L90.2888 11.156ZM86.8808 10.004L86.7052 10.0998L86.7059 10.1011L86.8808 10.004ZM86.8688 7.04L86.6932 6.94423L86.6926 6.94537L86.8688 7.04ZM87.8408 6.008L87.7383 5.8362L87.7369 5.8371L87.8408 6.008ZM90.6368 10.088L90.4878 9.95455L90.4876 9.95473L90.6368 10.088ZM90.9008 7.484L90.7202 7.57015L90.721 7.57177L90.9008 7.484ZM90.2168 6.668L90.1058 6.83441L90.1058 6.83441L90.2168 6.668ZM88.2728 6.656L88.1672 6.48613L88.1651 6.48746L88.2728 6.656ZM87.5888 7.424L87.7658 7.51697L87.7668 7.51517L87.5888 7.424ZM87.5888 9.62L87.4107 9.71118L87.4117 9.71297L87.5888 9.62ZM88.2728 10.376L88.1651 10.5446L88.1672 10.5459L88.2728 10.376ZM89.2328 5.836C89.7059 5.836 90.1308 5.96462 90.5131 6.22192L90.7364 5.89008C90.2867 5.58737 89.7836 5.436 89.2328 5.436V5.836ZM90.5168 6.22434C90.9062 6.47417 91.2101 6.82786 91.4276 7.29274L91.7899 7.12326C91.5434 6.59614 91.1913 6.18183 90.7327 5.88766L90.5168 6.22434ZM91.4287 7.29511C91.6539 7.76056 91.7687 8.29016 91.7687 8.888H92.1688C92.1688 8.23784 92.0436 7.64744 91.7888 7.12089L91.4287 7.29511ZM91.7687 8.888C91.7687 10.0341 91.5724 10.9855 91.1899 11.7506L91.5476 11.9294C91.9651 11.0945 92.1688 10.0779 92.1688 8.888H91.7687ZM91.1895 11.7513C90.8131 12.5119 90.2992 13.0722 89.6497 13.4422L89.8478 13.7898C90.5743 13.3758 91.1405 12.7521 91.548 11.9287L91.1895 11.7513ZM89.6504 13.4418C89.0035 13.8072 88.266 13.992 87.4328 13.992V14.392C88.3275 14.392 89.134 14.1928 89.8471 13.7902L89.6504 13.4418ZM87.6328 14.192V13.424H87.2328V14.192H87.6328ZM87.4328 13.624C88.4451 13.624 89.2963 13.3577 89.9706 12.8114L89.7189 12.5006C89.1292 12.9783 88.3724 13.224 87.4328 13.224V13.624ZM89.9706 12.8114C90.646 12.2643 91.0703 11.4905 91.2534 10.5087L90.8601 10.4353C90.6912 11.3415 90.3075 12.0237 89.7189 12.5006L89.9706 12.8114ZM90.8828 10.3733C90.7377 10.629 90.5152 10.8301 90.2044 10.9747L90.3731 11.3373C90.7503 11.1619 91.0398 10.907 91.2307 10.5707L90.8828 10.3733ZM90.2044 10.9747C89.8841 11.1236 89.5687 11.196 89.2568 11.196V11.596C89.6328 11.596 90.0054 11.5084 90.3731 11.3373L90.2044 10.9747ZM89.2568 11.196C88.7787 11.196 88.3504 11.0807 87.9672 10.8522L87.7623 11.1958C88.2111 11.4633 88.7108 11.596 89.2568 11.596V11.196ZM87.9672 10.8522C87.5821 10.6227 87.2788 10.3087 87.0556 9.90687L86.7059 10.1011C86.9627 10.5633 87.3154 10.9293 87.7623 11.1958L87.9672 10.8522ZM87.0563 9.90823C86.8339 9.50051 86.7208 9.038 86.7208 8.516H86.3208C86.3208 9.098 86.4476 9.62749 86.7052 10.0998L87.0563 9.90823ZM86.7208 8.516C86.7208 7.99281 86.8305 7.53404 87.0449 7.13462L86.6926 6.94537C86.443 7.40996 86.3208 7.93519 86.3208 8.516H86.7208ZM87.0443 7.13577C87.2683 6.72509 87.5683 6.40769 87.9446 6.1789L87.7369 5.8371C87.2972 6.10431 86.9492 6.47491 86.6932 6.94423L87.0443 7.13577ZM87.9432 6.17979C88.3264 5.95132 88.7547 5.836 89.2328 5.836V5.436C88.6868 5.436 88.1871 5.56868 87.7383 5.83621L87.9432 6.17979ZM89.2568 10.852C89.8878 10.852 90.4058 10.6466 90.7859 10.2213L90.4876 9.95473C90.1957 10.2814 89.7937 10.452 89.2568 10.452V10.852ZM90.7857 10.2214C91.1665 9.79639 91.3528 9.26704 91.3528 8.648H90.9528C90.9528 9.18096 90.795 9.61161 90.4878 9.95455L90.7857 10.2214ZM91.3528 8.648C91.3528 8.18951 91.2634 7.77089 91.0805 7.39623L90.721 7.57177C90.8741 7.88511 90.9528 8.24249 90.9528 8.648H91.3528ZM91.0812 7.39785C90.8997 7.01754 90.6494 6.71603 90.3277 6.50159L90.1058 6.83441C90.3601 7.00397 90.5658 7.24646 90.7203 7.57015L91.0812 7.39785ZM90.3277 6.50159C90.0062 6.2873 89.6475 6.18 89.2568 6.18V6.58C89.57 6.58 89.8513 6.6647 90.1058 6.83441L90.3277 6.50159ZM89.2568 6.18C88.8607 6.18 88.4959 6.28177 88.1672 6.48614L88.3783 6.82586C88.6416 6.66223 88.9328 6.58 89.2568 6.58V6.18ZM88.1651 6.48746C87.8449 6.69204 87.5936 6.97581 87.4107 7.33282L87.7668 7.51517C87.9199 7.21619 88.1246 6.98795 88.3804 6.82454L88.1651 6.48746ZM87.4117 7.33103C87.2268 7.68323 87.1368 8.07984 87.1368 8.516H87.5368C87.5368 8.13616 87.6147 7.80477 87.7658 7.51697L87.4117 7.33103ZM87.1368 8.516C87.1368 8.95226 87.2268 9.35204 87.4107 9.71118L87.7668 9.52882C87.6147 9.23196 87.5368 8.89574 87.5368 8.516H87.1368ZM87.4117 9.71297C87.5949 10.0619 87.8461 10.3407 88.1651 10.5445L88.3804 10.2075C88.1234 10.0433 87.9186 9.81807 87.7658 9.52703L87.4117 9.71297ZM88.1672 10.5459C88.4959 10.7502 88.8607 10.852 89.2568 10.852V10.452C88.9328 10.452 88.6416 10.3698 88.3783 10.2061L88.1672 10.5459ZM93.6073 12.992L93.7753 12.8835L93.7753 12.8835L93.6073 12.992ZM93.6553 10.304L93.4991 10.179L93.4974 10.1812L93.6553 10.304ZM94.8913 9.524L94.9485 9.71564L95.533 9.54117L94.9587 9.33569L94.8913 9.524ZM93.9073 6.632L93.7434 6.51729L93.7415 6.52011L93.9073 6.632ZM94.7953 5.9L94.8784 6.08195L94.8801 6.08114L94.7953 5.9ZM97.2433 5.9L97.157 6.08049L97.1617 6.0826L97.2433 5.9ZM98.1313 6.644L97.9643 6.754L97.9655 6.75589L98.1313 6.644ZM97.1593 9.524L97.0914 9.33589L96.5534 9.53018L97.0952 9.71346L97.1593 9.524ZM98.3833 10.328L98.225 10.4503L98.2282 10.4543L98.3833 10.328ZM98.4433 12.98L98.6129 13.086L98.6129 13.086L98.4433 12.98ZM97.4473 13.88L97.5354 14.0596L97.5381 14.0582L97.4473 13.88ZM97.1593 8.792L97.0322 8.6376L97.0299 8.6395L97.1593 8.792ZM97.1473 6.776L97.0201 6.93046L97.0252 6.93436L97.1473 6.776ZM94.8793 6.776L94.7544 6.61983L94.7544 6.61983L94.8793 6.776ZM94.8913 8.792L95.0141 8.63413L95.0141 8.63413L94.8913 8.792ZM97.4113 12.944L97.5435 13.0941L97.5438 13.0939L97.4113 12.944ZM94.6153 10.376L94.7458 10.5276L94.7458 10.5276L94.6153 10.376ZM94.6033 12.944L94.4691 13.0924L94.4729 13.0956L94.6033 12.944ZM96.0313 13.992C95.5387 13.992 95.0973 13.8937 94.7034 13.7004L94.5272 14.0596C94.9813 14.2823 95.4839 14.392 96.0313 14.392V13.992ZM94.7034 13.7004C94.3109 13.5079 94.0029 13.236 93.7753 12.8835L93.4393 13.1005C93.7077 13.516 94.0718 13.8361 94.5272 14.0596L94.7034 13.7004ZM93.7753 12.8835C93.55 12.5346 93.4353 12.1329 93.4353 11.672H93.0353C93.0353 12.2031 93.1686 12.6814 93.4393 13.1005L93.7753 12.8835ZM93.4353 11.672C93.4353 11.1548 93.5659 10.7448 93.8132 10.4268L93.4974 10.1812C93.1848 10.5832 93.0353 11.0852 93.0353 11.672H93.4353ZM93.8115 10.4289C94.0691 10.107 94.4431 9.86652 94.9485 9.71564L94.8341 9.33236C94.2675 9.50148 93.8176 9.78102 93.4991 10.1791L93.8115 10.4289ZM94.9587 9.33569C94.5497 9.18937 94.2594 8.98528 94.0706 8.73235C93.8827 8.48067 93.7833 8.16466 93.7833 7.772H93.3833C93.3833 8.23534 93.502 8.63933 93.75 8.97165C93.9972 9.30272 94.3609 9.54663 94.8239 9.71231L94.9587 9.33569ZM93.7833 7.772C93.7833 7.36613 93.8824 7.02638 94.0731 6.74389L93.7415 6.52011C93.5002 6.87762 93.3833 7.29787 93.3833 7.772H93.7833ZM94.0712 6.74669C94.274 6.45698 94.5416 6.23568 94.8784 6.08194L94.7123 5.71806C94.313 5.90032 93.9887 6.16702 93.7435 6.51731L94.0712 6.74669ZM94.8801 6.08114C95.228 5.9183 95.6068 5.836 96.0193 5.836V5.436C95.5518 5.436 95.1146 5.5297 94.7105 5.71886L94.8801 6.08114ZM96.0193 5.836C96.4404 5.836 96.8185 5.91854 97.157 6.08043L97.3296 5.71957C96.9321 5.52946 96.4942 5.436 96.0193 5.436V5.836ZM97.1617 6.0826C97.5047 6.23584 97.7703 6.45944 97.9643 6.754L98.2983 6.534C98.0603 6.17256 97.7339 5.90016 97.3249 5.7174L97.1617 6.0826ZM97.9655 6.75589C98.1566 7.03899 98.2553 7.37495 98.2553 7.772H98.6553C98.6553 7.30505 98.538 6.88901 98.2971 6.53211L97.9655 6.75589ZM98.2553 7.772C98.2553 8.16507 98.1567 8.48133 97.9705 8.73306C97.7835 8.9859 97.4961 9.18975 97.0914 9.33589L97.2272 9.71211C97.6865 9.54625 98.0471 9.3021 98.2921 8.97094C98.5379 8.63867 98.6553 8.23493 98.6553 7.772H98.2553ZM97.0952 9.71346C97.6127 9.88847 97.9833 10.1374 98.2251 10.4503L98.5416 10.2057C98.2394 9.81462 97.794 9.52753 97.2234 9.33454L97.0952 9.71346ZM98.2282 10.4543C98.4726 10.7546 98.6033 11.1544 98.6033 11.672H99.0033C99.0033 11.0856 98.854 10.5894 98.5384 10.2017L98.2282 10.4543ZM98.6033 11.672C98.6033 12.1255 98.4923 12.5243 98.2737 12.874L98.6129 13.086C98.8743 12.6677 99.0033 12.1945 99.0033 11.672H98.6033ZM98.2737 12.874C98.0539 13.2256 97.7499 13.5014 97.3565 13.7018L97.5381 14.0582C97.9927 13.8266 98.3527 13.5024 98.6129 13.086L98.2737 12.874ZM97.3592 13.7004C96.9653 13.8937 96.5239 13.992 96.0313 13.992V14.392C96.5787 14.392 97.0813 14.2823 97.5354 14.0596L97.3592 13.7004ZM96.0313 9.328C96.5475 9.328 96.9762 9.20964 97.2887 8.9445L97.0299 8.6395C96.8144 8.82236 96.4911 8.928 96.0313 8.928V9.328ZM97.2865 8.94639C97.6166 8.67447 97.7673 8.27417 97.7673 7.784H97.3673C97.3673 8.18983 97.246 8.46153 97.0322 8.63761L97.2865 8.94639ZM97.7673 7.784C97.7673 7.2856 97.6122 6.88206 97.2695 6.61764L97.0252 6.93436C97.2424 7.10194 97.3673 7.3704 97.3673 7.784H97.7673ZM97.2745 6.62161C96.9556 6.35899 96.5289 6.24 96.0193 6.24V6.64C96.4697 6.64 96.7951 6.74501 97.0202 6.93039L97.2745 6.62161ZM96.0193 6.24C95.5093 6.24 95.0802 6.35915 94.7544 6.61983L95.0043 6.93217C95.2384 6.74485 95.5694 6.64 96.0193 6.64V6.24ZM94.7544 6.61983C94.4162 6.89037 94.2593 7.28646 94.2593 7.772H94.6593C94.6593 7.37754 94.7824 7.10963 95.0043 6.93217L94.7544 6.61983ZM94.2593 7.772C94.2593 8.27273 94.4198 8.67864 94.7685 8.94987L95.0141 8.63413C94.7868 8.45735 94.6593 8.18327 94.6593 7.772H94.2593ZM94.7685 8.94987C95.1008 9.20829 95.528 9.328 96.0313 9.328V8.928C95.5906 8.928 95.2579 8.82371 95.0141 8.63413L94.7685 8.94987ZM96.0073 13.588C96.6392 13.588 97.1601 13.4318 97.5435 13.0941L97.2791 12.7939C96.9905 13.0482 96.5754 13.188 96.0073 13.188V13.588ZM97.5438 13.0939C97.9394 12.7443 98.1273 12.2567 98.1273 11.66H97.7273C97.7273 12.1673 97.5713 12.5357 97.2789 12.7941L97.5438 13.0939ZM98.1273 11.66C98.1273 11.0581 97.945 10.5691 97.5555 10.2259L97.2911 10.5261C97.5736 10.7749 97.7273 11.1419 97.7273 11.66H98.1273ZM97.5555 10.2259C97.1721 9.88818 96.6512 9.732 96.0193 9.732V10.132C96.5874 10.132 97.0025 10.2718 97.2911 10.5261L97.5555 10.2259ZM96.0193 9.732C95.3943 9.732 94.875 9.88869 94.4849 10.2244L94.7458 10.5276C95.0436 10.2713 95.4603 10.132 96.0193 10.132V9.732ZM94.4849 10.2244C94.0872 10.5665 93.8993 11.0515 93.8993 11.648H94.2993C94.2993 11.1405 94.4554 10.7775 94.7458 10.5276L94.4849 10.2244ZM93.8993 11.648C93.8993 12.2501 94.0816 12.7417 94.4691 13.0923L94.7375 12.7957C94.453 12.5383 94.2993 12.1658 94.2993 11.648H93.8993ZM94.4729 13.0956C94.863 13.4313 95.3823 13.588 96.0073 13.588V13.188C95.4483 13.188 95.0316 13.0487 94.7338 12.7924L94.4729 13.0956Z" fill="black"/>
</g>
</g>
<defs>
<filter id="filter0_d_146_97" x="0" y="1" width="109.33" height="25" filterUnits="userSpaceOnUse" color-interpolation-filters="sRGB">
<feFlood flood-opacity="0" result="BackgroundImageFix"/>
<feColorMatrix in="SourceAlpha" type="matrix" values="0 0 0 0 0 0 0 0 0 0 0 0 0 0 0 0 0 0 127 0" result="hardAlpha"/>
<feOffset dy="1"/>
<feGaussianBlur stdDeviation="0.5"/>
<feComposite in2="hardAlpha" operator="out"/>
<feColorMatrix type="matrix" values="0 0 0 0 0 0 0 0 0 0 0 0 0 0 0 0 0 0 0.25 0"/>
<feBlend mode="normal" in2="BackgroundImageFix" result="effect1_dropShadow_146_97"/>
<feBlend mode="normal" in="SourceGraphic" in2="effect1_dropShadow_146_97" result="shape"/>
</filter>
<filter id="filter1_d_146_97" x="94" y="15" width="10.7617" height="7.47607" filterUnits="userSpaceOnUse" color-interpolation-filters="sRGB">
<feFlood flood-opacity="0" result="BackgroundImageFix"/>
<feColorMatrix in="SourceAlpha" type="matrix" values="0 0 0 0 0 0 0 0 0 0 0 0 0 0 0 0 0 0 127 0" result="hardAlpha"/>
<feOffset dx="1" dy="1"/>
<feGaussianBlur stdDeviation="0.5"/>
<feComposite in2="hardAlpha" operator="out"/>
<feColorMatrix type="matrix" values="0 0 0 0 0 0 0 0 0 0 0 0 0 0 0 0 0 0 0.25 0"/>
<feBlend mode="normal" in2="BackgroundImageFix" result="effect1_dropShadow_146_97"/>
<feBlend mode="normal" in="SourceGraphic" in2="effect1_dropShadow_146_97" result="shape"/>
</filter>
<filter id="filter2_d_146_97" x="93" y="15.8252" width="14.7617" height="7.82544" filterUnits="userSpaceOnUse" color-interpolation-filters="sRGB">
<feFlood flood-opacity="0" result="BackgroundImageFix"/>
<feColorMatrix in="SourceAlpha" type="matrix" values="0 0 0 0 0 0 0 0 0 0 0 0 0 0 0 0 0 0 127 0" result="hardAlpha"/>
<feOffset dx="2" dy="2"/>
<feGaussianBlur stdDeviation="1.5"/>
<feComposite in2="hardAlpha" operator="out"/>
<feColorMatrix type="matrix" values="0 0 0 0 0 0 0 0 0 0 0 0 0 0 0 0 0 0 0.25 0"/>
<feBlend mode="normal" in2="BackgroundImageFix" result="effect1_dropShadow_146_97"/>
<feBlend mode="normal" in="SourceGraphic" in2="effect1_dropShadow_146_97" result="shape"/>
</filter>
<filter id="filter3_d_146_97" x="93" y="17.6506" width="14.7617" height="7.82544" filterUnits="userSpaceOnUse" color-interpolation-filters="sRGB">
<feFlood flood-opacity="0" result="BackgroundImageFix"/>
<feColorMatrix in="SourceAlpha" type="matrix" values="0 0 0 0 0 0 0 0 0 0 0 0 0 0 0 0 0 0 127 0" result="hardAlpha"/>
<feOffset dx="2" dy="2"/>
<feGaussianBlur stdDeviation="1.5"/>
<feComposite in2="hardAlpha" operator="out"/>
<feColorMatrix type="matrix" values="0 0 0 0 0 0 0 0 0 0 0 0 0 0 0 0 0 0 0.25 0"/>
<feBlend mode="normal" in2="BackgroundImageFix" result="effect1_dropShadow_146_97"/>
<feBlend mode="normal" in="SourceGraphic" in2="effect1_dropShadow_146_97" result="shape"/>
</filter>
<filter id="filter4_d_146_97" x="102.219" y="10.5874" width="8.55566" height="8.55566" filterUnits="userSpaceOnUse" color-interpolation-filters="sRGB">
<feFlood flood-opacity="0" result="BackgroundImageFix"/>
<feColorMatrix in="SourceAlpha" type="matrix" values="0 0 0 0 0 0 0 0 0 0 0 0 0 0 0 0 0 0 127 0" result="hardAlpha"/>
<feOffset dx="2" dy="2"/>
<feGaussianBlur stdDeviation="1.5"/>
<feComposite in2="hardAlpha" operator="out"/>
<feColorMatrix type="matrix" values="0 0 0 0 0 0 0 0 0 0 0 0 0 0 0 0 0 0 0.25 0"/>
<feBlend mode="normal" in2="BackgroundImageFix" result="effect1_dropShadow_146_97"/>
<feBlend mode="normal" in="SourceGraphic" in2="effect1_dropShadow_146_97" result="shape"/>
</filter>
<filter id="filter5_d_146_97" x="1.8252" y="10.5874" width="8.55566" height="8.55566" filterUnits="userSpaceOnUse" color-interpolation-filters="sRGB">
<feFlood flood-opacity="0" result="BackgroundImageFix"/>
<feColorMatrix in="SourceAlpha" type="matrix" values="0 0 0 0 0 0 0 0 0 0 0 0 0 0 0 0 0 0 127 0" result="hardAlpha"/>
<feOffset dx="2" dy="2"/>
<feGaussianBlur stdDeviation="1.5"/>
<feComposite in2="hardAlpha" operator="out"/>
<feColorMatrix type="matrix" values="0 0 0 0 0 0 0 0 0 0 0 0 0 0 0 0 0 0 0.25 0"/>
<feBlend mode="normal" in2="BackgroundImageFix" result="effect1_dropShadow_146_97"/>
<feBlend mode="normal" in="SourceGraphic" in2="effect1_dropShadow_146_97" result="shape"/>
</filter>
<filter id="filter6_d_146_97" x="79.4277" y="14.6758" width="16.6904" height="10.3828" filterUnits="userSpaceOnUse" color-interpolation-filters="sRGB">
<feFlood flood-opacity="0" result="BackgroundImageFix"/>
<feColorMatrix in="SourceAlpha" type="matrix" values="0 0 0 0 0 0 0 0 0 0 0 0 0 0 0 0 0 0 127 0" result="hardAlpha"/>
<feOffset dx="2" dy="2"/>
<feGaussianBlur stdDeviation="1.5"/>
<feComposite in2="hardAlpha" operator="out"/>
<feColorMatrix type="matrix" values="0 0 0 0 0 0 0 0 0 0 0 0 0 0 0 0 0 0 0.25 0"/>
<feBlend mode="normal" in2="BackgroundImageFix" result="effect1_dropShadow_146_97"/>
<feBlend mode="normal" in="SourceGraphic" in2="effect1_dropShadow_146_97" result="shape"/>
</filter>
<filter id="filter7_d_146_97" x="74.8389" y="0.36499" width="7" height="27.1746" filterUnits="userSpaceOnUse" color-interpolation-filters="sRGB">
<feFlood flood-opacity="0" result="BackgroundImageFix"/>
<feColorMatrix in="SourceAlpha" type="matrix" values="0 0 0 0 0 0 0 0 0 0 0 0 0 0 0 0 0 0 127 0" result="hardAlpha"/>
<feOffset dx="2" dy="2"/>
<feGaussianBlur stdDeviation="1.5"/>
<feComposite in2="hardAlpha" operator="out"/>
<feColorMatrix type="matrix" values="0 0 0 0 0 0 0 0 0 0 0 0 0 0 0 0 0 0 0.25 0"/>
<feBlend mode="normal" in2="BackgroundImageFix" result="effect1_dropShadow_146_97"/>
<feBlend mode="normal" in="SourceGraphic" in2="effect1_dropShadow_146_97" result="shape"/>
</filter>
<filter id="filter8_d_146_97" x="7.92676" y="6.63086" width="70.1304" height="15.4961" filterUnits="userSpaceOnUse" color-interpolation-filters="sRGB">
<feFlood flood-opacity="0" result="BackgroundImageFix"/>
<feColorMatrix in="SourceAlpha" type="matrix" values="0 0 0 0 0 0 0 0 0 0 0 0 0 0 0 0 0 0 127 0" result="hardAlpha"/>
<feOffset dx="2" dy="2"/>
<feGaussianBlur stdDeviation="1.5"/>
<feComposite in2="hardAlpha" operator="out"/>
<feColorMatrix type="matrix" values="0 0 0 0 0 0 0 0 0 0 0 0 0 0 0 0 0 0 0.25 0"/>
<feBlend mode="normal" in2="BackgroundImageFix" result="effect1_dropShadow_146_97"/>
<feBlend mode="normal" in="SourceGraphic" in2="effect1_dropShadow_146_97" result="shape"/>
</filter>
<filter id="filter9_d_146_97" x="80.48" y="4.63599" width="23.3232" height="14.5559" filterUnits="userSpaceOnUse" color-interpolation-filters="sRGB">
<feFlood flood-opacity="0" result="BackgroundImageFix"/>
<feColorMatrix in="SourceAlpha" type="matrix" values="0 0 0 0 0 0 0 0 0 0 0 0 0 0 0 0 0 0 127 0" result="hardAlpha"/>
<feOffset dx="2" dy="2"/>
<feGaussianBlur stdDeviation="1.5"/>
<feComposite in2="hardAlpha" operator="out"/>
<feColorMatrix type="matrix" values="0 0 0 0 0 0 0 0 0 0 0 0 0 0 0 0 0 0 0.25 0"/>
<feBlend mode="normal" in2="BackgroundImageFix" result="effect1_dropShadow_146_97"/>
<feBlend mode="normal" in="SourceGraphic" in2="effect1_dropShadow_146_97" result="shape"/>
</filter>
</defs>
</svg>
