<svg width="298" height="67" viewBox="0 0 298 67" fill="none" xmlns="http://www.w3.org/2000/svg">
<g filter="url(#filter0_d_15_167)">
<rect x="2" width="294" height="63" rx="7" fill="white"/>
<rect x="4" y="2" width="290" height="58" rx="6" fill="white" stroke="black" stroke-width="2"/>
<g filter="url(#filter1_d_15_167)">
<rect x="265" y="40" width="24" height="15" fill="white"/>
<rect x="265.25" y="40.25" width="23.5" height="14.5" stroke="black" stroke-width="0.5"/>
</g>
<g filter="url(#filter2_d_15_167)">
<mask id="path-5-inside-1_15_167" fill="white">
<path d="M265 45H289V50H265V45Z"/>
</mask>
<path d="M265 45H289V50H265V45Z" fill="#306D99"/>
<path d="M288.5 45V50H289.5V45H288.5ZM265.5 50V45H264.5V50H265.5Z" fill="black" mask="url(#path-5-inside-1_15_167)"/>
</g>
<g filter="url(#filter3_d_15_167)">
<mask id="path-7-inside-2_15_167" fill="white">
<path d="M265 50H289V55H265V50Z"/>
</mask>
<path d="M265 50H289V55H265V50Z" fill="#CA2D24"/>
<path d="M289 55V55.5H289.5V55H289ZM265 55H264.5V55.5H265V55ZM288.5 50V55H289.5V50H288.5ZM289 54.5H265V55.5H289V54.5ZM265.5 55V50H264.5V55H265.5Z" fill="black" mask="url(#path-7-inside-2_15_167)"/>
</g>
<g filter="url(#filter4_d_15_167)">
<circle cx="285.5" cy="32.5" r="3.5" fill="black"/>
</g>
<g filter="url(#filter5_d_15_167)">
<circle cx="10.5" cy="32.5" r="3.5" fill="black"/>
</g>
<g filter="url(#filter6_d_15_167)">
<path d="M230.475 40.7812C231.562 40.7812 232.49 40.944 233.258 41.2695C234.026 41.5951 234.612 42.0768 235.016 42.7148C235.426 43.3529 235.631 44.1374 235.631 45.0684C235.631 45.7845 235.501 46.4128 235.24 46.9531C234.98 47.4935 234.609 47.9492 234.127 48.3203C233.652 48.6849 233.089 48.9681 232.438 49.1699L231.676 49.5605H227.174L227.154 47.5391H230.494C231.074 47.5391 231.555 47.4382 231.939 47.2363C232.33 47.0345 232.62 46.7578 232.809 46.4062C233.004 46.0547 233.102 45.6543 233.102 45.2051C233.102 44.4759 232.89 43.8965 232.467 43.4668C232.05 43.0306 231.386 42.8125 230.475 42.8125H227.945V55H225.426V40.7812H230.475ZM230.182 48.623L232.828 48.6133L236.197 54.873V55H233.502L230.182 48.623ZM248.463 40.7812V50.2539C248.463 51.3411 248.225 52.2526 247.75 52.9883C247.281 53.7174 246.643 54.2676 245.836 54.6387C245.029 55.0098 244.127 55.1953 243.131 55.1953C242.109 55.1953 241.194 55.0098 240.387 54.6387C239.586 54.2676 238.954 53.7174 238.492 52.9883C238.036 52.2526 237.809 51.3411 237.809 50.2539V40.7812H240.318V50.2539C240.318 50.9245 240.432 51.4746 240.66 51.9043C240.888 52.334 241.214 52.653 241.637 52.8613C242.06 53.0697 242.558 53.1738 243.131 53.1738C243.717 53.1738 244.218 53.0697 244.635 52.8613C245.051 52.653 245.374 52.334 245.602 51.9043C245.829 51.4746 245.943 50.9245 245.943 50.2539V40.7812H248.463ZM258.541 51.3281C258.541 50.944 258.46 50.6185 258.297 50.3516C258.141 50.0781 257.844 49.8275 257.408 49.5996C256.972 49.3652 256.344 49.1211 255.523 48.8672C254.853 48.6654 254.231 48.4342 253.658 48.1738C253.092 47.9134 252.597 47.6139 252.174 47.2754C251.751 46.9303 251.419 46.5332 251.178 46.084C250.943 45.6283 250.826 45.1042 250.826 44.5117C250.826 43.737 251.041 43.0566 251.471 42.4707C251.9 41.8783 252.496 41.416 253.258 41.084C254.02 40.752 254.902 40.5859 255.904 40.5859C256.972 40.5859 257.89 40.7812 258.658 41.1719C259.426 41.556 260.016 42.0768 260.426 42.7344C260.842 43.3919 261.051 44.1243 261.051 44.9316H258.531C258.531 44.4824 258.434 44.082 258.238 43.7305C258.049 43.3724 257.76 43.0957 257.369 42.9004C256.979 42.6986 256.48 42.5977 255.875 42.5977C255.309 42.5977 254.837 42.6823 254.459 42.8516C254.081 43.0208 253.801 43.2487 253.619 43.5352C253.437 43.8216 253.346 44.1471 253.346 44.5117C253.346 44.8568 253.456 45.1628 253.678 45.4297C253.899 45.6966 254.234 45.9408 254.684 46.1621C255.133 46.377 255.693 46.5853 256.363 46.7871C257.418 47.0931 258.294 47.4512 258.99 47.8613C259.687 48.2715 260.204 48.7565 260.543 49.3164C260.888 49.8763 261.061 50.5404 261.061 51.3086C261.061 52.1094 260.852 52.8027 260.436 53.3887C260.019 53.9681 259.43 54.4141 258.668 54.7266C257.906 55.0391 257.011 55.1953 255.982 55.1953C255.299 55.1953 254.625 55.1042 253.961 54.9219C253.297 54.7331 252.695 54.4531 252.154 54.082C251.62 53.7044 251.191 53.2324 250.865 52.666C250.546 52.0996 250.387 51.4323 250.387 50.6641H252.906C252.906 51.1198 252.984 51.5072 253.141 51.8262C253.297 52.1452 253.515 52.4089 253.795 52.6172C254.075 52.819 254.4 52.9655 254.771 53.0566C255.149 53.1478 255.553 53.1934 255.982 53.1934C256.549 53.1934 257.021 53.1152 257.398 52.959C257.776 52.7962 258.059 52.5749 258.248 52.2949C258.443 52.015 258.541 51.6927 258.541 51.3281Z" fill="black"/>
</g>
<g filter="url(#filter7_d_15_167)">
<line x1="207.5" y1="1" x2="207.5" y2="59" stroke="black"/>
</g>
<g filter="url(#filter8_d_15_167)">
<path d="M25.978 17.6953C27.9894 17.6953 29.7057 17.9964 31.127 18.5986C32.5482 19.2008 33.6322 20.0921 34.3789 21.2724C35.1377 22.4528 35.5171 23.9041 35.5171 25.6264C35.5171 26.9513 35.2762 28.1136 34.7944 29.1133C34.3127 30.1129 33.6261 30.956 32.7349 31.6425C31.8556 32.317 30.8138 32.841 29.6094 33.2143L28.2002 33.937H19.8716L19.8354 30.1972H26.0142C27.0861 30.1972 27.9774 30.0105 28.688 29.6372C29.4106 29.2638 29.9466 28.7519 30.2959 28.1015C30.6572 27.4511 30.8379 26.7104 30.8379 25.8794C30.8379 24.5304 30.4465 23.4585 29.6636 22.6635C28.8927 21.8566 27.6642 21.4531 25.978 21.4531H21.2988V44H16.6377V17.6953H25.978ZM25.436 32.2026L30.332 32.1845L36.5649 43.7651V44H31.5786L25.436 32.2026ZM59.2563 17.6953V35.2197C59.2563 37.2311 58.8167 38.9173 57.9375 40.2783C57.0703 41.6272 55.89 42.645 54.3965 43.3315C52.903 44.018 51.2349 44.3613 49.3921 44.3613C47.5011 44.3613 45.8089 44.018 44.3154 43.3315C42.834 42.645 41.6657 41.6272 40.8105 40.2783C39.9674 38.9173 39.5459 37.2311 39.5459 35.2197V17.6953H44.189V35.2197C44.189 36.4603 44.3997 37.478 44.8213 38.2729C45.2428 39.0678 45.8451 39.658 46.6279 40.0434C47.4108 40.4288 48.3322 40.6216 49.3921 40.6216C50.4761 40.6216 51.4035 40.4288 52.1743 40.0434C52.9451 39.658 53.5413 39.0678 53.9629 38.2729C54.3844 37.478 54.5952 36.4603 54.5952 35.2197V17.6953H59.2563ZM77.9009 37.207C77.9009 36.4964 77.7503 35.8942 77.4492 35.4004C77.1602 34.8945 76.6121 34.4308 75.8052 34.0092C74.9982 33.5757 73.8359 33.124 72.3184 32.6543C71.0778 32.2809 69.9276 31.8533 68.8677 31.3716C67.8198 30.8898 66.9045 30.3357 66.1216 29.7094C65.3387 29.0711 64.7244 28.3364 64.2788 27.5053C63.8452 26.6622 63.6284 25.6927 63.6284 24.5966C63.6284 23.1634 64.0259 21.9048 64.8208 20.8208C65.6157 19.7247 66.7178 18.8696 68.127 18.2553C69.5361 17.6411 71.1681 17.334 73.0229 17.334C74.9982 17.334 76.6965 17.6953 78.1177 18.4179C79.5389 19.1286 80.6289 20.0921 81.3877 21.3086C82.1585 22.525 82.5439 23.88 82.5439 25.3735H77.8828C77.8828 24.5424 77.7021 23.8017 77.3408 23.1513C76.9915 22.4889 76.4556 21.977 75.7329 21.6157C75.0103 21.2423 74.0889 21.0556 72.9688 21.0556C71.9209 21.0556 71.0477 21.2122 70.3491 21.5254C69.6506 21.8385 69.1326 22.2601 68.7954 22.79C68.4582 23.32 68.2896 23.9222 68.2896 24.5966C68.2896 25.235 68.4943 25.8011 68.9038 26.2949C69.3133 26.7887 69.9336 27.2404 70.7646 27.6499C71.5957 28.0473 72.6315 28.4327 73.8721 28.8061C75.8232 29.3722 77.4432 30.0346 78.7319 30.7934C80.0207 31.5522 80.9782 32.4495 81.6045 33.4853C82.2428 34.5211 82.562 35.7496 82.562 37.1709C82.562 38.6523 82.1766 39.935 81.4058 41.019C80.6349 42.091 79.5449 42.916 78.1357 43.4941C76.7266 44.0722 75.0705 44.3613 73.1675 44.3613C71.9028 44.3613 70.6562 44.1927 69.4277 43.8554C68.1992 43.5062 67.0851 42.9883 66.0854 42.3017C65.0978 41.6032 64.3029 40.7299 63.7007 39.6821C63.1105 38.6342 62.8154 37.3997 62.8154 35.9785H67.4766C67.4766 36.8216 67.6211 37.5382 67.9102 38.1284C68.1992 38.7186 68.6027 39.2063 69.1206 39.5918C69.6385 39.9651 70.2407 40.2361 70.9272 40.4048C71.6258 40.5734 72.3726 40.6577 73.1675 40.6577C74.2153 40.6577 75.0885 40.5132 75.7871 40.2241C76.4857 39.923 77.0096 39.5135 77.3589 38.9956C77.7202 38.4777 77.9009 37.8815 77.9009 37.207ZM86.3921 30.1069C86.3921 28.9627 86.7534 28.0232 87.4761 27.2885C88.1987 26.5538 89.1803 26.1865 90.4209 26.1865C91.6855 26.1865 92.6792 26.5538 93.4019 27.2885C94.1245 28.0232 94.4858 28.9627 94.4858 30.1069V30.8115C94.4858 31.9557 94.1245 32.8891 93.4019 33.6118C92.6792 34.3344 91.6916 34.6958 90.439 34.6958C89.1984 34.6958 88.2108 34.3344 87.4761 33.6118C86.7534 32.8891 86.3921 31.9557 86.3921 30.8115V30.1069ZM105.579 17.6953L113.058 37.749L120.538 17.6953H124.693L114.702 44H111.414L101.441 17.6953H105.579ZM103.483 17.6953L104.169 35.563V44H99.5264V17.6953H103.483ZM126.608 17.6953V44H121.947V35.563L122.651 17.6953H126.608ZM152.967 31.5341C152.967 34.1959 152.509 36.4843 151.594 38.3994C150.678 40.3144 149.402 41.7898 147.764 42.8257C146.138 43.8494 144.229 44.3613 142.037 44.3613C139.893 44.3613 137.99 43.8494 136.328 42.8257C134.678 41.7898 133.383 40.3144 132.443 38.3994C131.516 36.4843 131.052 34.1959 131.052 31.5341V30.1792C131.052 27.5174 131.516 25.229 132.443 23.3139C133.371 21.3869 134.66 19.9114 136.31 18.8877C137.96 17.8519 139.857 17.334 142 17.334C144.193 17.334 146.108 17.8519 147.746 18.8877C149.384 19.9114 150.66 21.3869 151.576 23.3139C152.503 25.229 152.967 27.5174 152.967 30.1792V31.5341ZM148.288 30.143C148.288 28.2039 148.041 26.5719 147.547 25.247C147.053 23.9101 146.336 22.9044 145.397 22.2299C144.458 21.5434 143.325 21.2002 142 21.2002C140.7 21.2002 139.58 21.5434 138.64 22.2299C137.713 22.9044 136.996 23.9101 136.49 25.247C135.996 26.5719 135.75 28.2039 135.75 30.143V31.5341C135.75 33.4733 136.002 35.1113 136.508 36.4482C137.014 37.7851 137.737 38.7968 138.676 39.4834C139.616 40.1699 140.736 40.5132 142.037 40.5132C143.374 40.5132 144.506 40.1699 145.433 39.4834C146.373 38.7968 147.083 37.7851 147.565 36.4482C148.047 35.1113 148.288 33.4733 148.288 31.5341V30.143ZM166.788 17.6953C168.799 17.6953 170.515 17.9964 171.937 18.5986C173.358 19.2008 174.442 20.0921 175.188 21.2724C175.947 22.4528 176.327 23.9041 176.327 25.6264C176.327 26.9513 176.086 28.1136 175.604 29.1133C175.122 30.1129 174.436 30.956 173.544 31.6425C172.665 32.317 171.623 32.841 170.419 33.2143L169.01 33.937H160.681L160.645 30.1972H166.824C167.896 30.1972 168.787 30.0105 169.498 29.6372C170.22 29.2638 170.756 28.7519 171.105 28.1015C171.467 27.4511 171.647 26.7104 171.647 25.8794C171.647 24.5304 171.256 23.4585 170.473 22.6635C169.702 21.8566 168.474 21.4531 166.788 21.4531H162.108V44H157.447V17.6953H166.788ZM166.246 32.2026L171.142 32.1845L177.375 43.7651V44H172.388L166.246 32.2026ZM194.501 37.207C194.501 36.4964 194.351 35.8942 194.05 35.4004C193.761 34.8945 193.213 34.4308 192.406 34.0092C191.599 33.5757 190.437 33.124 188.919 32.6543C187.678 32.2809 186.528 31.8533 185.468 31.3716C184.42 30.8898 183.505 30.3357 182.722 29.7094C181.939 29.0711 181.325 28.3364 180.879 27.5053C180.446 26.6622 180.229 25.6927 180.229 24.5966C180.229 23.1634 180.626 21.9048 181.421 20.8208C182.216 19.7247 183.318 18.8696 184.728 18.2553C186.137 17.6411 187.769 17.334 189.624 17.334C191.599 17.334 193.297 17.6953 194.718 18.4179C196.139 19.1286 197.229 20.0921 197.988 21.3086C198.759 22.525 199.145 23.88 199.145 25.3735H194.483C194.483 24.5424 194.303 23.8017 193.941 23.1513C193.592 22.4889 193.056 21.977 192.333 21.6157C191.611 21.2423 190.689 21.0556 189.569 21.0556C188.521 21.0556 187.648 21.2122 186.95 21.5254C186.251 21.8385 185.733 22.2601 185.396 22.79C185.059 23.32 184.89 23.9222 184.89 24.5966C184.89 25.235 185.095 25.8011 185.504 26.2949C185.914 26.7887 186.534 27.2404 187.365 27.6499C188.196 28.0473 189.232 28.4327 190.473 28.8061C192.424 29.3722 194.044 30.0346 195.333 30.7934C196.621 31.5522 197.579 32.4495 198.205 33.4853C198.843 34.5211 199.163 35.7496 199.163 37.1709C199.163 38.6523 198.777 39.935 198.006 41.019C197.236 42.091 196.146 42.916 194.736 43.4941C193.327 44.0722 191.671 44.3613 189.768 44.3613C188.503 44.3613 187.257 44.1927 186.028 43.8554C184.8 43.5062 183.686 42.9883 182.686 42.3017C181.698 41.6032 180.903 40.7299 180.301 39.6821C179.711 38.6342 179.416 37.3997 179.416 35.9785H184.077C184.077 36.8216 184.222 37.5382 184.511 38.1284C184.8 38.7186 185.203 39.2063 185.721 39.5918C186.239 39.9651 186.841 40.2361 187.528 40.4048C188.226 40.5734 188.973 40.6577 189.768 40.6577C190.816 40.6577 191.689 40.5132 192.388 40.2241C193.086 39.923 193.61 39.5135 193.959 38.9956C194.321 38.4777 194.501 37.8815 194.501 37.207Z" fill="black"/>
</g>
<g filter="url(#filter9_d_15_167)">
<path d="M225.64 10.448H228.088V35H225.64V14.48L219.808 20.24L218.44 18.872L225.64 10.448ZM241.698 9.908C243.234 9.908 244.626 10.328 245.874 11.168C247.146 11.984 248.13 13.136 248.826 14.624C249.546 16.112 249.906 17.792 249.906 19.664C249.906 23.168 249.306 26.12 248.106 28.52C246.93 30.896 245.31 32.672 243.246 33.848C241.206 35 238.89 35.576 236.298 35.576V33.272C239.226 33.272 241.638 32.504 243.534 30.968C245.43 29.432 246.642 27.248 247.17 24.416C246.666 25.304 245.898 25.988 244.866 26.468C243.834 26.948 242.802 27.188 241.77 27.188C240.234 27.188 238.842 26.816 237.594 26.072C236.346 25.328 235.362 24.308 234.642 23.012C233.922 21.692 233.562 20.204 233.562 18.548C233.562 16.892 233.91 15.416 234.606 14.12C235.326 12.8 236.298 11.768 237.522 11.024C238.77 10.28 240.162 9.908 241.698 9.908ZM241.77 24.956C243.522 24.956 244.902 24.392 245.91 23.264C246.942 22.112 247.458 20.672 247.458 18.944C247.458 17.648 247.206 16.484 246.702 15.452C246.198 14.396 245.514 13.58 244.65 13.004C243.786 12.428 242.826 12.14 241.77 12.14C240.69 12.14 239.706 12.416 238.818 12.968C237.954 13.52 237.27 14.288 236.766 15.272C236.262 16.232 236.01 17.324 236.01 18.548C236.01 19.772 236.262 20.876 236.766 21.86C237.27 22.82 237.954 23.576 238.818 24.128C239.706 24.68 240.69 24.956 241.77 24.956ZM262.094 35.576C260.534 35.576 259.118 35.264 257.846 34.64C256.574 34.016 255.566 33.128 254.822 31.976C254.078 30.824 253.706 29.504 253.706 28.016C253.706 26.36 254.126 24.992 254.966 23.912C255.83 22.832 257.066 22.052 258.674 21.572C256.058 20.636 254.75 18.884 254.75 16.316C254.75 14.996 255.074 13.856 255.722 12.896C256.394 11.936 257.282 11.204 258.386 10.7C259.514 10.172 260.738 9.908 262.058 9.908C263.402 9.908 264.626 10.172 265.73 10.7C266.858 11.204 267.746 11.948 268.394 12.932C269.042 13.892 269.366 15.02 269.366 16.316C269.366 18.884 268.07 20.636 265.478 21.572C267.11 22.124 268.334 22.928 269.15 23.984C269.99 25.016 270.41 26.36 270.41 28.016C270.41 29.48 270.05 30.788 269.33 31.94C268.61 33.092 267.614 33.992 266.342 34.64C265.07 35.264 263.654 35.576 262.094 35.576ZM262.094 20.384C263.558 20.384 264.686 20.048 265.478 19.376C266.294 18.704 266.702 17.696 266.702 16.352C266.702 14.984 266.282 13.976 265.442 13.328C264.626 12.656 263.498 12.32 262.058 12.32C260.618 12.32 259.478 12.656 258.638 13.328C257.798 14 257.378 14.996 257.378 16.316C257.378 17.684 257.81 18.704 258.674 19.376C259.538 20.048 260.678 20.384 262.094 20.384ZM262.022 33.164C263.822 33.164 265.226 32.72 266.234 31.832C267.266 30.92 267.782 29.636 267.782 27.98C267.782 26.3 267.278 25.016 266.27 24.128C265.262 23.24 263.858 22.796 262.058 22.796C260.282 22.796 258.878 23.24 257.846 24.128C256.814 25.016 256.298 26.288 256.298 27.944C256.298 29.624 256.802 30.92 257.81 31.832C258.842 32.72 260.246 33.164 262.022 33.164Z" fill="black"/>
<path d="M225.64 10.448V9.448H225.179L224.88 9.79828L225.64 10.448ZM228.088 10.448H229.088V9.448H228.088V10.448ZM228.088 35V36H229.088V35H228.088ZM225.64 35H224.64V36H225.64V35ZM225.64 14.48H226.64V12.0868L224.937 13.7685L225.64 14.48ZM219.808 20.24L219.101 20.9471L219.804 21.6498L220.511 20.9515L219.808 20.24ZM218.44 18.872L217.68 18.2223L217.079 18.9252L217.733 19.5791L218.44 18.872ZM225.64 11.448H228.088V9.448H225.64V11.448ZM227.088 10.448V35H229.088V10.448H227.088ZM228.088 34H225.64V36H228.088V34ZM226.64 35V14.48H224.64V35H226.64ZM224.937 13.7685L219.105 19.5285L220.511 20.9515L226.343 15.1915L224.937 13.7685ZM220.515 19.5329L219.147 18.1649L217.733 19.5791L219.101 20.9471L220.515 19.5329ZM219.2 19.5217L226.4 11.0977L224.88 9.79828L217.68 18.2223L219.2 19.5217ZM245.874 11.168L245.316 11.9976L245.325 12.0037L245.334 12.0097L245.874 11.168ZM248.826 14.624L247.92 15.0477L247.926 15.0596L248.826 14.624ZM248.106 28.52L247.212 28.0728L247.21 28.0764L248.106 28.52ZM243.246 33.848L243.738 34.7188L243.741 34.7169L243.246 33.848ZM236.298 35.576H235.298V36.576H236.298V35.576ZM236.298 33.272V32.272H235.298V33.272H236.298ZM243.534 30.968L244.164 31.745L243.534 30.968ZM247.17 24.416L248.153 24.5993L246.301 23.9224L247.17 24.416ZM244.866 26.468L244.445 25.5613H244.445L244.866 26.468ZM234.642 23.012L233.764 23.4909L233.768 23.4976L234.642 23.012ZM234.606 14.12L233.728 13.6411L233.725 13.6469L234.606 14.12ZM237.522 11.024L237.01 10.165L237.003 10.1695L237.522 11.024ZM245.91 23.264L245.165 22.5968L245.165 22.5977L245.91 23.264ZM246.702 15.452L245.8 15.8827L245.804 15.8908L246.702 15.452ZM244.65 13.004L244.096 13.8361H244.096L244.65 13.004ZM238.818 12.968L238.29 12.1186L238.28 12.1253L238.818 12.968ZM236.766 15.272L237.652 15.7369L237.656 15.7279L236.766 15.272ZM236.766 21.86L235.876 22.3159L235.881 22.3248L236.766 21.86ZM238.818 24.128L238.28 24.9708L238.29 24.9773L238.818 24.128ZM241.698 10.908C243.04 10.908 244.237 11.2711 245.316 11.9976L246.433 10.3384C245.016 9.38487 243.429 8.908 241.698 8.908V10.908ZM245.334 12.0097C246.434 12.7149 247.297 13.7153 247.92 15.0477L249.732 14.2003C248.963 12.5567 247.859 11.2531 246.414 10.3263L245.334 12.0097ZM247.926 15.0596C248.572 16.3948 248.906 17.9228 248.906 19.664H250.906C250.906 17.6612 250.52 15.8292 249.726 14.1884L247.926 15.0596ZM248.906 19.664C248.906 23.0585 248.324 25.8475 247.212 28.0728L249.001 28.9672C250.288 26.3925 250.906 23.2775 250.906 19.664H248.906ZM247.21 28.0764C246.112 30.2954 244.622 31.913 242.751 32.9791L243.741 34.7169C245.998 33.431 247.749 31.4966 249.002 28.9636L247.21 28.0764ZM242.755 32.9772C240.88 34.0358 238.737 34.576 236.298 34.576V36.576C239.044 36.576 241.532 35.9642 243.738 34.7188L242.755 32.9772ZM237.298 35.576V33.272H235.298V35.576H237.298ZM236.298 34.272C239.408 34.272 242.056 33.4526 244.164 31.745L242.905 30.191C241.221 31.5554 239.045 32.272 236.298 32.272V34.272ZM244.164 31.745C246.277 30.0333 247.59 27.6206 248.153 24.5993L246.187 24.2327C245.694 26.8754 244.584 28.8307 242.905 30.191L244.164 31.745ZM246.301 23.9224C245.911 24.6089 245.31 25.1585 244.445 25.5613L245.288 27.3747C246.486 26.8175 247.422 25.9991 248.04 24.9096L246.301 23.9224ZM244.445 25.5613C243.531 25.9862 242.642 26.188 241.77 26.188V28.188C242.962 28.188 244.138 27.9098 245.288 27.3747L244.445 25.5613ZM241.77 26.188C240.404 26.188 239.19 25.8594 238.106 25.2131L237.082 26.9309C238.494 27.7726 240.065 28.188 241.77 28.188V26.188ZM238.106 25.2131C237.013 24.5613 236.153 23.6715 235.516 22.5264L233.768 23.4976C234.572 24.9445 235.679 26.0947 237.082 26.9309L238.106 25.2131ZM235.52 22.5331C234.888 21.3745 234.562 20.054 234.562 18.548H232.562C232.562 20.354 232.956 22.0095 233.764 23.4909L235.52 22.5331ZM234.562 18.548C234.562 17.0361 234.879 15.7262 235.487 14.5931L233.725 13.6469C232.942 15.1058 232.562 16.7479 232.562 18.548H234.562ZM235.484 14.5989C236.124 13.4255 236.976 12.5264 238.042 11.8785L237.003 10.1695C235.621 11.0096 234.528 12.1745 233.728 13.6411L235.484 14.5989ZM238.034 11.8829C239.118 11.2366 240.332 10.908 241.698 10.908V8.908C239.993 8.908 238.422 9.32339 237.01 10.1651L238.034 11.8829ZM241.77 25.956C243.757 25.956 245.427 25.305 246.656 23.9303L245.165 22.5977C244.377 23.479 243.287 23.956 241.77 23.956V25.956ZM246.655 23.9312C247.871 22.5739 248.458 20.8872 248.458 18.944H246.458C246.458 20.4568 246.013 21.6501 245.165 22.5968L246.655 23.9312ZM248.458 18.944C248.458 17.5156 248.18 16.1985 247.601 15.0132L245.804 15.8908C246.233 16.7695 246.458 17.7804 246.458 18.944H248.458ZM247.605 15.0213C247.033 13.8237 246.237 12.8602 245.205 12.1719L244.096 13.8361C244.791 14.2998 245.363 14.9683 245.8 15.8827L247.605 15.0213ZM245.205 12.172C244.174 11.4845 243.02 11.14 241.77 11.14V13.14C242.632 13.14 243.399 13.3715 244.096 13.8361L245.205 12.172ZM241.77 11.14C240.51 11.14 239.342 11.4648 238.29 12.1187L239.346 13.8173C240.07 13.3671 240.87 13.14 241.77 13.14V11.14ZM238.28 12.1253C237.255 12.7802 236.455 13.6871 235.876 14.8161L237.656 15.7279C238.086 14.8889 238.654 14.2598 239.357 13.8107L238.28 12.1253ZM235.881 14.8072C235.292 15.9281 235.01 17.1832 235.01 18.548H237.01C237.01 17.4648 237.232 16.5359 237.652 15.7368L235.881 14.8072ZM235.01 18.548C235.01 19.9133 235.292 21.1762 235.876 22.3159L237.656 21.4041C237.232 20.5758 237.01 19.6307 237.01 18.548H235.01ZM235.881 22.3248C236.461 23.4296 237.261 24.3196 238.28 24.9707L239.357 23.2853C238.648 22.8324 238.08 22.2104 237.652 21.3952L235.881 22.3248ZM238.29 24.9773C239.342 25.6311 240.51 25.956 241.77 25.956V23.956C240.87 23.956 240.07 23.7288 239.346 23.2787L238.29 24.9773ZM254.822 31.976L255.662 31.4335L254.822 31.976ZM254.966 23.912L254.185 23.2872L254.177 23.2981L254.966 23.912ZM258.674 21.572L258.96 22.5302L261.882 21.6579L259.011 20.6305L258.674 21.572ZM255.722 12.896L254.903 12.3225L254.898 12.3295L254.893 12.3365L255.722 12.896ZM258.386 10.7L258.801 11.6097L258.81 11.6057L258.386 10.7ZM265.73 10.7L265.298 11.6021L265.31 11.6077L265.322 11.613L265.73 10.7ZM268.394 12.932L267.559 13.482L267.565 13.4915L268.394 12.932ZM265.478 21.572L265.138 20.6314L262.448 21.6029L265.158 22.5193L265.478 21.572ZM269.15 23.984L268.359 24.5954L268.366 24.6055L268.374 24.6153L269.15 23.984ZM269.33 31.94L270.178 32.47L269.33 31.94ZM266.342 34.64L266.782 35.5378L266.789 35.5345L266.796 35.531L266.342 34.64ZM265.478 19.376L264.842 18.6041L264.837 18.6087L264.831 18.6135L265.478 19.376ZM265.442 13.328L264.806 14.0999L264.819 14.1101L264.831 14.1198L265.442 13.328ZM258.638 13.328L258.013 12.5471L258.013 12.5471L258.638 13.328ZM258.674 19.376L259.288 18.5866L258.674 19.376ZM266.234 31.832L266.895 32.5824L266.896 32.5813L266.234 31.832ZM257.846 24.128L258.498 24.886L257.846 24.128ZM257.81 31.832L257.139 32.5735L257.148 32.5819L257.158 32.59L257.81 31.832ZM262.094 34.576C260.671 34.576 259.408 34.2924 258.286 33.7422L257.406 35.5378C258.828 36.2356 260.397 36.576 262.094 36.576V34.576ZM258.286 33.7422C257.172 33.1954 256.304 32.4278 255.662 31.4335L253.982 32.5185C254.828 33.8282 255.976 34.8366 257.406 35.5378L258.286 33.7422ZM255.662 31.4335C255.031 30.4569 254.706 29.3286 254.706 28.016H252.706C252.706 29.6794 253.125 31.1911 253.982 32.5185L255.662 31.4335ZM254.706 28.016C254.706 26.5342 255.079 25.3958 255.755 24.5259L254.177 23.2981C253.173 24.5882 252.706 26.1858 252.706 28.016H254.706ZM255.747 24.5367C256.459 23.6469 257.505 22.9646 258.96 22.5302L258.388 20.6138C256.627 21.1394 255.201 22.0171 254.185 23.2873L255.747 24.5367ZM259.011 20.6305C257.838 20.2109 257.04 19.6384 256.532 18.9578C256.029 18.2833 255.75 17.4233 255.75 16.316H253.75C253.75 17.7767 254.125 19.0767 254.93 20.1542C255.729 21.2256 256.894 21.9971 258.337 22.5135L259.011 20.6305ZM255.75 16.316C255.75 15.1666 256.029 14.2279 256.551 13.4555L254.893 12.3365C254.118 13.4841 253.75 14.8254 253.75 16.316H255.75ZM256.541 13.4695C257.107 12.6609 257.853 12.0424 258.801 11.6097L257.971 9.79031C256.71 10.3656 255.681 11.2111 254.903 12.3225L256.541 13.4695ZM258.81 11.6057C259.797 11.1435 260.875 10.908 262.058 10.908V8.908C260.6 8.908 259.231 9.20051 257.962 9.79431L258.81 11.6057ZM262.058 10.908C263.267 10.908 264.342 11.1447 265.298 11.6021L266.161 9.79787C264.91 9.19932 263.536 8.908 262.058 8.908V10.908ZM265.322 11.613C266.285 12.0432 267.021 12.6652 267.559 13.482L269.229 12.382C268.471 11.2308 267.431 10.3648 266.138 9.78699L265.322 11.613ZM267.565 13.4915C268.089 14.2669 268.366 15.1948 268.366 16.316H270.366C270.366 14.8452 269.995 13.5171 269.223 12.3725L267.565 13.4915ZM268.366 16.316C268.366 17.4253 268.089 18.2866 267.59 18.9613C267.087 19.6415 266.298 20.2127 265.138 20.6314L265.818 22.5126C267.25 21.9953 268.405 21.2225 269.198 20.1507C269.995 19.0734 270.366 17.7747 270.366 16.316H268.366ZM265.158 22.5193C266.657 23.0264 267.694 23.7349 268.359 24.5954L269.941 23.3726C268.974 22.1211 267.563 21.2216 265.798 20.6247L265.158 22.5193ZM268.374 24.6153C269.037 25.4288 269.41 26.5322 269.41 28.016H271.41C271.41 26.1878 270.943 24.6032 269.926 23.3527L268.374 24.6153ZM269.41 28.016C269.41 29.3077 269.095 30.4293 268.482 31.41L270.178 32.47C271.005 31.1467 271.41 29.6523 271.41 28.016H269.41ZM268.482 31.41C267.863 32.4002 267.007 33.179 265.888 33.749L266.796 35.531C268.221 34.805 269.357 33.7838 270.178 32.47L268.482 31.41ZM265.902 33.7422C264.78 34.2924 263.517 34.576 262.094 34.576V36.576C263.791 36.576 265.36 36.2356 266.782 35.5378L265.902 33.7422ZM262.094 21.384C263.699 21.384 265.091 21.0162 266.125 20.1385L264.831 18.6135C264.281 19.0798 263.417 19.384 262.094 19.384V21.384ZM266.114 20.1479C267.221 19.2364 267.702 17.9069 267.702 16.352H265.702C265.702 17.4851 265.367 18.1716 264.842 18.6041L266.114 20.1479ZM267.702 16.352C267.702 14.772 267.207 13.4263 266.053 12.5362L264.831 14.1198C265.357 14.5257 265.702 15.196 265.702 16.352H267.702ZM266.078 12.5561C265.027 11.6909 263.646 11.32 262.058 11.32V13.32C263.35 13.32 264.225 13.621 264.806 14.0999L266.078 12.5561ZM262.058 11.32C260.468 11.32 259.082 11.6917 258.013 12.5471L259.263 14.1089C259.873 13.6203 260.768 13.32 262.058 13.32V11.32ZM258.013 12.5471C256.882 13.4518 256.378 14.7683 256.378 16.316H258.378C258.378 15.2237 258.714 14.5482 259.263 14.1089L258.013 12.5471ZM256.378 16.316C256.378 17.9076 256.892 19.2572 258.06 20.1654L259.288 18.5866C258.727 18.1508 258.378 17.4604 258.378 16.316H256.378ZM258.06 20.1654C259.145 21.0094 260.521 21.384 262.094 21.384V19.384C260.834 19.384 259.931 19.0866 259.288 18.5866L258.06 20.1654ZM262.022 34.164C263.982 34.164 265.65 33.6791 266.895 32.5824L265.573 31.0816C264.802 31.7609 263.662 32.164 262.022 32.164V34.164ZM266.896 32.5813C268.186 31.4413 268.782 29.8593 268.782 27.98H266.782C266.782 29.4127 266.346 30.3987 265.572 31.0827L266.896 32.5813ZM268.782 27.98C268.782 26.0904 268.207 24.5014 266.931 23.3776L265.609 24.8784C266.349 25.5306 266.782 26.5096 266.782 27.98H268.782ZM266.931 23.3776C265.686 22.2809 264.018 21.796 262.058 21.796V23.796C263.698 23.796 264.838 24.1991 265.609 24.8784L266.931 23.3776ZM262.058 21.796C260.117 21.796 258.456 22.2834 257.194 23.37L258.498 24.886C259.299 24.1966 260.447 23.796 262.058 23.796V21.796ZM257.194 23.37C255.894 24.4887 255.298 26.0656 255.298 27.944H257.298C257.298 26.5104 257.734 25.5433 258.498 24.886L257.194 23.37ZM255.298 27.944C255.298 29.8347 255.874 31.4286 257.139 32.5735L258.481 31.0905C257.73 30.4114 257.298 29.4132 257.298 27.944H255.298ZM257.158 32.59C258.42 33.6766 260.081 34.164 262.022 34.164V32.164C260.411 32.164 259.263 31.7634 258.462 31.074L257.158 32.59Z" fill="black"/>
</g>
</g>
<defs>
<filter id="filter0_d_15_167" x="0" y="0" width="298" height="67" filterUnits="userSpaceOnUse" color-interpolation-filters="sRGB">
<feFlood flood-opacity="0" result="BackgroundImageFix"/>
<feColorMatrix in="SourceAlpha" type="matrix" values="0 0 0 0 0 0 0 0 0 0 0 0 0 0 0 0 0 0 127 0" result="hardAlpha"/>
<feOffset dy="2"/>
<feGaussianBlur stdDeviation="1"/>
<feComposite in2="hardAlpha" operator="out"/>
<feColorMatrix type="matrix" values="0 0 0 0 0 0 0 0 0 0 0 0 0 0 0 0 0 0 0.25 0"/>
<feBlend mode="normal" in2="BackgroundImageFix" result="effect1_dropShadow_15_167"/>
<feBlend mode="normal" in="SourceGraphic" in2="effect1_dropShadow_15_167" result="shape"/>
</filter>
<filter id="filter1_d_15_167" x="264" y="39" width="30" height="21" filterUnits="userSpaceOnUse" color-interpolation-filters="sRGB">
<feFlood flood-opacity="0" result="BackgroundImageFix"/>
<feColorMatrix in="SourceAlpha" type="matrix" values="0 0 0 0 0 0 0 0 0 0 0 0 0 0 0 0 0 0 127 0" result="hardAlpha"/>
<feOffset dx="2" dy="2"/>
<feGaussianBlur stdDeviation="1.5"/>
<feComposite in2="hardAlpha" operator="out"/>
<feColorMatrix type="matrix" values="0 0 0 0 0 0 0 0 0 0 0 0 0 0 0 0 0 0 0.25 0"/>
<feBlend mode="normal" in2="BackgroundImageFix" result="effect1_dropShadow_15_167"/>
<feBlend mode="normal" in="SourceGraphic" in2="effect1_dropShadow_15_167" result="shape"/>
</filter>
<filter id="filter2_d_15_167" x="264" y="44" width="30" height="11" filterUnits="userSpaceOnUse" color-interpolation-filters="sRGB">
<feFlood flood-opacity="0" result="BackgroundImageFix"/>
<feColorMatrix in="SourceAlpha" type="matrix" values="0 0 0 0 0 0 0 0 0 0 0 0 0 0 0 0 0 0 127 0" result="hardAlpha"/>
<feOffset dx="2" dy="2"/>
<feGaussianBlur stdDeviation="1.5"/>
<feComposite in2="hardAlpha" operator="out"/>
<feColorMatrix type="matrix" values="0 0 0 0 0 0 0 0 0 0 0 0 0 0 0 0 0 0 0.25 0"/>
<feBlend mode="normal" in2="BackgroundImageFix" result="effect1_dropShadow_15_167"/>
<feBlend mode="normal" in="SourceGraphic" in2="effect1_dropShadow_15_167" result="shape"/>
</filter>
<filter id="filter3_d_15_167" x="264" y="49" width="30" height="11" filterUnits="userSpaceOnUse" color-interpolation-filters="sRGB">
<feFlood flood-opacity="0" result="BackgroundImageFix"/>
<feColorMatrix in="SourceAlpha" type="matrix" values="0 0 0 0 0 0 0 0 0 0 0 0 0 0 0 0 0 0 127 0" result="hardAlpha"/>
<feOffset dx="2" dy="2"/>
<feGaussianBlur stdDeviation="1.5"/>
<feComposite in2="hardAlpha" operator="out"/>
<feColorMatrix type="matrix" values="0 0 0 0 0 0 0 0 0 0 0 0 0 0 0 0 0 0 0.25 0"/>
<feBlend mode="normal" in2="BackgroundImageFix" result="effect1_dropShadow_15_167"/>
<feBlend mode="normal" in="SourceGraphic" in2="effect1_dropShadow_15_167" result="shape"/>
</filter>
<filter id="filter4_d_15_167" x="281" y="28" width="13" height="13" filterUnits="userSpaceOnUse" color-interpolation-filters="sRGB">
<feFlood flood-opacity="0" result="BackgroundImageFix"/>
<feColorMatrix in="SourceAlpha" type="matrix" values="0 0 0 0 0 0 0 0 0 0 0 0 0 0 0 0 0 0 127 0" result="hardAlpha"/>
<feOffset dx="2" dy="2"/>
<feGaussianBlur stdDeviation="1.5"/>
<feComposite in2="hardAlpha" operator="out"/>
<feColorMatrix type="matrix" values="0 0 0 0 0 0 0 0 0 0 0 0 0 0 0 0 0 0 0.25 0"/>
<feBlend mode="normal" in2="BackgroundImageFix" result="effect1_dropShadow_15_167"/>
<feBlend mode="normal" in="SourceGraphic" in2="effect1_dropShadow_15_167" result="shape"/>
</filter>
<filter id="filter5_d_15_167" x="6" y="28" width="13" height="13" filterUnits="userSpaceOnUse" color-interpolation-filters="sRGB">
<feFlood flood-opacity="0" result="BackgroundImageFix"/>
<feColorMatrix in="SourceAlpha" type="matrix" values="0 0 0 0 0 0 0 0 0 0 0 0 0 0 0 0 0 0 127 0" result="hardAlpha"/>
<feOffset dx="2" dy="2"/>
<feGaussianBlur stdDeviation="1.5"/>
<feComposite in2="hardAlpha" operator="out"/>
<feColorMatrix type="matrix" values="0 0 0 0 0 0 0 0 0 0 0 0 0 0 0 0 0 0 0.25 0"/>
<feBlend mode="normal" in2="BackgroundImageFix" result="effect1_dropShadow_15_167"/>
<feBlend mode="normal" in="SourceGraphic" in2="effect1_dropShadow_15_167" result="shape"/>
</filter>
<filter id="filter6_d_15_167" x="224.426" y="39.5859" width="41.6348" height="20.6094" filterUnits="userSpaceOnUse" color-interpolation-filters="sRGB">
<feFlood flood-opacity="0" result="BackgroundImageFix"/>
<feColorMatrix in="SourceAlpha" type="matrix" values="0 0 0 0 0 0 0 0 0 0 0 0 0 0 0 0 0 0 127 0" result="hardAlpha"/>
<feOffset dx="2" dy="2"/>
<feGaussianBlur stdDeviation="1.5"/>
<feComposite in2="hardAlpha" operator="out"/>
<feColorMatrix type="matrix" values="0 0 0 0 0 0 0 0 0 0 0 0 0 0 0 0 0 0 0.25 0"/>
<feBlend mode="normal" in2="BackgroundImageFix" result="effect1_dropShadow_15_167"/>
<feBlend mode="normal" in="SourceGraphic" in2="effect1_dropShadow_15_167" result="shape"/>
</filter>
<filter id="filter7_d_15_167" x="206" y="0" width="7" height="64" filterUnits="userSpaceOnUse" color-interpolation-filters="sRGB">
<feFlood flood-opacity="0" result="BackgroundImageFix"/>
<feColorMatrix in="SourceAlpha" type="matrix" values="0 0 0 0 0 0 0 0 0 0 0 0 0 0 0 0 0 0 127 0" result="hardAlpha"/>
<feOffset dx="2" dy="2"/>
<feGaussianBlur stdDeviation="1.5"/>
<feComposite in2="hardAlpha" operator="out"/>
<feColorMatrix type="matrix" values="0 0 0 0 0 0 0 0 0 0 0 0 0 0 0 0 0 0 0.25 0"/>
<feBlend mode="normal" in2="BackgroundImageFix" result="effect1_dropShadow_15_167"/>
<feBlend mode="normal" in="SourceGraphic" in2="effect1_dropShadow_15_167" result="shape"/>
</filter>
<filter id="filter8_d_15_167" x="15.6377" y="16.334" width="188.525" height="33.0273" filterUnits="userSpaceOnUse" color-interpolation-filters="sRGB">
<feFlood flood-opacity="0" result="BackgroundImageFix"/>
<feColorMatrix in="SourceAlpha" type="matrix" values="0 0 0 0 0 0 0 0 0 0 0 0 0 0 0 0 0 0 127 0" result="hardAlpha"/>
<feOffset dx="2" dy="2"/>
<feGaussianBlur stdDeviation="1.5"/>
<feComposite in2="hardAlpha" operator="out"/>
<feColorMatrix type="matrix" values="0 0 0 0 0 0 0 0 0 0 0 0 0 0 0 0 0 0 0.25 0"/>
<feBlend mode="normal" in2="BackgroundImageFix" result="effect1_dropShadow_15_167"/>
<feBlend mode="normal" in="SourceGraphic" in2="effect1_dropShadow_15_167" result="shape"/>
</filter>
<filter id="filter9_d_15_167" x="217.44" y="8.90799" width="57.9699" height="31.668" filterUnits="userSpaceOnUse" color-interpolation-filters="sRGB">
<feFlood flood-opacity="0" result="BackgroundImageFix"/>
<feColorMatrix in="SourceAlpha" type="matrix" values="0 0 0 0 0 0 0 0 0 0 0 0 0 0 0 0 0 0 127 0" result="hardAlpha"/>
<feOffset dx="2" dy="2"/>
<feGaussianBlur stdDeviation="1.5"/>
<feComposite in2="hardAlpha" operator="out"/>
<feColorMatrix type="matrix" values="0 0 0 0 0 0 0 0 0 0 0 0 0 0 0 0 0 0 0.25 0"/>
<feBlend mode="normal" in2="BackgroundImageFix" result="effect1_dropShadow_15_167"/>
<feBlend mode="normal" in="SourceGraphic" in2="effect1_dropShadow_15_167" result="shape"/>
</filter>
</defs>
</svg>
