<?xml version="1.0" encoding="UTF-8" standalone="no"?>
<!DOCTYPE svg PUBLIC "-//W3C//DTD SVG 1.1//EN" "http://www.w3.org/Graphics/SVG/1.1/DTD/svg11.dtd">
<!-- Created with Vectornator (http://vectornator.io/) -->
<svg height="100%" stroke-miterlimit="10" style="fill-rule:nonzero;clip-rule:evenodd;stroke-linecap:round;stroke-linejoin:round;" version="1.1" viewBox="0 0 164 164" width="100%" xml:space="preserve" xmlns="http://www.w3.org/2000/svg" xmlns:vectornator="http://vectornator.io" xmlns:xlink="http://www.w3.org/1999/xlink">
<defs/>
<g id="Слой-1" vectornator:layerName="Слой 1">
<path d="M52.0059 83.0651C52.5265 76.6094 58.1819 71.798 64.6377 72.3185C71.0934 72.8391 75.9048 78.4945 75.3843 84.9503C74.8637 91.406 69.2083 96.2174 62.7525 95.6969C56.2968 95.1763 51.4854 89.5209 52.0059 83.0651Z" fill="#000000" fill-opacity="0" fill-rule="nonzero" opacity="1" stroke="#000000" stroke-linecap="butt" stroke-linejoin="round" stroke-width="3.01522"/>
<path d="M27.481 82.4609C28.0015 76.0051 33.6569 71.1937 40.1127 71.7143C46.5684 72.2349 51.3798 77.8903 50.8593 84.346C50.3387 90.8018 44.6833 95.6132 38.2276 95.0926C31.7718 94.572 26.9604 88.9166 27.481 82.4609Z" fill="#000000" fill-opacity="0" fill-rule="nonzero" opacity="1" stroke="#000000" stroke-linecap="butt" stroke-linejoin="round" stroke-width="3.01522"/>
<path d="M39.0737 104.058C39.5943 97.6021 45.2497 92.7907 51.7055 93.3113C58.1612 93.8318 62.9726 99.4873 62.452 105.943C61.9315 112.399 56.2761 117.21 49.8203 116.69C43.3646 116.169 38.5532 110.514 39.0737 104.058Z" fill="#000000" fill-opacity="0" fill-rule="nonzero" opacity="1" stroke="#000000" stroke-linecap="butt" stroke-linejoin="round" stroke-width="3.01522"/>
<path d="M75.929 83.1654C76.4496 76.7096 82.105 71.8982 88.5608 72.4188C95.0165 72.9393 99.8279 78.5947 99.3074 85.0505C99.0919 87.7227 97.9966 90.1132 96.329 91.9604C93.9678 94.5758 90.4592 96.1022 86.6756 95.7971C80.2199 95.2765 75.4085 89.6211 75.929 83.1654Z" fill="#000000" fill-opacity="0" fill-rule="nonzero" opacity="1" stroke="#000000" stroke-linecap="butt" stroke-linejoin="round" stroke-width="3.01522"/>
<path d="M100.014 83.343C100.535 76.8873 106.19 72.0759 112.646 72.5964C119.102 73.117 123.913 78.7724 123.393 85.2281C123.177 87.9004 122.082 90.2908 120.414 92.1381C118.053 94.7535 114.545 96.2798 110.761 95.9747C104.305 95.4542 99.4939 89.7988 100.014 83.343Z" fill="#000000" fill-opacity="0" fill-rule="nonzero" opacity="1" stroke="#000000" stroke-linecap="butt" stroke-linejoin="round" stroke-width="3.01522"/>
<path d="M73.8056 125.887C74.3262 119.431 79.9816 114.62 86.4373 115.14C92.8931 115.661 97.7045 121.316 97.1839 127.772C96.9685 130.444 95.8732 132.835 94.2055 134.682C91.8444 137.297 88.3357 138.824 84.5522 138.519C78.0965 137.998 73.2851 132.343 73.8056 125.887Z" fill="#000000" fill-opacity="0" fill-rule="nonzero" opacity="1" stroke="#000000" stroke-linecap="butt" stroke-linejoin="round" stroke-width="3.01522"/>
<path d="M97.4173 125.599C97.9379 119.143 103.593 114.332 110.049 114.852C116.505 115.373 121.316 121.028 120.796 127.484C120.58 130.156 119.485 132.547 117.817 134.394C115.456 137.009 111.947 138.536 108.164 138.231C101.708 137.71 96.8968 132.055 97.4173 125.599Z" fill="#000000" fill-opacity="0" fill-rule="nonzero" opacity="1" stroke="#000000" stroke-linecap="butt" stroke-linejoin="round" stroke-width="3.01522"/>
<path d="M123.501 83.7589C124.022 77.3031 129.677 72.4917 136.133 73.0123C142.589 73.5328 147.4 79.1882 146.88 85.644C146.664 88.3162 145.569 90.7067 143.901 92.5539C141.54 95.1693 138.031 96.6957 134.248 96.3906C127.792 95.87 122.981 90.2146 123.501 83.7589Z" fill="#000000" fill-opacity="0" fill-rule="nonzero" opacity="1" stroke="#000000" stroke-linecap="butt" stroke-linejoin="round" stroke-width="3.01522"/>
<path d="M88.3089 62.7874C88.8295 56.3316 94.4849 51.5202 100.941 52.0408C107.396 52.5614 112.208 58.2168 111.687 64.6725C111.472 67.3447 110.377 69.7352 108.709 71.5824C106.348 74.1979 102.839 75.7242 99.0555 75.4191C92.5998 74.8985 87.7884 69.2431 88.3089 62.7874Z" fill="#000000" fill-opacity="0" fill-rule="nonzero" opacity="1" stroke="#000000" stroke-linecap="butt" stroke-linejoin="round" stroke-width="3.01522"/>
<path d="M40.3866 61.5294C40.9072 55.0737 46.5626 50.2623 53.0183 50.7828C59.4741 51.3034 64.2855 56.9588 63.7649 63.4146C63.5494 66.0868 62.4542 68.4773 60.7865 70.3245C58.4254 72.9399 54.9167 74.4662 51.1332 74.1612C44.6775 73.6406 39.866 67.9852 40.3866 61.5294Z" fill="#000000" fill-opacity="0" fill-rule="nonzero" opacity="1" stroke="#000000" stroke-linecap="butt" stroke-linejoin="round" stroke-width="3.01522"/>
<path d="M112.402 62.7269C112.923 56.2712 118.578 51.4597 125.034 51.9803C131.49 52.5009 136.301 58.1563 135.781 64.612C135.565 67.2842 134.47 69.6747 132.802 71.5219C130.441 74.1374 126.933 75.6637 123.149 75.3586C116.693 74.8381 111.882 69.1826 112.402 62.7269Z" fill="#000000" fill-opacity="0" fill-rule="nonzero" opacity="1" stroke="#000000" stroke-linecap="butt" stroke-linejoin="round" stroke-width="3.01522"/>
<path d="M63.7552 62.1874C64.2757 55.7316 69.9312 50.9202 76.3869 51.4408C82.8426 51.9614 87.6541 57.6168 87.1335 64.0725C86.918 66.7447 85.8228 69.1352 84.1551 70.9824C81.7939 73.5979 78.2853 75.1242 74.5018 74.8191C68.046 74.2985 63.2346 68.6431 63.7552 62.1874Z" fill="#000000" fill-opacity="0" fill-rule="nonzero" opacity="1" stroke="#000000" stroke-linecap="butt" stroke-linejoin="round" stroke-width="3.01522"/>
<path d="M61.7463 146.643C62.2668 140.187 67.9222 135.376 74.378 135.896C80.8337 136.417 85.6451 142.072 85.1246 148.528C84.9091 151.2 83.8138 153.591 82.1462 155.438C79.785 158.053 76.2764 159.58 72.4928 159.275C66.0371 158.754 61.2257 153.099 61.7463 146.643Z" fill="#000000" fill-opacity="0" fill-rule="nonzero" opacity="1" stroke="#000000" stroke-linecap="butt" stroke-linejoin="round" stroke-width="3.01522"/>
<path d="M86.4329 104.849C86.9535 98.3932 92.6089 93.5818 99.0646 94.1024C105.52 94.6229 110.332 100.278 109.811 106.734C109.596 109.406 108.5 111.797 106.833 113.644C104.472 116.259 100.963 117.786 97.1795 117.481C90.7238 116.96 85.9124 111.305 86.4329 104.849Z" fill="#000000" fill-opacity="0" fill-rule="nonzero" opacity="1" stroke="#000000" stroke-linecap="butt" stroke-linejoin="round" stroke-width="3.01522"/>
<path d="M85.8866 146.607C86.4072 140.151 92.0626 135.339 98.5183 135.86C104.974 136.381 109.785 142.036 109.265 148.492C109.049 151.164 107.954 153.554 106.287 155.402C103.925 158.017 100.417 159.543 96.6332 159.238C90.1775 158.718 85.3661 153.062 85.8866 146.607Z" fill="#000000" fill-opacity="0" fill-rule="nonzero" opacity="1" stroke="#000000" stroke-linecap="butt" stroke-linejoin="round" stroke-width="3.01522"/>
<path d="M110.873 105.816C111.393 99.36 117.049 94.5486 123.505 95.0691C129.96 95.5897 134.772 101.245 134.251 107.701C134.036 110.373 132.94 112.764 131.273 114.611C128.912 117.226 125.403 118.753 121.619 118.447C115.164 117.927 110.352 112.271 110.873 105.816Z" fill="#000000" fill-opacity="0" fill-rule="nonzero" opacity="1" stroke="#000000" stroke-linecap="butt" stroke-linejoin="round" stroke-width="3.01522"/>
<path d="M62.8043 104.495C63.3249 98.039 68.9803 93.2276 75.436 93.7482C81.8918 94.2687 86.7032 99.9242 86.1826 106.38C85.9671 109.052 84.8719 111.443 83.2042 113.29C80.843 115.905 77.3344 117.432 73.5509 117.126C67.0952 116.606 62.2837 110.951 62.8043 104.495Z" fill="#000000" fill-opacity="0" fill-rule="nonzero" opacity="1" stroke="#000000" stroke-linecap="butt" stroke-linejoin="round" stroke-width="3.01522"/>
<path d="M50.1292 125.596C50.6497 119.14 56.3052 114.329 62.7609 114.849C69.2166 115.37 74.0281 121.025 73.5075 127.481C73.292 130.153 72.1967 132.544 70.5291 134.391C68.1679 137.006 64.6593 138.533 60.8758 138.228C54.42 137.707 49.6086 132.052 50.1292 125.596Z" fill="#000000" fill-opacity="0" fill-rule="nonzero" opacity="1" stroke="#000000" stroke-linecap="butt" stroke-linejoin="round" stroke-width="3.01522"/>
<path d="M72.1621 20.0741L64.6681 56.452C64.6681 56.452 45.1766 32.5517 72.1621 20.0741Z" fill="none" opacity="1" stroke="#000000" stroke-linecap="butt" stroke-linejoin="round" stroke-width="3.01522"/>
<path d="M66.9528 52.493L81.4887 18.3139C81.4887 18.3139 95.872 45.595 66.9528 52.493Z" fill="none" opacity="1" stroke="#000000" stroke-linecap="butt" stroke-linejoin="round" stroke-width="3.01522"/>
<path d="M95.6297 51.0797L116.282 20.2089C116.282 20.2089 125.328 49.6929 95.6297 51.0797Z" fill="none" opacity="1" stroke="#000000" stroke-linecap="butt" stroke-linejoin="round" stroke-width="3.01522"/>
<path d="M105.685 51.5723L122.396 38.3064L134.775 28.4794C134.775 28.4794 134.389 59.3175 105.685 51.5723Z" fill="none" opacity="1" stroke="#000000" stroke-linecap="butt" stroke-linejoin="round" stroke-width="3.01522"/>
<path d="M80.2581 51.6192L88.7379 41.4831L102.09 5.0597L110.456 7.16481L93.7868 53.0501L87.2964 57.2165L80.2581 51.6192Z" fill="none" opacity="1" stroke="#000000" stroke-linecap="butt" stroke-linejoin="round" stroke-width="3.01522"/>
<path d="M45.8391 19.8365L61.8922 53.3298C61.8922 53.3298 53.7631 51.3702 47.9372 45.7835C42.5745 40.6411 39.1632 32.4255 45.8391 19.8365Z" fill="none" opacity="1" stroke="#000000" stroke-linecap="butt" stroke-linejoin="round" stroke-width="3.01522"/>
<path d="M110.157 54.2101C109.874 53.6445 110.603 54.5847 110.676 54.6425C111.211 55.071 111.902 55.106 112.232 55.7667C112.302 55.9056 112.544 56.1297 112.405 56.1991C111.858 56.4727 111.2 54.5234 111.281 54.4695C111.438 54.3649 113.962 54.7781 113.962 54.8155C113.962 55.0359 112.55 56.2276 112.319 56.4586" fill="none" opacity="1" stroke="#000000" stroke-linecap="round" stroke-linejoin="round" stroke-width="3.01522"/>
<path d="M111.713 56.718C111.322 56.9135 111.753 59.2184 112.059 59.8313" fill="none" opacity="1" stroke="#000000" stroke-linecap="round" stroke-linejoin="round" stroke-width="3.01522"/>
<path d="M112.319 61.4745C112.03 61.3303 112.154 62.1035 112.146 62.4257C112.125 63.262 112.083 64.0975 112.059 64.9337C112.016 66.4876 111.975 68.9071 111.281 70.2954" fill="none" opacity="1" stroke="#000000" stroke-linecap="round" stroke-linejoin="round" stroke-width="3.01522"/>
<path d="M112.06 70.4536C111.537 70.2834 111.768 70.3253 112.524 70.9872" fill="none" opacity="1" stroke="#000000" stroke-linecap="round" stroke-linejoin="round" stroke-width="3.01522"/>
<path d="M125.492 77.1826C125.094 76.9351 124.691 76.5748 124.223 76.5782C124.026 76.5796 127.306 78.3098 125.492 77.1826Z" fill="none" opacity="1" stroke="#000000" stroke-linecap="round" stroke-linejoin="round" stroke-width="3.01522"/>
<path d="M123.767 77.1951C123.869 77.8758 124.265 78.4793 124.548 79.1069" fill="none" opacity="1" stroke="#000000" stroke-linecap="round" stroke-linejoin="round" stroke-width="3.01522"/>
<path d="M124.011 92.3221C123.707 92.2442 123.383 92.2451 123.071 92.2714C121.942 92.3664 124.947 92.562 124.011 92.3221Z" fill="none" opacity="1" stroke="#000000" stroke-linecap="round" stroke-linejoin="round" stroke-width="3.01522"/>
<path d="M124.325 90.7667C123.965 90.7693 120.896 92.7395 121.124 93.551C121.24 93.965 123.362 93.4965 123.693 93.4941" fill="none" opacity="1" stroke="#000000" stroke-linecap="round" stroke-linejoin="round" stroke-width="3.01522"/>
<path d="M124.567 92.3756C124.132 92.2341 124.889 93.2532 125.189 93.5983C125.451 93.8987 125.781 94.1309 126.077 94.3972" fill="none" opacity="1" stroke="#000000" stroke-linecap="round" stroke-linejoin="round" stroke-width="3.01522"/>
<path d="M110.838 97.7288C110.236 99.0423 112.727 98.575 113.834 98.3207C113.893 98.3071 114.429 98.2661 114.408 98.1248C114.39 98.0049 114.177 98.0497 114.062 98.0122C112.759 97.5886 111.195 98.3549 109.766 97.8899C109.689 97.8649 109.536 97.8957 109.535 97.8149C109.529 97.0144 110.919 97.5528 110.838 97.7288Z" fill="none" opacity="1" stroke="#000000" stroke-linecap="round" stroke-linejoin="round" stroke-width="3.01522"/>
<path d="M111.19 100.435L111.028 100.435L111.19 100.435L111.434 100.354L111.434 100.354" fill="none" opacity="1" stroke="#000000" stroke-linecap="round" stroke-linejoin="round" stroke-width="3.01522"/>
<path d="M110.216 112.612L110.054 112.693L109.972 112.856L110.135 112.774L110.135 112.774" fill="none" opacity="1" stroke="#000000" stroke-linecap="round" stroke-linejoin="round" stroke-width="3.01522"/>
<path d="M110.378 112.369C110.378 111.979 110.348 112.2 110.541 111.719" fill="none" opacity="1" stroke="#000000" stroke-linecap="round" stroke-linejoin="round" stroke-width="3.01522"/>
<path d="M109.688 98C109.552 98.0807 109.308 97.9816 109.242 97.8376C108.496 96.2101 110.443 97.5526 109.688 98Z" fill="none" opacity="1" stroke="#000000" stroke-linecap="round" stroke-linejoin="round" stroke-width="3.01522"/>
<path d="M108.268 96.0517C107.982 97.1925 109.408 98.0706 110.054 98.9741" fill="none" opacity="1" stroke="#000000" stroke-linecap="round" stroke-linejoin="round" stroke-width="3.01522"/>
<path d="M98.3639 91.9928C98.8338 91.7578 99.0131 91.1593 99.2568 90.6939C99.7943 89.6679 97.7265 91.2282 98.2827 92.1551C98.6932 92.8393 100.984 90.517 100.393 90.3692C99.843 90.2316 99.332 92.4799 101.286 92.4799" fill="none" opacity="1" stroke="#000000" stroke-linecap="round" stroke-linejoin="round" stroke-width="3.01522"/>
<path d="M100.069 77.746C99.4738 78.216 99.9127 77.9833 99.5816 77.056C99.5233 76.8928 99.3306 76.6538 99.1757 76.7313C98.8183 76.91 100.113 76.9177 100.231 77.2995C100.278 77.4509 100.193 77.6478 100.069 77.746Z" fill="none" opacity="1" stroke="#000000" stroke-linecap="round" stroke-linejoin="round" stroke-width="3.01522"/>
<path d="M99.9063 77.949L99.7439 77.949L100.231 77.7866L100.475 77.7054L100.475 77.7054" fill="none" opacity="1" stroke="#000000" stroke-linecap="round" stroke-linejoin="round" stroke-width="3.01522"/>
<path d="M86.4574 69.7256C86.4147 69.7256 85.4509 69.7621 85.5908 69.5523C85.6008 69.5374 86.9753 69.2933 87.1506 69.2056C87.3944 69.0838 87.8439 68.4999 87.8439 68.7724C87.8439 69.5595 87.6295 69.8168 88.0172 70.5921" fill="none" opacity="1" stroke="#000000" stroke-linecap="round" stroke-linejoin="round" stroke-width="3.01522"/>
<path d="M62.1787 70.1692C62.3628 69.801 62.7383 69.5652 63.0094 69.2554C64.3236 67.7534 62.6705 69.4183 63.8401 70.0031" fill="none" opacity="1" stroke="#000000" stroke-linecap="round" stroke-linejoin="round" stroke-width="3.01522"/>
<path d="M74.8056 76.3996C75.2521 76.6229 75.6413 76.9462 76.0517 77.2304" fill="none" opacity="1" stroke="#000000" stroke-linecap="round" stroke-linejoin="round" stroke-width="3.01522"/>
<path d="M75.3871 77.3965C74.1493 77.3965 76.3342 76.5076 76.7163 76.3166" fill="none" opacity="1" stroke="#000000" stroke-linecap="round" stroke-linejoin="round" stroke-width="3.01522"/>
<path d="M51.5454 76.5658C51.7952 76.5433 52.0552 76.5696 52.2931 76.6489C53.7559 77.1365 49.1662 76.7799 51.5454 76.5658Z" fill="none" opacity="1" stroke="#000000" stroke-linecap="round" stroke-linejoin="round" stroke-width="3.01522"/>
<path d="M51.9608 76.815C51.3781 77.1064 52.6565 78.2415 52.7915 78.3934" fill="none" opacity="1" stroke="#000000" stroke-linecap="round" stroke-linejoin="round" stroke-width="3.01522"/>
<path d="M51.5454 76.3166L51.4623 76.4827L51.2131 76.8981L51.5454 76.8981L51.5454 76.8981" fill="none" opacity="1" stroke="#000000" stroke-linecap="round" stroke-linejoin="round" stroke-width="3.01522"/>
<path d="M50.7867 89.2713C50.9548 88.9351 50.9993 90.8603 51.2588 90.6873C51.4291 90.5738 51.6302 89.0353 51.3768 89.0353C50.9932 89.0353 50.8855 90.4513 51.3178 90.4513" fill="none" opacity="1" stroke="#000000" stroke-linecap="round" stroke-linejoin="round" stroke-width="3.01522"/>
<path d="M50.0197 91.2774C50.5063 91.0341 51.2299 91.4246 51.8488 91.2184" fill="none" opacity="1" stroke="#000000" stroke-linecap="round" stroke-linejoin="round" stroke-width="3.01522"/>
<path d="M49.5477 91.5724C48.8105 91.3881 51.2471 91.1594 51.6128 91.1594" fill="none" opacity="1" stroke="#000000" stroke-linecap="round" stroke-linejoin="round" stroke-width="3.01522"/>
<path d="M62.174 97.5315L61.938 97.5315L61.997 97.7675L63.0437 98.8605L64.2984 97.1621L64.8779 97.325L65.5328 95.9393L66.0603 95.8971" fill="none" opacity="1" stroke="#000000" stroke-linecap="round" stroke-linejoin="round" stroke-width="3.01522"/>
<path d="M74.2103 91.9854C74.8791 91.7624 75.4367 91.2892 76.0393 90.9233" fill="none" opacity="1" stroke="#000000" stroke-linecap="round" stroke-linejoin="round" stroke-width="3.01522"/>
<path d="M75.9803 92.1624C76.6006 91.9556 77.2825 92.2909 77.9274 92.3984" fill="none" opacity="1" stroke="#000000" stroke-linecap="round" stroke-linejoin="round" stroke-width="3.01522"/>
<path d="M85.3026 97.3545C85.9938 97.7001 86.7949 97.7571 87.5446 97.9445" fill="none" opacity="1" stroke="#000000" stroke-linecap="round" stroke-linejoin="round" stroke-width="3.01522"/>
<path d="M86.0106 98.3575C86.0106 98.9207 86.6388 99.1894 87.0726 99.4785" fill="none" opacity="1" stroke="#000000" stroke-linecap="round" stroke-linejoin="round" stroke-width="3.01522"/>
<path d="M85.0666 113.698C85.4295 112.972 85.8963 112.294 86.5416 111.81" fill="none" opacity="1" stroke="#000000" stroke-linecap="round" stroke-linejoin="round" stroke-width="3.01522"/>
<path d="M86.1876 112.695C85.5816 112.695 87.552 113.972 87.8986 114.111" fill="none" opacity="1" stroke="#000000" stroke-linecap="round" stroke-linejoin="round" stroke-width="3.01522"/>
<path d="M61.525 113.993C61.3775 113.256 62.2029 113.069 62.764 112.695" fill="none" opacity="1" stroke="#000000" stroke-linecap="round" stroke-linejoin="round" stroke-width="3.01522"/>
<path d="M62.2754 110.584C62.2754 110.854 62.2442 110.705 62.4439 111.005" fill="none" opacity="1" stroke="#000000" stroke-linecap="round" stroke-linejoin="round" stroke-width="3.01522"/>
<path d="M71.5466 117.916C72.506 118.236 73.177 119.117 73.8223 119.855" fill="none" opacity="1" stroke="#000000" stroke-linecap="round" stroke-linejoin="round" stroke-width="3.01522"/>
<path d="M73.6537 120.024C74.0201 119.291 74.7265 119.021 75.4237 118.759" fill="none" opacity="1" stroke="#000000" stroke-linecap="round" stroke-linejoin="round" stroke-width="3.01522"/>
<path d="M96.1577 118.338C96.0721 118.167 97.792 120.427 97.9276 120.698" fill="none" opacity="1" stroke="#000000" stroke-linecap="round" stroke-linejoin="round" stroke-width="3.01522"/>
<path d="M97.4219 120.108C97.4219 119.431 98.2769 119.053 98.7705 118.591" fill="none" opacity="1" stroke="#000000" stroke-linecap="round" stroke-linejoin="round" stroke-width="3.01522"/>
<path d="M96.6634 132.75C97.2938 130.859 97.0848 134.683 97.0848 134.689" fill="none" opacity="1" stroke="#000000" stroke-linecap="round" stroke-linejoin="round" stroke-width="3.01522"/>
<path d="M97.5905 133.678C98.1909 133.878 97.7547 133.755 98.939 133.846" fill="none" opacity="1" stroke="#000000" stroke-linecap="round" stroke-linejoin="round" stroke-width="3.01522"/>
<path d="M73.6559 133.61C74.3111 133.127 74.1088 133.645 73.6976 133.902C73.23 134.194 73.1118 134.011 73.6559 133.61Z" fill="none" opacity="1" stroke="#000000" stroke-linecap="round" stroke-linejoin="round" stroke-width="3.01522"/>
<path d="M72.905 134.319C72.2374 134.128 73.6125 133.736 74.0313 133.527" fill="none" opacity="1" stroke="#000000" stroke-linecap="round" stroke-linejoin="round" stroke-width="3.01522"/>
<path d="M84.5017 140.326C84.9485 140.214 85.3306 140.734 85.7114 140.993" fill="none" opacity="1" stroke="#000000" stroke-linecap="round" stroke-linejoin="round" stroke-width="3.01522"/>
<path d="M75.1609 50.6181L88.7365 41.2043" fill="none" opacity="1" stroke="#000000" stroke-linecap="butt" stroke-linejoin="round" stroke-width="3.01522"/>
<path d="M77.9085 51.1838C77.8607 51.1429 77.7198 51.105 77.765 51.0613C78.3862 50.4616 79.0704 49.9295 79.754 49.4021C80.0969 49.1376 80.478 48.9266 80.8399 48.6888" fill="none" opacity="1" stroke="#000000" stroke-linecap="round" stroke-linejoin="round" stroke-width="3.01522"/>
</g>
</svg>
